{"glyphs":{"0":{"ha":913,"x_min":58,"x_max":894,"o":"m 72 506 q 235 869 114 735 q 564 1004 356 1004 q 815 912 735 1004 q 894 657 894 819 q 881 506 894 581 q 718 141 840 276 q 389 6 596 6 q 138 97 218 6 q 58 353 58 189 q 72 506 58 428 m 611 506 q 624 621 624 581 q 600 714 624 681 q 519 747 576 747 q 399 683 438 747 q 340 506 360 619 q 328 389 328 431 q 351 296 328 329 q 433 263 375 263 q 552 326 515 263 q 611 506 589 389 z "},"1":{"ha":538,"x_min":83,"x_max":557,"o":"m 83 729 l 129 983 l 557 983 l 383 0 l 99 0 l 226 729 l 83 729 z "},"2":{"ha":790,"x_min":-21,"x_max":803,"o":"m 15 218 q 266 398 169 325 q 433 547 363 471 q 515 689 504 624 q 518 719 518 711 q 456 782 518 782 q 390 751 415 782 q 351 649 365 721 l 88 649 q 244 922 126 832 q 515 1011 363 1011 q 733 946 664 1011 q 803 775 803 881 q 797 714 803 742 q 656 456 772 578 q 379 235 540 335 l 726 235 l 688 14 l -21 14 l 15 218 z "},"3":{"ha":847,"x_min":39,"x_max":824,"o":"m 122 713 q 263 953 156 869 q 532 1038 369 1038 q 749 974 674 1038 q 824 810 824 911 q 819 758 824 786 q 747 608 803 664 q 629 532 692 551 l 629 526 q 760 342 760 475 q 754 288 760 326 q 687 133 739 200 q 551 29 635 67 q 364 -8 468 -8 q 125 57 211 -8 q 39 258 39 122 q 44 333 39 299 l 310 333 q 306 297 306 315 q 392 217 306 217 q 467 250 436 217 q 497 333 497 283 q 466 392 497 374 q 367 411 435 411 l 319 411 l 360 632 l 406 632 q 499 649 458 631 q 549 725 539 668 q 550 747 550 733 q 533 795 550 779 q 486 811 517 811 q 421 783 444 811 q 389 713 397 754 l 122 713 z "},"4":{"ha":960,"x_min":31,"x_max":904,"o":"m 31 167 l 69 392 l 603 1000 l 901 1000 l 797 403 l 904 403 l 863 167 l 756 167 l 725 0 l 451 0 l 481 167 l 31 167 m 594 693 l 351 403 l 543 403 l 594 693 z "},"5":{"ha":910,"x_min":104,"x_max":903,"o":"m 861 775 l 443 775 l 415 621 q 497 665 449 649 q 600 682 546 682 q 786 612 725 682 q 847 431 847 542 q 840 351 847 396 q 701 94 811 188 q 426 0 592 0 q 188 69 272 0 q 104 257 104 139 q 108 313 104 283 l 375 313 q 392 257 372 281 q 457 233 413 233 q 538 267 507 233 q 578 356 568 300 q 581 386 581 378 q 558 446 581 425 q 494 467 536 467 q 431 448 457 467 q 394 401 404 429 l 131 401 l 239 1015 l 903 1015 l 861 775 z "},"6":{"ha":882,"x_min":79,"x_max":850,"o":"m 593 724 q 574 793 592 771 q 514 815 556 815 q 410 753 447 815 q 350 563 372 692 q 443 631 386 606 q 564 656 500 656 q 746 594 679 656 q 813 415 813 532 q 804 333 813 378 q 666 85 776 178 q 392 -7 556 -7 q 151 75 224 -7 q 79 310 79 157 q 100 507 79 389 q 258 907 147 779 q 567 1035 369 1035 q 781 959 713 1035 q 850 767 850 883 q 847 724 850 754 l 593 724 m 460 444 q 367 409 406 444 q 328 310 328 374 q 353 247 328 268 q 424 225 378 225 q 506 253 474 225 q 549 335 539 282 q 551 363 551 354 q 528 423 551 401 q 460 444 504 444 z "},"7":{"ha":726,"x_min":1,"x_max":810,"o":"m 775 799 l 283 0 l 1 0 l 493 767 l 100 767 l 140 999 l 810 999 l 775 799 z "},"8":{"ha":907,"x_min":50,"x_max":882,"o":"m 246 554 q 156 718 156 611 q 160 768 156 742 q 224 904 172 840 q 363 1008 275 968 q 568 1049 451 1049 q 744 1015 674 1049 q 849 928 815 982 q 882 811 882 875 q 878 768 882 789 q 822 640 865 694 q 715 554 779 586 q 825 364 825 490 q 819 307 825 346 q 736 131 800 204 q 578 19 672 57 q 379 -18 485 -18 q 142 51 235 -18 q 50 246 50 119 q 56 307 50 279 q 246 554 85 476 m 529 826 q 458 799 488 826 q 419 724 428 772 q 417 700 417 707 q 438 644 417 664 q 493 624 458 624 q 563 650 533 624 q 603 724 593 676 q 606 749 606 740 q 585 806 606 786 q 529 826 564 826 m 460 438 q 369 406 407 438 q 321 321 331 375 q 319 300 319 314 q 345 231 319 257 q 419 206 371 206 q 520 247 481 206 q 560 346 560 288 q 533 413 560 389 q 460 438 507 438 z "},"9":{"ha":842,"x_min":64,"x_max":832,"o":"m 319 307 q 341 236 321 260 q 406 213 361 213 q 501 272 468 213 q 558 461 535 331 q 469 397 524 421 q 354 374 415 374 q 171 435 239 374 q 103 614 103 497 q 110 694 103 658 q 248 942 138 850 q 522 1033 358 1033 q 760 953 689 1033 q 832 722 832 874 q 814 535 832 646 q 662 128 765 263 q 365 -7 558 -7 q 140 72 215 -7 q 64 269 64 150 q 65 307 64 294 l 319 307 m 456 585 q 547 622 511 585 q 582 718 582 658 q 492 801 582 801 q 408 773 442 801 q 365 692 375 744 q 363 668 363 675 q 387 607 363 629 q 456 585 411 585 z "},"\u0000":{"ha":0,"x_min":0,"x_max":0,"o":""},"\r":{"ha":279,"x_min":0,"x_max":0,"o":""}," ":{"ha":279,"x_min":0,"x_max":0,"o":""},"अ":{"ha":1168,"x_min":47,"x_max":1278,"o":"m 1278 1028 l 1243 819 l 1121 819 l 976 0 l 726 0 l 786 336 l 668 336 q 551 153 642 221 q 333 85 460 85 q 124 149 201 85 q 47 324 47 214 q 53 382 47 354 l 286 382 q 285 365 285 376 q 303 317 285 336 q 356 299 322 299 q 418 322 393 299 q 449 382 443 344 q 450 401 450 389 q 426 452 450 432 q 357 472 403 472 l 292 472 l 328 672 l 393 672 q 476 699 443 672 q 508 769 508 725 q 492 813 508 797 q 447 829 475 829 q 389 808 414 829 q 357 756 364 788 l 128 756 q 191 903 142 839 q 316 1004 240 968 q 483 1040 392 1040 q 671 986 604 1040 q 738 836 738 932 q 733 785 738 813 q 676 658 721 711 q 560 581 631 606 l 558 575 q 621 542 592 565 l 822 542 l 907 1028 l 1278 1028 z "},"आ":{"ha":1621,"x_min":47,"x_max":1731,"o":"m 1693 819 l 1574 819 l 1429 0 l 1179 0 l 1322 819 l 1121 819 l 976 0 l 726 0 l 786 336 l 668 336 q 551 153 642 221 q 333 85 460 85 q 124 149 201 85 q 47 324 47 214 q 53 382 47 354 l 286 382 q 285 365 285 376 q 303 317 285 336 q 356 299 322 299 q 418 322 393 299 q 449 382 443 344 q 450 401 450 389 q 426 452 450 432 q 357 472 403 472 l 292 472 l 328 672 l 393 672 q 476 699 443 672 q 508 769 508 725 q 492 813 508 797 q 447 829 475 829 q 389 808 414 829 q 357 756 364 788 l 128 756 q 191 903 142 839 q 316 1004 240 968 q 483 1040 392 1040 q 671 986 604 1040 q 738 836 738 932 q 733 785 738 813 q 676 658 721 711 q 560 581 631 606 l 558 575 q 621 542 592 565 l 822 542 l 907 1028 l 1731 1028 l 1693 819 z "},"इ":{"ha":814,"x_min":6,"x_max":926,"o":"m 411 561 q 336 513 346 561 q 347 478 332 490 q 392 467 363 467 l 451 467 q 628 416 557 467 q 699 260 699 365 q 693 201 699 229 q 601 34 675 96 q 417 -28 528 -28 q 326 -11 364 -28 q 268 26 289 6 l 243 -121 l 6 -121 l 68 238 l 293 238 l 292 224 q 313 174 292 190 q 371 157 333 157 q 435 179 411 157 q 460 236 460 201 q 372 292 460 292 q 282 293 317 292 q 142 344 201 297 q 83 478 83 392 q 88 524 83 501 q 185 686 106 633 q 379 739 265 739 l 461 739 l 475 819 l 42 819 l 78 1028 l 926 1028 l 890 819 l 718 819 l 696 690 l 672 561 l 411 561 z "},"ई":{"ha":803,"x_min":6,"x_max":1118,"o":"m 888 1124 q 893 1163 893 1144 q 881 1203 893 1189 q 846 1217 868 1217 q 793 1192 813 1217 q 764 1117 774 1168 l 750 1028 l 929 1028 l 892 819 l 721 819 l 697 690 l 696 690 l 672 561 l 411 561 q 356 548 378 561 q 335 504 335 535 q 350 476 335 486 q 392 467 365 467 l 451 467 q 628 416 557 467 q 699 260 699 365 q 693 201 699 229 q 601 34 675 96 q 417 -28 528 -28 q 326 -11 364 -28 q 268 26 289 6 l 243 -121 l 6 -121 l 68 238 l 293 238 l 292 224 q 313 174 292 190 q 371 157 333 157 q 435 179 411 157 q 460 235 460 201 q 372 292 460 292 q 282 293 317 292 q 142 344 201 297 q 83 478 83 392 q 88 524 83 501 q 185 686 106 633 q 379 739 265 739 l 463 739 l 478 819 l 43 819 l 81 1028 l 518 1028 l 533 1113 q 639 1334 557 1243 q 878 1425 721 1425 q 1056 1369 994 1425 q 1118 1214 1118 1314 q 1107 1124 1118 1175 l 888 1124 z "},"उ":{"ha":781,"x_min":13,"x_max":890,"o":"m 853 818 l 746 818 l 735 754 q 678 619 721 672 q 581 551 636 565 l 579 547 q 663 480 632 529 q 694 361 694 431 q 690 308 694 336 q 565 90 665 172 q 315 7 465 7 q 94 74 175 7 q 13 264 13 142 q 19 335 13 293 l 258 335 q 256 311 256 318 q 279 252 256 275 q 342 229 303 229 q 425 264 392 229 q 458 351 458 299 q 436 412 458 389 q 368 435 414 435 l 278 435 l 317 653 l 369 653 q 451 681 417 653 q 497 767 486 708 l 506 818 l 33 818 l 71 1028 l 890 1028 l 853 818 z "},"ऊ":{"ha":1176,"x_min":13,"x_max":1286,"o":"m 735 754 q 678 619 721 672 q 581 551 636 565 l 579 547 l 814 547 q 1024 494 949 547 q 1099 333 1099 440 q 1093 275 1099 303 q 991 93 1072 163 q 783 24 910 24 q 699 32 744 24 l 732 219 l 774 219 q 827 236 806 219 q 854 283 849 253 q 856 296 856 288 q 837 336 856 322 q 783 350 818 350 l 689 350 q 683 294 689 321 q 619 147 668 213 q 491 44 569 82 q 315 7 413 7 q 94 74 175 7 q 13 264 13 142 q 19 335 13 293 l 258 335 q 256 311 256 318 q 279 252 256 275 q 342 229 303 229 q 425 264 392 229 q 458 351 458 299 q 436 412 458 389 q 368 435 414 435 l 278 435 l 317 653 l 369 653 q 451 681 417 653 q 497 767 486 708 l 507 819 l 33 819 l 71 1028 l 1286 1028 l 1250 819 l 746 819 l 735 754 z "},"ऋ":{"ha":1474,"x_min":21,"x_max":1583,"o":"m 938 819 l 904 632 l 1092 632 q 1179 690 1165 632 l 1188 739 l 1403 739 l 1318 256 l 1278 256 q 1190 228 1221 256 q 1160 156 1160 200 q 1188 107 1160 122 q 1261 92 1215 92 q 1342 103 1294 92 l 1307 -96 q 1193 -107 1240 -107 q 988 -51 1064 -107 q 913 104 913 4 q 917 150 913 125 q 987 296 932 236 q 1125 383 1042 356 l 1138 453 q 1018 435 1079 435 l 869 435 l 793 0 l 563 0 l 597 194 l 340 0 l 21 0 l 22 11 l 632 429 q 588 490 619 468 q 506 513 556 513 q 370 464 424 513 q 303 338 317 415 l 53 338 q 128 538 72 450 q 272 674 185 625 q 467 724 358 724 q 675 638 608 724 l 707 819 l 35 819 l 71 1028 l 1583 1028 l 1549 819 l 938 819 z "},"ॠ":{"ha":1478,"x_min":21,"x_max":1588,"o":"m 936 819 l 903 632 l 1090 632 q 1179 690 1165 632 l 1188 739 l 1403 739 l 1317 250 l 1268 250 q 1201 238 1226 250 q 1169 193 1175 225 q 1187 150 1164 163 q 1250 138 1210 138 l 1333 138 l 1301 -47 l 1231 -47 q 1153 -60 1183 -47 q 1115 -108 1122 -74 q 1211 -168 1104 -168 q 1294 -161 1251 -168 q 1358 -147 1336 -154 l 1326 -332 q 1238 -353 1290 -346 q 1139 -361 1186 -361 q 945 -316 1024 -361 q 867 -176 867 -271 q 917 -38 867 -99 q 1043 39 968 22 l 1044 43 q 961 86 993 54 q 929 171 929 118 q 986 311 929 260 q 1124 376 1043 363 l 1138 453 q 1017 435 1079 435 l 869 435 l 793 0 l 563 0 l 596 194 l 340 0 l 21 0 l 22 11 l 632 429 q 588 490 621 468 q 506 513 554 513 q 370 464 424 513 q 303 338 317 415 l 51 338 q 128 538 72 451 q 272 674 185 625 q 467 724 358 724 q 674 638 607 724 l 706 819 l 33 819 l 71 1028 l 1588 1028 l 1550 819 l 936 819 z "},"ऌ":{"ha":1260,"x_min":24,"x_max":1360,"o":"m 1058 819 l 1038 701 q 1134 614 1099 672 q 1169 468 1169 556 q 1163 389 1169 438 q 1115 250 1150 311 l 1107 250 q 999 228 1033 250 q 957 164 964 206 l 956 153 q 986 104 956 121 q 1065 88 1017 88 q 1147 96 1114 88 l 1111 -103 q 997 -111 1053 -111 q 789 -56 865 -111 q 713 101 713 -1 q 717 151 713 125 q 784 285 731 228 q 910 369 838 342 l 914 390 q 917 421 917 413 q 896 484 917 461 q 835 507 875 507 q 747 468 779 507 q 706 372 715 429 l 697 326 l 490 326 l 499 372 q 501 410 501 397 q 481 480 501 453 q 417 507 461 507 q 332 474 365 507 q 288 385 299 442 q 283 346 283 364 q 389 250 283 250 q 426 251 411 250 l 389 35 q 339 33 365 33 q 106 106 186 33 q 26 307 26 178 q 33 389 26 353 q 112 578 53 501 q 251 691 171 654 q 418 728 331 728 q 560 688 508 728 q 632 582 613 649 l 638 582 q 705 658 664 625 q 796 708 746 692 l 817 819 l 24 819 l 61 1028 l 1360 1028 l 1324 819 l 1058 819 z "},"ॡ":{"ha":1276,"x_min":25,"x_max":1375,"o":"m 1058 819 l 1038 701 q 1135 616 1099 674 q 1171 474 1171 558 q 1163 389 1171 435 q 1117 250 1151 319 l 1078 250 q 978 193 988 250 q 996 151 972 164 q 1058 138 1019 138 l 1143 138 l 1111 -47 l 1040 -47 q 961 -60 992 -47 q 924 -108 931 -74 q 1021 -168 913 -168 q 1103 -161 1061 -168 q 1168 -147 1146 -154 l 1136 -332 q 1048 -353 1100 -346 q 949 -361 996 -361 q 755 -316 833 -361 q 676 -176 676 -271 q 727 -38 676 -99 q 853 39 778 22 l 854 43 q 771 86 803 54 q 739 171 739 118 q 788 302 739 253 q 910 371 838 351 l 914 390 q 917 421 917 413 q 896 484 917 461 q 835 507 875 507 q 747 468 779 507 q 704 372 714 429 l 697 326 l 490 326 l 497 372 q 500 408 500 397 q 417 507 500 507 q 331 474 365 507 q 286 385 297 440 q 283 347 283 371 q 389 250 283 250 q 425 251 411 250 l 388 35 q 339 33 365 33 q 106 106 186 33 q 26 307 26 178 q 33 389 26 353 q 111 578 53 501 q 249 691 169 654 q 417 728 329 728 q 560 688 507 728 q 632 582 613 649 l 638 582 q 796 708 699 675 l 815 819 l 25 819 l 61 1028 l 1375 1028 l 1338 819 l 1058 819 z "},"ए":{"ha":906,"x_min":32,"x_max":1015,"o":"m 978 819 l 868 819 l 851 726 q 751 500 825 578 q 539 422 676 422 q 457 429 506 422 l 497 653 q 524 650 517 650 q 610 732 594 650 l 625 819 l 407 819 l 326 363 q 324 331 324 340 q 348 263 324 286 q 411 239 372 239 q 487 265 456 239 q 526 339 518 292 l 772 339 q 647 108 747 190 q 393 26 546 26 q 156 100 240 26 q 72 299 72 174 q 79 371 72 329 l 157 819 l 32 819 l 69 1028 l 1015 1028 l 978 819 z "},"ऐ":{"ha":907,"x_min":33,"x_max":1017,"o":"m 979 819 l 869 819 l 853 726 q 752 500 826 578 q 540 422 678 422 q 458 429 507 422 l 499 653 q 525 650 518 650 q 611 732 596 650 l 626 819 l 408 819 l 328 363 q 325 331 325 340 q 349 263 325 286 q 413 239 374 239 q 488 265 457 239 q 528 339 519 292 l 774 339 q 648 108 749 190 q 394 26 547 26 q 158 100 242 26 q 74 299 74 174 q 81 371 74 329 l 158 819 l 33 819 l 71 1028 l 657 1028 q 595 1138 619 1104 q 538 1184 571 1172 q 444 1196 506 1196 l 367 1196 l 403 1397 l 476 1397 q 662 1371 596 1396 q 779 1269 728 1346 q 892 1028 831 1193 l 1017 1028 l 979 819 z "},"ओ":{"ha":1621,"x_min":47,"x_max":1731,"o":"m 1731 1028 l 1693 819 l 1574 819 l 1429 0 l 1179 0 l 1322 819 l 1121 819 l 976 0 l 726 0 l 786 336 l 668 336 q 551 153 642 221 q 333 85 460 85 q 124 149 201 85 q 47 324 47 214 q 53 382 47 354 l 286 382 q 285 365 285 376 q 303 317 285 336 q 356 299 322 299 q 418 322 393 299 q 449 382 443 344 q 450 401 450 389 q 426 452 450 432 q 357 472 403 472 l 292 472 l 328 672 l 393 672 q 476 699 443 672 q 508 769 508 725 q 492 813 508 797 q 447 829 475 829 q 389 808 414 829 q 357 756 364 788 l 128 756 q 191 903 142 839 q 316 1004 240 968 q 483 1040 392 1040 q 671 986 604 1040 q 738 836 738 932 q 733 785 738 813 q 676 658 721 711 q 560 581 631 606 l 558 575 q 621 542 592 565 l 822 542 l 907 1028 l 1379 1028 q 1317 1138 1342 1104 q 1260 1184 1292 1172 q 1167 1196 1228 1196 l 1089 1196 l 1124 1397 l 1197 1397 q 1383 1371 1317 1396 q 1500 1269 1449 1346 q 1614 1028 1551 1193 l 1731 1028 z "},"औ":{"ha":1621,"x_min":47,"x_max":1731,"o":"m 1731 1028 l 1693 819 l 1574 819 l 1429 0 l 1179 0 l 1322 819 l 1121 819 l 976 0 l 726 0 l 786 336 l 668 336 q 551 153 642 221 q 333 85 460 85 q 124 149 201 85 q 47 324 47 214 q 53 382 47 354 l 286 382 q 285 365 285 376 q 303 317 285 336 q 356 299 322 299 q 418 322 393 299 q 449 382 443 344 q 450 401 450 389 q 426 452 450 432 q 357 472 403 472 l 292 472 l 328 672 l 393 672 q 476 699 443 672 q 508 769 508 725 q 492 813 508 797 q 447 829 475 829 q 389 808 414 829 q 357 756 364 788 l 128 756 q 191 903 142 839 q 316 1004 240 968 q 483 1040 392 1040 q 671 986 604 1040 q 738 836 738 932 q 733 785 738 813 q 676 658 721 711 q 560 581 631 606 l 558 575 q 621 542 592 565 l 822 542 l 907 1028 l 1388 1028 l 1357 1047 q 1281 1093 1304 1082 q 1230 1107 1258 1104 q 1126 1110 1201 1110 l 1047 1110 l 1074 1265 l 1149 1265 q 1256 1263 1222 1265 q 1319 1246 1289 1260 q 1386 1199 1349 1232 q 1324 1299 1356 1268 q 1261 1338 1293 1331 q 1174 1346 1229 1346 l 1089 1346 l 1117 1501 l 1194 1501 q 1373 1476 1317 1501 q 1478 1357 1429 1450 q 1607 1028 1526 1264 l 1731 1028 z "},"ऍ":{"ha":907,"x_min":-6,"x_max":978,"o":"m 525 1131 q 298 1193 372 1131 q 224 1368 224 1256 q 231 1439 224 1397 l 446 1439 q 443 1407 443 1428 q 471 1339 443 1364 q 557 1314 499 1314 q 664 1348 625 1314 q 713 1439 703 1382 l 926 1439 q 801 1213 901 1294 q 525 1131 700 1131 m 940 819 l 831 819 l 814 726 q 713 500 788 578 q 501 422 639 422 q 419 429 468 422 l 460 653 q 486 650 479 650 q 572 732 557 650 l 588 819 l 369 819 l 289 363 q 286 331 286 340 q 310 263 286 286 q 374 239 335 239 q 449 265 418 239 q 489 339 481 292 l 735 339 q 609 108 710 190 q 356 26 508 26 q 119 100 203 26 q 35 299 35 174 q 42 371 35 329 l 119 819 l -6 819 l 32 1028 l 978 1028 l 940 819 z "},"ॲ":{"ha":1168,"x_min":47,"x_max":1481,"o":"m 1278 1028 l 1243 819 l 1121 819 l 976 0 l 726 0 l 786 336 l 668 336 q 551 153 642 221 q 333 85 460 85 q 124 149 201 85 q 47 324 47 214 q 53 382 47 354 l 286 382 q 285 365 285 376 q 303 317 285 336 q 356 299 322 299 q 418 322 393 299 q 449 382 443 344 q 450 401 450 389 q 426 452 450 432 q 357 472 403 472 l 292 472 l 328 672 l 393 672 q 476 699 443 672 q 508 769 508 725 q 492 813 508 797 q 447 829 475 829 q 389 808 414 829 q 357 756 364 788 l 128 756 q 191 903 142 839 q 316 1004 240 968 q 483 1040 392 1040 q 671 986 604 1040 q 738 836 738 932 q 733 785 738 813 q 676 658 721 711 q 560 581 631 606 l 558 575 q 621 542 592 565 l 822 542 l 907 1028 l 1278 1028 m 1481 1446 q 1359 1219 1456 1301 q 1089 1138 1263 1138 q 856 1201 935 1138 q 778 1378 778 1265 q 785 1446 778 1407 l 999 1446 q 996 1417 996 1426 q 1024 1347 996 1372 q 1110 1322 1051 1322 q 1217 1356 1178 1322 q 1267 1446 1257 1390 l 1481 1446 z "},"ऑ":{"ha":1621,"x_min":47,"x_max":1731,"o":"m 1693 819 l 1574 819 l 1429 0 l 1179 0 l 1322 819 l 1121 819 l 976 0 l 726 0 l 786 336 l 668 336 q 551 153 642 221 q 333 85 460 85 q 124 149 201 85 q 47 324 47 214 q 53 382 47 354 l 286 382 q 285 365 285 376 q 303 317 285 336 q 356 299 322 299 q 418 322 393 299 q 449 382 443 344 q 450 401 450 389 q 426 452 450 432 q 357 472 403 472 l 292 472 l 328 672 l 393 672 q 476 699 443 672 q 508 769 508 725 q 492 813 508 797 q 447 829 475 829 q 389 808 414 829 q 357 756 364 788 l 128 756 q 191 903 142 839 q 316 1004 240 968 q 483 1040 392 1040 q 671 986 604 1040 q 738 836 738 932 q 733 785 738 813 q 676 658 721 711 q 560 581 631 606 l 558 575 q 621 542 592 565 l 822 542 l 907 1028 l 1731 1028 l 1693 819 m 1700 1439 q 1578 1213 1675 1294 q 1308 1131 1482 1131 q 1076 1194 1154 1131 q 997 1371 997 1258 q 1004 1439 997 1400 l 1218 1439 q 1215 1410 1215 1419 q 1243 1340 1215 1365 q 1329 1315 1271 1315 q 1437 1349 1397 1315 q 1486 1439 1476 1383 l 1700 1439 z "},"ा":{"ha":454,"x_min":13,"x_max":564,"o":"m 13 0 l 156 819 l 33 819 l 71 1028 l 564 1028 l 526 819 l 407 819 l 263 0 l 13 0 z "},"ि":{"ha":454,"x_min":11,"x_max":1381,"o":"m 860 1447 q 1142 1399 1025 1447 q 1320 1265 1260 1350 q 1381 1069 1381 1179 q 1375 997 1381 1031 l 1371 974 l 1121 974 l 1124 993 q 1126 1031 1126 1018 q 1042 1188 1126 1132 q 825 1244 958 1244 q 576 1188 683 1244 q 442 1028 469 1132 l 564 1028 l 526 819 l 407 819 l 261 0 l 11 0 l 156 819 l 33 819 l 71 1028 l 193 1028 q 313 1245 224 1150 q 542 1394 401 1340 q 860 1447 682 1447 z "},"ी":{"ha":454,"x_min":-272,"x_max":565,"o":"m 565 1028 l 528 819 l 408 819 l 263 0 l 13 0 l 157 819 l 35 819 l 72 1028 l 201 1028 l 210 1078 q 215 1139 215 1114 q 131 1236 215 1236 q 34 1190 64 1236 q -10 1078 4 1144 l -28 974 l -272 974 l -256 1067 q -122 1346 -225 1244 q 168 1447 -19 1447 q 461 1178 461 1447 q 451 1067 461 1121 l 444 1028 l 565 1028 z "},"ु":{"ha":0,"x_min":-796,"x_max":-106,"o":"m -108 -214 q -221 -415 -124 -340 q -464 -489 -318 -489 q -699 -426 -603 -489 q -796 -229 -796 -362 q -789 -157 -796 -190 l -567 -157 q -571 -196 -571 -178 q -537 -270 -571 -246 q -447 -294 -504 -294 q -355 -269 -389 -294 q -321 -197 -321 -243 q -343 -147 -321 -165 q -411 -128 -365 -128 l -465 -128 l -431 67 l -376 67 q -177 5 -249 67 q -106 -168 -106 -57 q -108 -214 -106 -183 z "},"ू":{"ha":0,"x_min":-679,"x_max":0,"o":"m -428 -465 q -606 -411 -532 -465 q -679 -256 -679 -357 q -674 -203 -679 -239 q -560 -10 -653 -78 q -329 57 -467 57 q -81 -37 -161 57 q 0 -276 0 -131 q -8 -369 0 -322 q -28 -458 -15 -406 l -231 -458 l -212 -361 q -206 -289 -206 -319 q -242 -171 -206 -214 q -351 -128 -278 -128 q -432 -149 -397 -128 q -475 -211 -467 -169 q -476 -225 -476 -217 q -453 -272 -476 -257 q -393 -287 -429 -287 l -358 -287 l -390 -465 l -428 -465 z "},"ृ":{"ha":0,"x_min":-637,"x_max":-162,"o":"m -197 -454 q -362 -478 -278 -478 q -494 -452 -431 -478 q -597 -374 -557 -426 q -637 -243 -637 -321 q -633 -190 -637 -218 q -517 -5 -612 -71 q -272 61 -422 61 q -181 58 -211 61 l -211 -110 l -279 -110 q -362 -135 -332 -110 q -392 -204 -392 -160 q -362 -260 -392 -240 q -286 -279 -332 -279 q -162 -261 -231 -279 l -197 -454 z "},"ॄ":{"ha":0,"x_min":-631,"x_max":-137,"o":"m -171 -656 q -258 -676 -206 -668 q -357 -683 -310 -683 q -551 -639 -472 -683 q -631 -501 -631 -594 q -626 -458 -631 -482 q -567 -347 -614 -393 q -451 -285 -519 -300 l -451 -281 q -568 -151 -568 -253 q -565 -118 -568 -143 q -470 18 -549 -25 q -303 61 -392 61 l -181 61 l -204 -72 l -226 -72 q -326 -129 -315 -72 q -246 -186 -337 -186 l -162 -186 l -194 -371 l -264 -371 q -344 -383 -312 -371 q -381 -432 -375 -396 q -283 -492 -392 -492 q -137 -471 -221 -492 l -171 -656 z "},"ॢ":{"ha":0,"x_min":-804,"x_max":71,"o":"m 22 -394 q -61 -410 -35 -394 q -93 -458 -87 -426 q -76 -500 -99 -485 q -14 -515 -53 -515 q 50 -508 22 -515 l 22 -662 q -67 -669 -26 -669 q -225 -626 -167 -669 q -283 -507 -283 -583 q -240 -381 -283 -436 q -133 -301 -197 -325 l -132 -290 q -129 -265 -129 -274 q -144 -218 -129 -236 q -189 -200 -160 -200 q -253 -229 -229 -200 q -285 -301 -276 -258 l -292 -335 l -451 -335 l -446 -301 q -443 -271 -443 -282 q -458 -219 -443 -239 q -504 -200 -472 -200 q -577 -233 -550 -200 q -604 -319 -604 -265 q -526 -393 -604 -393 q -497 -390 -508 -393 l -529 -558 q -564 -560 -544 -560 q -742 -504 -681 -560 q -804 -350 -804 -449 q -799 -290 -804 -318 q -692 -97 -776 -162 q -504 -32 -608 -32 q -397 -61 -436 -32 q -343 -140 -357 -90 l -339 -140 q -253 -61 -307 -90 q -129 -32 -199 -32 q 14 -81 -43 -32 q 71 -228 71 -131 q 65 -290 71 -261 q 31 -394 56 -342 l 22 -394 z "},"ॣ":{"ha":0,"x_min":-803,"x_max":72,"o":"m -3 -394 q -78 -436 -71 -394 q -14 -476 -83 -476 l 47 -476 l 22 -619 l -31 -619 q -92 -629 -69 -619 q -119 -667 -115 -639 q -46 -710 -128 -710 q 65 -694 -1 -710 l 39 -836 q -26 -851 13 -846 q -103 -856 -65 -856 q -250 -823 -192 -856 q -308 -719 -308 -790 q -271 -610 -308 -654 q -175 -554 -233 -567 l -175 -551 q -237 -517 -214 -542 q -261 -451 -261 -492 q -224 -350 -261 -387 q -132 -299 -187 -312 l -131 -290 q -128 -267 -128 -274 q -144 -218 -128 -236 q -189 -200 -160 -200 q -252 -229 -229 -200 q -283 -301 -275 -258 l -290 -335 l -450 -335 l -444 -301 q -442 -272 -442 -282 q -457 -220 -442 -240 q -504 -200 -472 -200 q -577 -233 -550 -200 q -604 -319 -604 -265 q -583 -375 -604 -357 q -525 -393 -561 -393 q -497 -390 -507 -393 l -528 -558 q -564 -560 -543 -560 q -741 -504 -679 -560 q -803 -351 -803 -449 q -797 -290 -803 -318 q -690 -97 -774 -162 q -504 -32 -607 -32 q -342 -140 -375 -32 l -337 -140 q -253 -62 -307 -92 q -129 -32 -199 -32 q 15 -81 -43 -32 q 72 -228 72 -131 q 67 -290 72 -261 q 31 -394 58 -337 l -3 -394 z "},"े":{"ha":0,"x_min":-542,"x_max":-14,"o":"m -249 1021 q -312 1136 -287 1101 q -370 1183 -337 1171 q -464 1196 -403 1196 l -542 1196 l -507 1397 l -433 1397 q -247 1371 -312 1396 q -128 1268 -181 1346 q -14 1021 -76 1190 l -249 1021 z "},"ै":{"ha":0,"x_min":-585,"x_max":-24,"o":"m -437 1501 q -259 1476 -315 1501 q -154 1356 -203 1450 q -24 1024 -106 1263 l -237 1024 l -274 1047 q -351 1093 -328 1082 q -402 1107 -374 1104 q -506 1110 -431 1110 l -585 1110 l -558 1265 l -483 1265 q -376 1263 -410 1265 q -313 1246 -343 1260 q -246 1199 -283 1232 q -308 1299 -276 1268 q -371 1338 -339 1331 q -458 1346 -403 1346 l -543 1346 l -515 1501 l -437 1501 z "},"ो":{"ha":456,"x_min":-86,"x_max":565,"o":"m 565 1028 l 528 819 l 408 819 l 264 0 l 13 0 l 157 819 l 35 819 l 72 1028 l 204 1028 q 142 1138 167 1104 q 84 1184 117 1172 q -10 1196 51 1196 l -86 1196 l -51 1397 l 22 1397 q 208 1371 143 1396 q 325 1269 274 1346 q 438 1028 376 1193 l 565 1028 z "},"ौ":{"ha":454,"x_min":-172,"x_max":522,"o":"m 522 1028 l 485 819 l 364 819 l 221 0 l -31 0 l 114 819 l -8 819 l 29 1028 l 168 1028 l 138 1047 q 62 1093 85 1082 q 10 1107 39 1104 q -93 1110 -18 1110 l -172 1110 l -144 1265 l -71 1265 q 36 1263 3 1265 q 99 1246 69 1260 q 167 1199 129 1232 q 105 1299 136 1268 q 42 1338 74 1331 q -46 1346 10 1346 l -131 1346 l -103 1501 l -25 1501 q 153 1476 97 1501 q 258 1357 210 1450 q 389 1028 307 1264 l 522 1028 z "},"ॅ":{"ha":0,"x_min":-421,"x_max":282,"o":"m 282 1432 q 160 1206 257 1288 q -110 1124 64 1124 q -342 1188 -264 1124 q -421 1364 -421 1251 q -414 1432 -421 1393 l -200 1432 q -203 1403 -203 1413 q -175 1333 -203 1358 q -89 1308 -147 1308 q 19 1342 -21 1308 q 68 1432 58 1376 l 282 1432 z "},"ॉ":{"ha":457,"x_min":13,"x_max":738,"o":"m 738 1432 q 616 1206 713 1288 q 346 1124 519 1124 q 113 1188 192 1124 q 35 1364 35 1251 q 42 1432 35 1393 l 256 1432 q 253 1403 253 1413 q 281 1333 253 1358 q 367 1308 308 1308 q 474 1342 435 1308 q 524 1432 514 1376 l 738 1432 m 13 0 l 156 819 l 33 819 l 71 1028 l 564 1028 l 526 819 l 407 819 l 263 0 l 13 0 z "},"क":{"ha":1326,"x_min":33,"x_max":1436,"o":"m 849 819 l 818 644 q 1010 725 892 725 q 1185 653 1122 725 q 1247 469 1247 582 q 1240 394 1247 436 q 1121 169 1213 247 q 901 90 1029 90 q 807 101 851 90 l 840 297 q 868 293 851 293 q 955 329 919 293 q 990 424 990 365 q 967 488 990 463 q 901 513 944 513 q 816 476 849 513 q 772 381 783 440 l 706 0 l 464 0 l 492 161 q 283 75 414 75 q 108 147 175 75 q 40 335 40 219 q 47 406 40 364 q 165 638 72 551 q 396 725 258 725 q 576 640 528 725 l 608 819 l 33 819 l 71 1028 l 1436 1028 l 1400 819 l 849 819 m 397 285 q 486 315 450 285 q 532 389 522 346 l 533 396 q 536 421 536 413 q 510 487 536 461 q 438 513 483 513 q 338 474 379 513 q 297 376 297 436 q 325 310 297 336 q 397 285 353 285 z "},"ख":{"ha":1346,"x_min":35,"x_max":1456,"o":"m 1456 1028 l 1419 819 l 1299 819 l 1156 0 l 906 0 l 940 196 q 781 143 876 143 q 739 147 760 143 q 588 32 675 75 q 397 -11 501 -11 q 144 69 233 -11 q 54 297 54 149 q 64 399 54 349 l 92 563 l 122 563 q 271 604 219 563 q 338 733 322 646 l 351 819 l 35 819 l 72 1028 l 1456 1028 m 442 204 q 593 269 539 204 q 571 388 571 319 q 576 456 571 424 q 678 645 596 574 q 869 717 760 717 q 1021 660 974 717 l 1049 819 l 604 819 l 583 699 q 488 487 560 567 q 311 389 415 407 l 307 368 q 303 331 303 350 q 338 239 303 274 q 442 204 374 204 m 789 411 q 811 353 789 374 q 869 333 833 333 q 950 367 918 333 q 982 450 982 401 q 962 506 982 483 q 903 528 942 528 q 822 496 856 528 q 789 411 789 464 z "},"ग":{"ha":1163,"x_min":33,"x_max":1272,"o":"m 1272 1028 l 1235 819 l 1114 819 l 969 0 l 719 0 l 863 819 l 711 819 l 660 525 q 548 297 635 383 q 311 211 461 211 q 112 272 186 211 q 38 444 38 332 q 44 513 38 474 q 54 558 50 543 l 296 558 l 288 514 q 285 481 285 489 q 332 425 285 425 q 407 514 392 425 l 461 819 l 33 819 l 71 1028 l 1272 1028 z "},"घ":{"ha":965,"x_min":33,"x_max":1075,"o":"m 1038 819 l 918 819 l 775 0 l 522 0 l 560 217 q 311 126 458 126 q 128 182 201 126 q 56 335 56 238 q 60 379 56 357 q 123 506 74 454 q 233 575 172 557 l 233 581 q 139 717 139 611 q 143 767 139 740 l 153 819 l 33 819 l 71 1028 l 1075 1028 l 1038 819 m 665 819 l 403 819 l 396 779 q 393 753 393 760 q 483 682 393 682 l 535 682 l 499 481 l 428 481 q 347 456 375 481 q 318 390 318 431 q 343 345 318 361 q 410 329 368 329 q 532 368 478 329 q 606 472 586 407 l 665 819 z "},"ङ":{"ha":996,"x_min":13,"x_max":1106,"o":"m 1106 1028 l 1069 819 l 717 819 l 701 736 l 703 736 l 671 561 l 411 561 q 356 547 379 561 q 333 506 333 533 q 389 467 333 467 l 450 467 q 630 416 560 467 q 700 267 700 365 q 694 214 700 253 q 585 33 675 97 q 342 -31 494 -31 q 105 31 197 -31 q 13 204 13 93 q 15 238 13 215 l 265 238 q 288 177 261 197 q 356 157 314 157 q 430 178 401 157 q 458 238 458 200 q 374 292 458 292 l 326 292 q 158 335 235 292 q 82 478 82 378 q 86 524 82 499 q 185 682 104 628 q 378 736 265 736 l 460 736 l 475 819 l 38 819 l 74 1028 l 1106 1028 m 878 629 q 955 599 925 629 q 985 524 985 569 q 939 419 985 464 q 832 375 893 375 q 756 405 786 375 q 726 479 726 435 q 748 553 726 518 q 804 608 769 588 q 878 629 839 629 z "},"च":{"ha":1054,"x_min":33,"x_max":1164,"o":"m 1126 819 l 1006 819 l 863 0 l 611 0 l 647 204 q 534 132 599 157 q 394 107 469 107 q 222 163 288 107 q 156 314 156 218 q 160 367 156 340 q 239 510 174 451 l 69 510 l 104 706 l 621 706 l 586 510 l 525 510 q 447 483 481 510 q 403 413 413 457 q 401 394 401 406 q 431 335 401 356 q 510 314 461 314 q 633 367 583 315 q 701 510 683 419 l 756 819 l 33 819 l 71 1028 l 1164 1028 l 1126 819 z "},"छ":{"ha":1146,"x_min":32,"x_max":1256,"o":"m 972 819 l 954 725 q 1049 646 1015 700 q 1082 515 1082 592 q 1075 444 1082 486 q 974 223 1053 318 q 767 76 896 128 q 471 25 639 25 q 249 57 346 25 q 99 150 153 89 q 44 294 44 211 q 50 349 44 322 q 224 544 78 490 l 224 549 q 131 685 131 579 q 135 735 131 708 l 150 819 l 32 819 l 69 1028 l 1256 1028 l 1218 819 l 972 819 m 740 819 l 400 819 l 388 746 q 385 717 385 726 q 458 649 385 649 l 486 649 l 450 449 l 428 449 q 337 417 369 449 q 304 339 304 385 q 511 239 304 239 q 858 457 819 239 q 861 489 861 468 q 847 540 861 521 q 808 560 833 560 q 755 535 778 560 q 724 467 732 510 q 719 408 719 440 q 721 367 719 381 l 517 367 q 514 415 514 392 q 521 494 514 458 q 591 644 538 586 q 724 726 644 703 l 740 819 z "},"ज":{"ha":1203,"x_min":33,"x_max":1313,"o":"m 1275 819 l 1156 819 l 1011 0 l 760 0 l 840 460 l 714 460 l 711 447 q 586 214 686 303 q 336 125 486 125 q 124 197 203 125 q 44 388 44 268 q 51 456 44 417 l 90 674 l 342 674 l 303 454 q 300 419 300 442 q 367 344 300 344 q 433 373 407 344 q 468 454 458 401 l 507 674 l 878 674 l 904 819 l 33 819 l 71 1028 l 1313 1028 l 1275 819 z "},"झ":{"ha":1226,"x_min":7,"x_max":1336,"o":"m 1300 819 l 1178 819 l 1035 0 l 789 0 l 838 279 l 683 279 q 686 239 686 254 q 682 186 686 214 q 596 35 667 93 q 421 -24 525 -24 q 330 -8 368 -24 q 269 26 292 7 l 244 -121 l 7 -121 l 69 235 l 294 235 q 311 178 290 199 q 372 158 332 158 q 437 179 414 158 q 460 235 460 200 q 438 276 460 261 q 372 292 415 292 q 282 293 317 292 q 140 346 200 297 q 81 485 81 394 q 85 532 81 507 q 183 688 103 638 q 379 739 264 739 l 461 739 l 475 819 l 44 819 l 82 1028 l 1336 1028 l 1300 819 m 932 819 l 718 819 l 696 690 l 672 561 l 411 561 q 362 549 382 561 q 336 513 342 538 q 347 478 332 490 q 392 467 363 467 l 451 467 l 871 467 l 932 819 z "},"ञ":{"ha":1171,"x_min":32,"x_max":1281,"o":"m 1243 819 l 1124 819 l 979 0 l 729 0 l 782 299 l 678 299 q 535 122 632 185 q 317 58 439 58 q 110 122 188 58 q 32 300 32 186 q 35 339 32 311 l 271 339 q 299 287 275 304 q 356 269 322 269 q 447 315 411 269 q 483 425 483 361 q 462 492 483 467 q 400 518 440 518 q 336 500 367 518 q 290 449 306 482 l 54 449 q 190 656 85 581 q 435 731 294 731 q 625 672 551 731 q 710 510 699 614 l 818 510 l 872 819 l 33 819 l 71 1028 l 1281 1028 l 1243 819 z "},"ट":{"ha":894,"x_min":33,"x_max":1004,"o":"m 485 521 q 358 482 413 521 q 290 374 303 443 q 288 344 288 354 q 322 263 288 293 q 417 233 356 233 q 538 274 489 233 q 599 383 588 315 l 838 383 q 758 190 818 274 q 603 62 697 107 q 392 17 508 17 q 204 53 285 17 q 79 158 124 90 q 35 318 35 226 q 40 382 35 353 q 184 633 67 542 q 482 731 301 724 l 497 819 l 33 819 l 69 1028 l 1004 1028 l 967 819 l 743 819 l 692 521 l 485 521 z "},"ठ":{"ha":928,"x_min":32,"x_max":1038,"o":"m 638 819 l 621 728 q 784 627 722 699 q 846 449 846 556 q 839 379 846 421 q 756 192 819 271 q 596 74 692 114 q 388 33 500 33 q 209 69 289 33 q 83 173 129 106 q 36 332 36 240 q 43 400 36 361 q 156 622 65 538 q 375 733 247 707 l 390 819 l 32 819 l 68 1028 l 1038 1028 l 1000 819 l 638 819 m 593 419 q 559 503 593 472 q 465 535 525 535 q 339 485 389 535 q 289 358 289 436 q 322 274 289 306 q 414 242 354 242 q 542 292 492 242 q 593 419 593 343 z "},"ड":{"ha":785,"x_min":13,"x_max":894,"o":"m 411 561 q 356 547 379 561 q 333 506 333 533 q 389 467 333 467 l 450 467 q 630 416 560 467 q 700 267 700 365 q 694 214 700 253 q 585 33 675 97 q 342 -31 494 -31 q 105 31 197 -31 q 13 204 13 93 q 15 238 13 215 l 265 238 q 288 177 261 197 q 356 157 314 157 q 430 178 401 157 q 458 238 458 200 q 374 292 458 292 l 326 292 q 158 335 235 292 q 82 478 82 378 q 86 524 82 499 q 185 682 104 628 q 378 736 265 736 l 458 736 l 474 819 l 38 819 l 74 1028 l 894 1028 l 858 819 l 714 819 l 668 561 l 411 561 z "},"ढ":{"ha":918,"x_min":36,"x_max":1028,"o":"m 561 574 q 378 518 456 574 q 283 363 300 463 q 279 318 279 340 q 325 203 279 246 q 467 160 371 160 q 588 187 538 160 q 647 267 638 214 q 638 308 651 292 q 601 325 625 325 q 563 313 579 325 q 542 278 547 300 q 539 254 539 269 l 363 254 q 367 310 363 288 q 457 451 382 401 q 643 501 532 501 q 802 448 742 501 q 863 306 863 394 q 858 260 863 283 q 726 55 835 129 q 442 -19 618 -19 q 233 22 324 -19 q 90 138 142 63 q 39 315 39 214 q 44 385 39 353 q 131 579 65 499 q 296 701 197 660 q 510 743 394 743 l 528 743 l 540 819 l 36 819 l 72 1028 l 1028 1028 l 990 819 l 775 819 l 733 574 l 561 574 z "},"ण":{"ha":1261,"x_min":33,"x_max":1371,"o":"m 1335 819 l 1214 819 l 1069 0 l 818 0 l 963 819 l 804 819 l 747 500 q 633 271 722 358 q 393 183 543 183 q 179 253 258 183 q 100 439 100 322 q 106 500 100 472 l 163 819 l 33 819 l 71 1028 l 1371 1028 l 1335 819 m 558 819 l 408 819 l 347 476 q 346 457 346 469 q 363 412 346 429 q 408 394 379 394 q 467 417 444 394 q 497 476 490 439 l 558 819 z "},"त":{"ha":990,"x_min":29,"x_max":1100,"o":"m 1063 819 l 942 819 l 797 0 l 546 0 l 628 467 l 464 467 q 335 422 385 467 q 285 303 285 378 q 316 226 285 254 q 411 197 347 197 l 435 197 l 400 1 l 361 1 q 198 32 274 1 q 76 126 122 63 q 29 282 29 189 q 35 346 29 317 q 190 598 64 515 q 490 681 315 681 l 665 681 l 690 819 l 33 819 l 71 1028 l 1100 1028 l 1063 819 z "},"थ":{"ha":1114,"x_min":56,"x_max":1224,"o":"m 1224 1028 l 1188 819 l 1067 819 l 921 0 l 671 0 l 714 246 q 585 147 669 188 q 396 107 501 107 q 147 190 239 107 q 56 418 56 272 q 64 507 56 461 q 90 615 72 561 l 207 615 q 395 647 325 615 q 479 756 465 679 q 481 771 481 761 q 467 812 481 796 q 428 828 453 828 q 364 791 385 828 q 346 706 343 754 l 121 706 q 167 872 125 796 q 288 994 210 949 q 468 1040 365 1040 q 651 980 583 1040 q 718 814 718 919 q 713 749 718 778 q 583 528 689 613 q 297 438 478 443 q 340 350 299 386 q 469 314 381 314 q 667 388 582 314 q 776 599 753 461 l 851 1028 l 1224 1028 z "},"द":{"ha":856,"x_min":39,"x_max":965,"o":"m 467 507 q 349 467 394 507 q 303 360 303 426 q 327 297 303 319 q 394 274 351 274 q 475 303 442 274 q 517 381 508 332 l 749 381 l 672 -54 l 428 -54 l 461 135 q 286 76 392 76 q 113 142 182 76 q 44 328 44 207 q 51 404 44 369 q 194 640 79 558 q 478 722 310 722 l 514 722 l 532 819 l 39 819 l 75 1028 l 965 1028 l 926 819 l 783 819 l 728 507 l 467 507 z "},"ध":{"ha":1035,"x_min":58,"x_max":1146,"o":"m 1110 819 l 993 819 l 849 0 l 599 0 l 636 211 q 335 99 524 99 q 136 153 214 99 q 58 308 58 208 q 63 354 58 329 q 133 486 76 436 q 254 553 189 536 l 256 558 q 161 627 199 578 q 124 749 124 676 q 128 799 124 772 q 227 977 147 914 q 422 1040 307 1040 q 594 988 532 1040 q 656 843 656 936 q 639 742 656 796 l 456 742 q 460 775 460 758 q 447 815 460 800 q 407 831 435 831 q 361 812 381 831 q 336 763 342 793 q 333 738 333 743 q 365 679 333 697 q 444 661 396 661 l 565 661 l 529 460 l 457 460 q 365 441 400 460 q 322 383 329 422 q 321 369 321 379 q 351 321 321 338 q 436 304 381 304 q 604 366 535 304 q 692 529 674 428 l 692 528 l 743 819 l 779 1028 l 1146 1028 l 1110 819 z "},"न":{"ha":1157,"x_min":33,"x_max":1267,"o":"m 1231 819 l 1110 819 l 965 0 l 714 0 l 799 478 l 647 478 q 658 400 658 440 q 654 346 658 375 q 589 199 639 260 q 468 106 539 138 q 321 75 397 75 q 173 109 239 75 q 70 203 107 143 q 33 340 33 264 q 39 396 33 357 q 171 614 65 542 q 426 686 276 686 l 835 686 l 858 819 l 33 819 l 71 1028 l 1267 1028 l 1231 819 m 463 401 q 441 456 463 435 q 382 478 419 478 q 299 444 333 478 q 264 363 264 411 q 286 307 264 328 q 347 286 308 286 q 428 319 394 286 q 463 401 463 353 z "},"प":{"ha":950,"x_min":33,"x_max":1060,"o":"m 1022 819 l 901 819 l 758 0 l 508 0 l 556 271 q 363 206 479 206 q 160 282 233 206 q 88 483 88 358 q 96 568 88 525 l 140 819 l 33 819 l 71 1028 l 1060 1028 l 1022 819 m 651 819 l 392 819 l 346 568 q 342 529 342 547 q 371 446 342 476 q 458 415 400 415 q 556 455 518 415 q 606 560 594 494 l 606 558 l 651 819 z "},"फ":{"ha":1367,"x_min":33,"x_max":1476,"o":"m 879 819 l 849 642 q 942 703 888 681 q 1063 725 997 725 q 1233 658 1174 725 q 1293 483 1293 590 q 1286 413 1293 454 q 1219 240 1268 313 q 1098 128 1169 167 q 943 90 1026 90 q 840 106 885 90 l 874 297 q 911 292 899 292 q 997 330 964 292 q 1031 424 1031 368 q 1008 488 1031 463 q 944 513 986 513 q 853 476 890 513 q 801 375 817 439 l 736 0 l 485 0 l 532 267 q 351 206 458 206 q 156 278 226 206 q 86 471 86 351 q 94 556 86 513 l 140 819 l 33 819 l 71 1028 l 1476 1028 l 1440 819 l 879 819 m 628 819 l 392 819 l 346 556 q 342 515 342 535 q 367 442 342 468 q 444 415 393 415 q 531 449 496 415 q 579 536 565 483 l 628 819 z "},"ब":{"ha":954,"x_min":33,"x_max":1064,"o":"m 1064 1028 l 1028 819 l 907 819 l 764 0 l 522 0 l 549 147 q 452 88 510 108 q 326 68 394 68 q 178 105 243 68 q 79 206 114 142 q 44 353 44 271 q 51 424 44 382 q 122 591 68 519 q 260 701 176 663 q 443 740 343 740 q 640 674 567 740 l 665 819 l 33 819 l 71 1028 l 1064 1028 m 468 581 q 360 549 408 581 l 592 357 q 610 411 603 379 q 613 442 613 431 q 574 542 613 503 q 468 581 535 581 m 267 411 q 264 378 264 400 q 306 281 264 317 q 411 244 347 244 q 518 275 469 244 l 285 467 q 267 411 271 439 z "},"भ":{"ha":1210,"x_min":33,"x_max":1319,"o":"m 1319 1028 l 1283 819 l 1161 819 l 1015 0 l 764 0 l 842 446 l 690 446 l 681 393 q 558 154 653 240 q 308 68 463 68 q 108 131 182 68 q 33 301 33 194 q 39 360 33 332 q 169 576 64 501 q 418 650 275 650 l 492 650 l 508 746 q 511 774 511 765 q 464 828 511 828 q 417 808 436 828 q 392 756 399 788 q 389 714 388 733 l 138 714 l 138 726 q 140 765 138 740 q 253 964 163 888 q 490 1040 343 1040 q 683 976 622 1040 q 743 800 743 911 q 733 700 743 749 l 725 650 l 878 650 l 944 1028 l 1319 1028 m 456 446 l 390 446 q 304 419 338 446 q 271 343 271 392 q 290 295 271 311 q 342 279 310 279 q 410 306 383 279 q 444 379 436 333 l 456 446 z "},"म":{"ha":1196,"x_min":19,"x_max":1306,"o":"m 1268 819 l 1149 819 l 1003 0 l 751 0 l 831 446 l 676 446 l 667 393 q 543 154 639 240 q 293 68 447 68 q 93 131 167 68 q 19 303 19 194 q 25 360 19 321 q 156 576 50 501 q 403 650 261 650 l 478 650 l 507 819 l 33 819 l 71 1028 l 1306 1028 l 1268 819 m 896 819 l 742 819 l 711 650 l 865 650 l 896 819 m 442 446 l 374 446 q 290 419 324 446 q 257 344 257 393 q 277 297 257 314 q 328 279 297 279 q 396 306 369 279 q 431 379 422 333 l 442 446 z "},"य":{"ha":1060,"x_min":33,"x_max":1169,"o":"m 1132 819 l 1011 819 l 867 0 l 617 0 l 650 190 q 535 124 600 147 q 393 100 471 100 q 149 184 239 100 q 60 410 60 268 q 67 492 60 456 q 89 582 75 539 l 101 582 q 260 629 211 582 q 325 767 308 676 l 335 819 l 33 819 l 71 1028 l 1169 1028 l 1132 819 m 760 819 l 582 819 l 564 721 q 484 543 546 614 q 310 456 422 472 q 308 436 308 449 q 351 344 308 381 q 469 308 393 308 q 627 367 564 308 q 707 519 690 426 l 707 518 l 760 819 z "},"र":{"ha":736,"x_min":33,"x_max":846,"o":"m 810 819 l 707 819 l 699 765 q 576 501 667 599 q 307 399 486 403 l 286 278 q 283 254 283 261 q 296 215 283 229 q 335 200 308 200 q 381 221 363 200 q 407 275 400 242 l 413 317 l 653 317 l 649 283 q 540 67 626 146 q 315 -12 453 -12 q 108 56 182 -12 q 33 232 33 124 q 39 290 33 264 l 94 600 l 233 600 q 384 642 336 600 q 447 765 432 685 l 457 819 l 35 819 l 72 1028 l 846 1028 l 810 819 z "},"ल":{"ha":1272,"x_min":32,"x_max":1382,"o":"m 1099 819 l 1074 676 q 1158 583 1128 642 q 1189 446 1189 525 q 1181 364 1189 408 q 1039 113 1153 206 q 751 24 925 19 l 701 26 l 742 243 q 776 240 756 240 q 874 276 833 240 q 926 376 915 313 q 929 407 929 399 q 906 474 929 450 q 842 499 883 499 q 754 460 786 499 q 711 364 722 421 l 704 326 l 497 326 l 504 364 q 508 404 508 385 q 488 472 508 446 q 424 499 468 499 q 338 466 372 499 q 293 376 304 433 q 290 344 290 354 q 319 268 290 296 q 401 240 349 240 q 433 243 411 240 l 394 26 l 353 24 q 118 103 201 24 q 35 311 35 182 q 43 390 35 349 q 119 576 63 503 q 253 685 175 650 q 417 719 331 719 q 564 679 508 719 q 640 575 619 639 l 644 575 q 835 710 711 681 l 853 819 l 32 819 l 69 1028 l 1382 1028 l 1344 819 l 1099 819 z "},"व":{"ha":922,"x_min":33,"x_max":1032,"o":"m 1032 1028 l 996 819 l 875 819 l 732 0 l 486 0 l 514 154 q 306 72 428 72 q 115 144 185 72 q 44 339 44 215 q 53 426 44 381 q 170 649 78 567 q 403 731 263 731 q 600 649 532 731 l 631 819 l 33 819 l 71 1028 l 1032 1028 m 403 271 q 503 307 463 271 q 556 397 544 343 l 558 407 q 560 426 560 414 q 531 501 560 472 q 447 531 501 531 q 335 485 382 531 q 289 376 289 440 q 319 300 289 329 q 403 271 350 271 z "},"श":{"ha":1207,"x_min":42,"x_max":1317,"o":"m 367 206 q 432 234 408 206 q 467 318 456 263 l 710 318 q 599 77 690 163 q 347 -8 507 -8 q 124 60 206 -8 q 42 250 42 129 q 49 319 42 281 l 97 594 l 288 594 q 543 740 517 594 q 544 760 544 747 q 529 806 544 789 q 486 824 514 824 q 415 785 440 824 q 389 694 389 747 l 140 694 q 256 949 154 857 q 514 1040 357 1040 q 721 973 640 1040 q 801 788 801 906 q 796 724 801 753 q 641 469 765 554 q 344 385 517 385 l 313 385 l 299 306 q 296 275 296 286 q 367 206 296 206 m 1317 1028 l 1279 819 l 1160 819 l 1014 0 l 760 0 l 942 1028 l 1317 1028 z "},"ष":{"ha":974,"x_min":33,"x_max":1083,"o":"m 1046 819 l 924 819 l 781 0 l 535 0 l 581 263 q 367 186 496 186 q 160 266 233 186 q 88 476 88 346 q 96 568 88 521 l 140 819 l 33 819 l 71 1028 l 1083 1028 l 1046 819 m 678 819 l 385 819 l 646 636 l 678 819 m 450 397 q 541 419 501 397 q 604 481 581 442 l 353 656 l 336 561 q 333 521 333 547 q 363 431 333 464 q 450 397 392 397 z "},"स":{"ha":1156,"x_min":35,"x_max":1265,"o":"m 1228 819 l 1107 819 l 963 0 l 713 0 l 782 396 l 307 396 l 286 279 q 285 260 285 272 q 340 200 285 200 q 421 292 404 200 l 661 292 q 555 69 647 150 q 317 -12 463 -12 q 110 59 183 -12 q 38 244 38 131 q 43 307 38 278 l 89 574 l 185 574 q 336 617 288 574 q 399 738 385 660 l 414 819 l 35 819 l 72 1028 l 1265 1028 l 1228 819 m 856 819 l 665 819 l 650 738 q 601 600 635 658 l 818 600 l 856 819 z "},"ह":{"ha":825,"x_min":25,"x_max":936,"o":"m 936 1028 l 900 819 l 726 819 l 714 743 l 682 567 l 446 567 q 369 514 379 567 l 368 504 q 383 474 368 486 q 431 475 399 475 q 589 442 524 475 q 688 354 654 408 q 721 238 721 300 q 718 207 721 226 l 479 207 q 456 257 479 236 q 393 278 433 278 q 307 239 344 278 q 269 135 269 200 q 293 69 269 92 q 354 47 317 47 q 420 66 390 47 q 463 113 450 85 l 703 113 q 574 -84 675 -10 q 333 -158 474 -158 q 172 -124 242 -158 q 63 -28 101 -90 q 25 115 25 35 q 31 181 25 151 q 186 411 58 333 q 128 531 128 456 q 160 640 128 592 q 250 716 192 689 q 386 743 308 743 l 475 743 l 489 819 l 49 819 l 86 1028 l 936 1028 z "},"ळ":{"ha":1314,"x_min":29,"x_max":1424,"o":"m 1131 819 l 1104 672 q 1197 581 1164 639 q 1231 447 1231 524 q 1225 381 1231 413 q 1152 208 1207 282 q 1019 94 1097 133 q 851 54 940 54 q 698 93 764 54 q 604 206 632 132 l 596 206 q 471 93 547 132 q 306 54 394 54 q 108 124 185 54 q 32 315 32 194 q 38 381 32 351 q 110 553 56 479 q 244 667 165 626 q 411 707 324 707 q 660 557 592 707 l 665 557 q 867 696 750 668 l 889 819 l 29 819 l 67 1028 l 1424 1028 l 1388 819 l 1131 819 m 510 381 q 511 403 511 388 q 485 469 511 443 q 417 494 460 494 q 320 456 360 494 q 281 357 281 417 q 306 292 281 315 q 376 268 332 268 q 463 299 426 268 q 510 381 500 331 m 981 379 q 982 401 982 388 q 956 469 982 443 q 886 494 931 494 q 791 456 831 494 q 751 358 751 417 q 777 292 751 317 q 846 268 803 268 q 933 299 896 268 q 981 379 971 329 z "},"क़":{"ha":1326,"x_min":33,"x_max":1436,"o":"m 849 819 l 818 644 q 1010 725 892 725 q 1185 653 1122 725 q 1247 469 1247 582 q 1240 394 1247 436 q 1121 169 1213 247 q 901 90 1029 90 q 807 101 851 90 l 840 297 q 868 293 851 293 q 955 329 919 293 q 990 424 990 365 q 967 488 990 463 q 901 513 944 513 q 816 476 849 513 q 772 381 783 440 l 706 0 l 464 0 l 492 161 q 283 75 414 75 q 108 147 175 75 q 40 335 40 219 q 47 406 40 364 q 165 638 72 551 q 396 725 258 725 q 576 640 528 725 l 608 819 l 33 819 l 71 1028 l 1436 1028 l 1400 819 l 849 819 m 397 285 q 486 315 450 285 q 532 389 522 346 l 533 396 q 536 421 536 413 q 510 487 536 461 q 438 513 483 513 q 338 474 379 513 q 297 376 297 436 q 325 310 297 336 q 397 285 353 285 m 347 -114 q 323 -197 347 -158 q 260 -258 299 -235 q 176 -281 221 -281 q 90 -248 124 -281 q 57 -165 57 -215 q 81 -82 57 -121 q 144 -19 104 -43 q 226 4 183 4 q 314 -29 281 4 q 347 -114 347 -62 z "},"ख़":{"ha":1346,"x_min":35,"x_max":1456,"o":"m 1456 1028 l 1419 819 l 1299 819 l 1156 0 l 906 0 l 940 196 q 781 143 876 143 q 739 147 760 143 q 588 32 675 75 q 397 -11 501 -11 q 144 69 233 -11 q 54 297 54 149 q 64 399 54 349 l 92 563 l 122 563 q 271 604 219 563 q 338 733 322 646 l 351 819 l 35 819 l 72 1028 l 1456 1028 m 442 204 q 593 269 539 204 q 571 388 571 319 q 576 456 571 424 q 678 645 596 574 q 869 717 760 717 q 1021 660 974 717 l 1049 819 l 604 819 l 583 699 q 488 487 560 567 q 311 389 415 407 l 307 368 q 303 331 303 350 q 338 239 303 274 q 442 204 374 204 m 789 411 q 811 353 789 374 q 869 333 833 333 q 950 367 918 333 q 982 450 982 401 q 962 506 982 483 q 903 528 942 528 q 822 496 856 528 q 789 411 789 464 m 471 -193 q 447 -276 471 -237 q 383 -337 422 -314 q 300 -360 344 -360 q 214 -327 247 -360 q 181 -244 181 -294 q 204 -161 181 -200 q 267 -99 228 -122 q 350 -75 307 -75 q 438 -108 404 -75 q 471 -193 471 -142 z "},"ग़":{"ha":1163,"x_min":33,"x_max":1272,"o":"m 1272 1028 l 1235 819 l 1114 819 l 969 0 l 719 0 l 863 819 l 711 819 l 660 525 q 548 297 635 383 q 311 211 461 211 q 112 272 186 211 q 38 444 38 332 q 44 513 38 474 q 54 558 50 543 l 296 558 l 288 514 q 285 481 285 489 q 332 425 285 425 q 407 514 392 425 l 461 819 l 33 819 l 71 1028 l 1272 1028 m 411 22 q 387 -60 411 -22 q 324 -122 363 -99 q 240 -144 285 -144 q 154 -112 188 -144 q 121 -29 121 -79 q 144 54 121 15 q 208 117 168 93 q 290 140 247 140 q 378 107 344 140 q 411 22 411 74 z "},"ज़":{"ha":1203,"x_min":33,"x_max":1313,"o":"m 1275 819 l 1156 819 l 1011 0 l 760 0 l 840 460 l 714 460 l 711 447 q 586 214 686 303 q 336 125 486 125 q 124 197 203 125 q 44 388 44 268 q 51 456 44 417 l 90 674 l 342 674 l 303 454 q 300 419 300 442 q 367 344 300 344 q 433 373 407 344 q 468 454 458 401 l 507 674 l 878 674 l 904 819 l 33 819 l 71 1028 l 1313 1028 l 1275 819 m 438 -61 q 413 -144 438 -106 q 350 -205 389 -182 q 267 -228 311 -228 q 181 -195 214 -228 q 147 -112 147 -162 q 171 -29 147 -68 q 234 33 194 10 q 317 57 274 57 q 404 24 371 57 q 438 -61 438 -10 z "},"ड़":{"ha":785,"x_min":13,"x_max":894,"o":"m 411 561 q 356 547 379 561 q 333 506 333 533 q 389 467 333 467 l 450 467 q 630 416 560 467 q 700 267 700 365 q 694 214 700 253 q 585 33 675 97 q 342 -31 494 -31 q 105 31 197 -31 q 13 204 13 93 q 15 238 13 215 l 265 238 q 288 177 261 197 q 356 157 314 157 q 430 178 401 157 q 458 238 458 200 q 374 292 458 292 l 326 292 q 158 335 235 292 q 82 478 82 378 q 86 524 82 499 q 185 682 104 628 q 378 736 265 736 l 458 736 l 474 819 l 38 819 l 74 1028 l 894 1028 l 858 819 l 714 819 l 668 561 l 411 561 m 438 -217 q 413 -299 438 -261 q 350 -360 389 -337 q 267 -383 311 -383 q 181 -351 214 -383 q 147 -268 147 -318 q 171 -185 147 -224 q 234 -122 194 -146 q 317 -99 274 -99 q 404 -132 371 -99 q 438 -217 438 -165 z "},"ढ़":{"ha":918,"x_min":36,"x_max":1028,"o":"m 561 574 q 378 518 456 574 q 283 363 300 463 q 279 318 279 340 q 325 203 279 246 q 467 160 371 160 q 588 187 538 160 q 647 267 638 214 q 638 308 651 292 q 601 325 625 325 q 563 313 579 325 q 542 278 547 300 q 539 254 539 269 l 363 254 q 367 310 363 288 q 457 451 382 401 q 643 501 532 501 q 802 448 742 501 q 863 306 863 394 q 858 260 863 283 q 726 55 835 129 q 442 -19 618 -19 q 233 22 324 -19 q 90 138 142 63 q 39 315 39 214 q 44 385 39 353 q 131 579 65 499 q 296 701 197 660 q 510 743 394 743 l 528 743 l 540 819 l 36 819 l 72 1028 l 1028 1028 l 990 819 l 775 819 l 733 574 l 561 574 m 513 -204 q 488 -287 513 -249 q 425 -348 464 -325 q 342 -371 386 -371 q 256 -338 289 -371 q 222 -256 222 -306 q 246 -172 222 -211 q 309 -110 269 -133 q 392 -86 349 -86 q 479 -119 446 -86 q 513 -204 513 -153 z "},"फ़":{"ha":1367,"x_min":33,"x_max":1476,"o":"m 879 819 l 849 642 q 942 703 888 681 q 1063 725 997 725 q 1233 658 1174 725 q 1293 483 1293 590 q 1286 413 1293 454 q 1219 240 1268 313 q 1098 128 1169 167 q 943 90 1026 90 q 840 106 885 90 l 874 297 q 911 292 899 292 q 997 330 964 292 q 1031 424 1031 368 q 1008 488 1031 463 q 944 513 986 513 q 853 476 890 513 q 801 375 817 439 l 736 0 l 485 0 l 532 267 q 351 206 458 206 q 156 278 226 206 q 86 471 86 351 q 94 556 86 513 l 140 819 l 33 819 l 71 1028 l 1476 1028 l 1440 819 l 879 819 m 628 819 l 392 819 l 346 556 q 342 515 342 535 q 367 442 342 468 q 444 415 393 415 q 531 449 496 415 q 579 536 565 483 l 628 819 m 357 26 q 333 -56 357 -18 q 269 -117 308 -94 q 186 -140 231 -140 q 100 -108 133 -140 q 67 -25 67 -75 q 90 58 67 19 q 153 121 114 97 q 236 144 193 144 q 324 111 290 144 q 357 26 357 78 z "},"ऱ":{"ha":736,"x_min":-117,"x_max":846,"o":"m 810 819 l 707 819 l 699 765 q 576 501 667 599 q 307 399 486 403 l 286 278 q 283 254 283 261 q 296 215 283 229 q 335 200 308 200 q 381 221 363 200 q 407 275 400 242 l 413 317 l 653 317 l 649 283 q 540 67 626 146 q 315 -12 453 -12 q 108 56 182 -12 q 33 232 33 124 q 39 290 33 264 l 94 600 l 233 600 q 384 642 336 600 q 447 765 432 685 l 457 819 l 35 819 l 72 1028 l 846 1028 l 810 819 m 174 -153 q 149 -235 174 -197 q 86 -297 125 -274 q 3 -319 47 -319 q -83 -287 -50 -319 q -117 -204 -117 -254 q -93 -121 -117 -160 q -30 -58 -69 -82 q 53 -35 10 -35 q 140 -68 107 -35 q 174 -153 174 -101 z "},"ं":{"ha":0,"x_min":-246,"x_max":46,"o":"m 46 1286 q 22 1204 46 1243 q -42 1142 -3 1165 q -126 1119 -82 1119 q -212 1153 -179 1119 q -246 1236 -246 1186 q -222 1319 -246 1281 q -159 1381 -199 1358 q -76 1404 -119 1404 q 12 1371 -22 1404 q 46 1286 46 1338 z "},"ँ":{"ha":0,"x_min":-419,"x_max":282,"o":"m 33 1479 q -1 1404 33 1436 q -79 1372 -35 1372 q -134 1394 -112 1372 q -156 1447 -156 1415 q -122 1524 -156 1490 q -46 1557 -87 1557 q 12 1535 -10 1557 q 33 1479 33 1513 m 282 1432 q 157 1203 257 1283 q -110 1124 57 1124 q -334 1189 -249 1124 q -419 1371 -419 1254 q -414 1432 -419 1404 l -215 1432 q -218 1408 -218 1415 q -185 1330 -218 1360 q -90 1300 -151 1300 q 25 1338 -21 1300 q 81 1432 71 1375 l 282 1432 z "},"ः":{"ha":410,"x_min":24,"x_max":385,"o":"m 385 664 q 361 581 385 619 q 298 521 338 543 q 215 499 258 499 q 128 532 163 499 q 94 615 94 565 q 119 697 94 658 q 183 759 143 736 q 265 782 222 782 q 351 748 318 782 q 385 664 385 714 m 315 267 q 291 185 315 224 q 227 124 267 147 q 144 101 188 101 q 58 134 92 101 q 24 217 24 167 q 48 301 24 263 q 112 362 72 339 q 194 385 151 385 q 281 351 247 385 q 315 267 315 318 z "},"ऽ":{"ha":838,"x_min":-7,"x_max":807,"o":"m -7 58 l 31 268 l 361 268 q 410 281 392 268 q 428 318 428 293 q 408 363 428 340 q 349 419 389 386 q 271 493 301 460 q 218 573 240 526 q 196 676 196 619 q 200 725 196 700 q 294 879 218 825 q 479 933 369 933 l 807 933 l 769 722 l 507 722 q 450 686 454 722 q 465 640 446 663 q 528 579 485 617 q 606 506 575 539 q 658 426 636 472 q 681 322 681 379 q 676 272 681 300 q 579 115 658 171 q 389 58 500 58 l -7 58 z "},"्":{"ha":0,"x_min":-450,"x_max":-68,"o":"m -324 -393 l -450 -74 l -201 -74 l -68 -393 l -324 -393 z "},"़":{"ha":0,"x_min":-504,"x_max":-214,"o":"m -214 -249 q -238 -331 -214 -293 q -301 -392 -262 -369 q -385 -415 -340 -415 q -471 -383 -437 -415 q -504 -300 -504 -350 q -481 -217 -504 -256 q -417 -154 -457 -178 q -335 -131 -378 -131 q -247 -164 -281 -131 q -214 -249 -214 -197 z "},"०":{"ha":913,"x_min":58,"x_max":894,"o":"m 72 506 q 235 869 114 735 q 564 1004 356 1004 q 815 912 735 1004 q 894 657 894 819 q 881 506 894 581 q 718 141 840 276 q 389 6 596 6 q 138 97 218 6 q 58 353 58 189 q 72 506 58 428 m 611 506 q 624 621 624 581 q 600 714 624 681 q 519 747 576 747 q 399 683 438 747 q 340 506 360 619 q 328 389 328 431 q 351 296 328 329 q 433 263 375 263 q 552 326 515 263 q 611 506 589 389 z "},"१":{"ha":538,"x_min":83,"x_max":557,"o":"m 83 729 l 129 983 l 557 983 l 383 0 l 99 0 l 226 729 l 83 729 z "},"२":{"ha":790,"x_min":-21,"x_max":803,"o":"m 15 218 q 266 398 169 325 q 433 547 363 471 q 515 689 504 624 q 518 719 518 711 q 456 782 518 782 q 390 751 415 782 q 351 649 365 721 l 88 649 q 244 922 126 832 q 515 1011 363 1011 q 733 946 664 1011 q 803 775 803 881 q 797 714 803 742 q 656 456 772 578 q 379 235 540 335 l 726 235 l 688 14 l -21 14 l 15 218 z "},"३":{"ha":847,"x_min":39,"x_max":824,"o":"m 122 713 q 263 953 156 869 q 532 1038 369 1038 q 749 974 674 1038 q 824 810 824 911 q 819 758 824 786 q 747 608 803 664 q 629 532 692 551 l 629 526 q 760 342 760 475 q 754 288 760 326 q 687 133 739 200 q 551 29 635 67 q 364 -8 468 -8 q 125 57 211 -8 q 39 258 39 122 q 44 333 39 299 l 310 333 q 306 297 306 315 q 392 217 306 217 q 467 250 436 217 q 497 333 497 283 q 466 392 497 374 q 367 411 435 411 l 319 411 l 360 632 l 406 632 q 499 649 458 631 q 549 725 539 668 q 550 747 550 733 q 533 795 550 779 q 486 811 517 811 q 421 783 444 811 q 389 713 397 754 l 122 713 z "},"४":{"ha":960,"x_min":31,"x_max":904,"o":"m 31 167 l 69 392 l 603 1000 l 901 1000 l 797 403 l 904 403 l 863 167 l 756 167 l 725 0 l 451 0 l 481 167 l 31 167 m 594 693 l 351 403 l 543 403 l 594 693 z "},"५":{"ha":910,"x_min":104,"x_max":903,"o":"m 861 775 l 443 775 l 415 621 q 497 665 449 649 q 600 682 546 682 q 786 612 725 682 q 847 431 847 542 q 840 351 847 396 q 701 94 811 188 q 426 0 592 0 q 188 69 272 0 q 104 257 104 139 q 108 313 104 283 l 375 313 q 392 257 372 281 q 457 233 413 233 q 538 267 507 233 q 578 356 568 300 q 581 386 581 378 q 558 446 581 425 q 494 467 536 467 q 431 448 457 467 q 394 401 404 429 l 131 401 l 239 1015 l 903 1015 l 861 775 z "},"६":{"ha":882,"x_min":79,"x_max":850,"o":"m 593 724 q 574 793 592 771 q 514 815 556 815 q 410 753 447 815 q 350 563 372 692 q 443 631 386 606 q 564 656 500 656 q 746 594 679 656 q 813 415 813 532 q 804 333 813 378 q 666 85 776 178 q 392 -7 556 -7 q 151 75 224 -7 q 79 310 79 157 q 100 507 79 389 q 258 907 147 779 q 567 1035 369 1035 q 781 959 713 1035 q 850 767 850 883 q 847 724 850 754 l 593 724 m 460 444 q 367 409 406 444 q 328 310 328 374 q 353 247 328 268 q 424 225 378 225 q 506 253 474 225 q 549 335 539 282 q 551 363 551 354 q 528 423 551 401 q 460 444 504 444 z "},"७":{"ha":726,"x_min":1,"x_max":810,"o":"m 775 799 l 283 0 l 1 0 l 493 767 l 100 767 l 140 999 l 810 999 l 775 799 z "},"८":{"ha":907,"x_min":50,"x_max":882,"o":"m 246 554 q 156 718 156 611 q 160 768 156 742 q 224 904 172 840 q 363 1008 275 968 q 568 1049 451 1049 q 744 1015 674 1049 q 849 928 815 982 q 882 811 882 875 q 878 768 882 789 q 822 640 865 694 q 715 554 779 586 q 825 364 825 490 q 819 307 825 346 q 736 131 800 204 q 578 19 672 57 q 379 -18 485 -18 q 142 51 235 -18 q 50 246 50 119 q 56 307 50 279 q 246 554 85 476 m 529 826 q 458 799 488 826 q 419 724 428 772 q 417 700 417 707 q 438 644 417 664 q 493 624 458 624 q 563 650 533 624 q 603 724 593 676 q 606 749 606 740 q 585 806 606 786 q 529 826 564 826 m 460 438 q 369 406 407 438 q 321 321 331 375 q 319 300 319 314 q 345 231 319 257 q 419 206 371 206 q 520 247 481 206 q 560 346 560 288 q 533 413 560 389 q 460 438 507 438 z "},"९":{"ha":842,"x_min":64,"x_max":832,"o":"m 319 307 q 341 236 321 260 q 406 213 361 213 q 501 272 468 213 q 558 461 535 331 q 469 397 524 421 q 354 374 415 374 q 171 435 239 374 q 103 614 103 497 q 110 694 103 658 q 248 942 138 850 q 522 1033 358 1033 q 760 953 689 1033 q 832 722 832 874 q 814 535 832 646 q 662 128 765 263 q 365 -7 558 -7 q 140 72 215 -7 q 64 269 64 150 q 65 307 64 294 l 319 307 m 456 585 q 547 622 511 585 q 582 718 582 658 q 492 801 582 801 q 408 773 442 801 q 365 692 375 744 q 363 668 363 675 q 387 607 363 629 q 456 585 411 585 z "},"ॐ":{"ha":1496,"x_min":11,"x_max":1393,"o":"m 865 1247 q 810 1269 832 1247 q 789 1324 789 1292 q 823 1401 789 1368 q 899 1435 857 1435 q 955 1413 933 1435 q 976 1357 976 1390 q 943 1280 976 1313 q 865 1247 910 1247 m 836 1000 q 606 1066 688 1000 q 524 1246 524 1132 q 529 1308 524 1279 l 728 1308 q 725 1283 725 1292 q 760 1207 725 1236 q 856 1178 794 1178 q 970 1215 925 1178 q 1025 1308 1015 1251 l 1226 1308 q 1103 1080 1203 1160 q 836 1000 1004 1000 m 1129 946 q 1329 885 1265 946 q 1393 706 1393 824 q 1383 603 1393 656 l 1354 440 q 1199 126 1318 235 q 897 18 1081 18 q 757 32 828 18 l 792 239 q 888 229 857 229 q 1042 285 992 229 q 1113 450 1093 342 l 1146 638 q 1149 672 1149 650 q 1092 735 1149 735 q 1003 635 1019 735 q 944 451 983 519 q 833 351 904 383 q 644 315 763 318 l 640 286 q 523 88 618 161 q 294 14 428 14 q 86 77 161 14 q 11 249 11 140 q 17 308 11 281 l 251 308 q 250 292 250 303 q 268 246 250 264 q 318 228 286 228 q 388 256 361 228 q 415 329 415 285 q 392 384 415 364 q 322 404 369 404 l 257 404 l 293 615 l 360 615 q 442 642 408 615 q 475 714 475 669 q 458 757 475 740 q 413 774 440 774 q 355 753 379 774 q 325 700 331 733 l 93 700 q 158 849 108 785 q 285 950 208 914 q 456 986 361 986 q 644 931 576 986 q 711 779 711 876 q 707 729 711 754 q 646 599 692 654 q 529 519 600 544 l 528 515 l 543 510 l 619 510 q 724 535 690 510 q 769 636 757 561 q 881 868 797 790 q 1129 946 965 946 z "},"॰":{"ha":653,"x_min":82,"x_max":572,"o":"m 369 697 q 517 646 463 697 q 572 510 572 594 q 568 461 572 486 q 472 292 549 358 q 289 226 394 226 q 138 278 194 226 q 82 414 82 331 q 86 461 82 436 q 183 631 104 565 q 369 697 263 697 m 344 550 q 267 519 299 550 q 235 444 235 489 q 256 393 235 413 q 314 374 278 374 q 381 398 353 374 q 417 461 410 422 q 418 478 418 467 q 399 531 418 511 q 344 550 379 550 z "},"।":{"ha":504,"x_min":110,"x_max":539,"o":"m 539 1028 l 358 0 l 110 0 l 290 1028 l 539 1028 z "},"॥":{"ha":911,"x_min":110,"x_max":944,"o":"m 539 1028 l 358 0 l 110 0 l 290 1028 l 539 1028 m 944 1028 l 764 0 l 514 0 l 694 1028 l 944 1028 z "},"₨":{"ha":1681,"x_min":7,"x_max":1642,"o":"m 919 665 q 833 490 903 565 q 650 382 763 414 l 807 0 l 503 0 l 368 363 l 344 363 l 281 0 l 7 0 l 181 979 l 610 979 q 844 910 764 979 q 925 728 925 842 q 919 665 925 693 m 1189 539 q 1217 499 1185 513 q 1328 469 1250 486 q 1468 435 1413 453 q 1564 378 1524 417 q 1604 274 1604 339 q 1600 233 1604 254 q 1540 109 1588 164 q 1414 22 1492 54 q 1236 -10 1336 -10 q 985 60 1072 -10 q 903 263 899 131 l 1172 263 q 1197 209 1169 226 q 1269 192 1224 192 q 1328 205 1307 192 q 1353 240 1349 218 q 1324 283 1357 269 q 1213 311 1290 297 q 1075 345 1128 328 q 983 401 1022 363 q 943 504 943 439 q 947 546 943 524 q 1006 668 958 613 q 1135 756 1054 724 q 1318 789 1215 789 q 1560 715 1479 789 q 1642 517 1642 640 l 1372 517 q 1345 569 1371 551 q 1276 586 1319 586 q 1217 574 1240 586 q 1189 539 1194 561 m 378 549 l 513 549 q 640 650 621 549 q 643 675 643 667 q 619 732 643 711 q 547 753 594 753 l 413 753 l 378 549 z "},"₹":{"ha":817,"x_min":40,"x_max":876,"o":"m 746 799 l 735 735 l 833 735 l 806 575 l 699 575 q 557 390 654 457 q 303 322 460 322 l 294 282 q 292 251 292 260 q 305 206 292 221 q 350 190 318 190 q 406 213 388 190 q 435 288 425 236 l 686 288 q 563 67 656 147 q 324 -14 471 -14 q 40 231 40 -14 q 49 324 40 274 l 79 499 q 286 503 218 499 q 390 524 354 508 q 443 575 426 540 l 79 575 l 107 735 l 479 735 l 490 799 l 118 799 l 150 979 l 876 979 l 846 799 l 746 799 z "},"‌":{"ha":0,"x_min":-32,"x_max":33,"o":"m -32 -319 l -32 1126 l 33 1126 l 33 -319 l -32 -319 z "},"‍":{"ha":0,"x_min":-178,"x_max":178,"o":"m 132 778 l 32 882 l 32 -319 l -33 -319 l -33 882 l -129 781 l -175 826 l -46 956 l -178 1088 l -132 1133 l 0 1001 l 133 1133 l 178 1089 l 44 956 l 178 824 l 132 778 z "},"◌":{"ha":904,"x_min":69,"x_max":835,"o":"m 478 692 q 461 649 478 665 q 418 633 444 633 q 375 649 392 633 q 358 692 358 665 q 375 734 358 718 q 418 750 392 750 q 461 734 444 750 q 478 692 478 718 m 646 671 q 629 628 646 644 q 586 613 613 613 q 543 628 560 613 q 526 671 526 644 q 543 713 526 697 q 586 729 560 729 q 629 713 613 729 q 646 671 646 697 m 315 633 q 299 591 315 607 q 256 575 282 575 q 213 591 229 575 q 196 633 196 607 q 213 676 196 660 q 256 692 229 692 q 299 676 282 692 q 315 633 315 660 m 774 568 q 757 526 774 542 q 714 510 740 510 q 671 526 688 510 q 654 568 654 542 q 671 610 654 594 q 714 626 688 626 q 757 610 740 626 q 774 568 774 594 m 210 496 q 193 453 210 469 q 150 438 176 438 q 107 453 124 438 q 90 496 90 469 q 107 538 90 522 q 150 554 124 554 q 193 538 176 554 q 210 496 210 522 m 835 410 q 818 367 835 383 q 775 351 801 351 q 732 367 749 351 q 715 410 715 383 q 732 452 715 436 q 775 468 749 468 q 818 452 801 468 q 835 410 835 436 m 189 328 q 172 285 189 301 q 129 269 156 269 q 86 285 103 269 q 69 328 69 301 q 86 370 69 354 q 129 386 103 386 q 172 370 156 386 q 189 328 189 354 m 821 243 q 804 201 821 217 q 761 185 788 185 q 718 201 735 185 q 701 243 701 217 q 718 285 701 269 q 761 301 735 301 q 804 285 788 301 q 821 243 821 269 m 251 171 q 235 128 251 144 q 192 113 218 113 q 149 128 165 113 q 132 171 132 144 q 149 213 132 197 q 192 229 165 229 q 235 213 218 229 q 251 171 251 197 m 719 110 q 703 67 719 83 q 660 51 686 51 q 617 67 633 51 q 600 110 600 83 q 617 152 600 136 q 660 168 633 168 q 703 152 686 168 q 719 110 719 136 m 388 65 q 371 23 388 39 q 328 7 354 7 q 285 23 301 7 q 268 65 268 39 q 285 108 268 92 q 328 124 301 124 q 371 108 354 124 q 388 65 388 92 m 560 46 q 543 3 560 19 q 500 -12 526 -12 q 457 3 474 -12 q 440 46 440 19 q 457 88 440 72 q 500 104 474 104 q 543 88 526 104 q 560 46 560 72 z "},"!":{"ha":588,"x_min":85,"x_max":553,"o":"m 553 1029 l 406 367 l 172 367 l 257 1029 l 553 1029 m 222 -11 q 122 21 158 -11 q 85 104 85 53 q 109 187 85 149 q 176 248 133 225 q 272 271 219 271 q 372 238 335 271 q 408 154 408 206 q 355 37 408 85 q 222 -11 301 -11 z "},"\"":{"ha":626,"x_min":149,"x_max":693,"o":"m 406 1114 l 331 797 l 149 797 l 186 1114 l 406 1114 m 693 1114 l 619 797 l 436 797 l 474 1114 l 693 1114 z "},"#":{"ha":1276,"x_min":-15,"x_max":1325,"o":"m 1063 597 l 1000 439 l 1163 439 l 1118 192 l 904 192 l 829 0 l 575 0 l 650 192 l 439 192 l 364 0 l 110 0 l 185 192 l -15 192 l 29 439 l 281 439 l 343 597 l 149 597 l 192 844 l 439 844 l 511 1028 l 765 1028 l 693 844 l 904 844 l 976 1028 l 1231 1028 l 1158 844 l 1325 844 l 1282 597 l 1063 597 m 808 597 l 597 597 l 535 439 l 746 439 l 808 597 z "},"$":{"ha":918,"x_min":33,"x_max":894,"o":"m 597 690 q 560 775 603 754 l 529 599 l 561 589 q 704 537 649 563 q 800 463 760 511 q 840 340 840 415 q 835 286 840 313 q 767 141 821 207 q 624 35 714 75 q 422 -10 535 -6 l 403 -121 l 315 -121 l 335 -7 q 115 74 196 6 q 33 260 33 143 q 36 301 33 274 l 328 301 q 374 208 322 231 l 404 386 q 247 438 303 415 q 145 511 190 461 q 100 643 100 561 q 106 700 100 672 q 243 907 129 829 q 511 993 357 985 l 531 1106 l 618 1106 l 599 993 q 817 915 739 982 q 894 731 894 849 q 892 690 894 718 l 597 690 m 399 713 q 397 699 397 708 q 447 632 397 660 l 474 783 q 399 713 407 772 m 544 279 q 546 292 546 283 q 488 358 546 333 l 460 201 q 516 228 493 208 q 544 279 539 249 z "},"%":{"ha":1188,"x_min":92,"x_max":1129,"o":"m 97 754 q 197 933 118 871 q 382 996 275 996 q 530 949 475 996 q 585 813 585 901 q 579 754 585 782 q 481 575 558 638 q 297 513 404 513 q 148 560 204 513 q 92 699 92 608 q 97 754 92 715 m 1092 982 l 392 0 l 131 0 l 831 982 l 1092 982 m 353 838 q 281 754 297 838 q 278 725 278 732 q 322 672 278 672 q 371 693 351 672 q 397 754 390 714 q 400 785 400 765 q 353 838 400 838 m 643 229 q 742 408 664 346 q 926 471 819 471 q 1074 424 1019 471 q 1129 286 1129 376 q 1124 229 1129 268 q 1026 49 1103 113 q 842 -14 949 -14 q 693 34 749 -14 q 638 174 638 82 q 643 229 638 190 m 897 311 q 825 229 839 311 q 822 199 822 218 q 868 146 822 146 q 942 229 925 146 q 944 257 944 249 q 932 297 944 283 q 897 311 919 311 z "},"&":{"ha":1142,"x_min":14,"x_max":1065,"o":"m 1013 429 q 867 228 944 317 l 1061 0 l 753 0 l 688 75 q 357 -15 539 -15 q 106 53 199 -15 q 14 236 14 121 q 83 426 14 342 q 267 564 151 511 q 225 692 225 628 q 272 847 225 779 q 402 951 319 914 q 589 988 485 988 q 796 928 724 988 q 868 778 868 869 q 864 736 868 760 l 611 736 q 613 750 613 742 q 597 786 613 774 q 558 799 582 799 q 505 778 526 799 q 483 726 483 758 q 532 621 483 679 l 724 397 q 761 457 736 415 l 796 507 l 1065 507 l 1013 429 m 414 203 q 549 233 483 203 l 388 418 q 319 360 343 393 q 294 290 294 326 q 326 227 294 251 q 414 203 357 203 z "},"'":{"ha":338,"x_min":149,"x_max":406,"o":"m 406 1114 l 331 797 l 149 797 l 186 1114 l 406 1114 z "},"(":{"ha":653,"x_min":92,"x_max":810,"o":"m 263 -304 q 135 -69 179 -210 q 92 239 92 71 q 147 619 92 426 q 303 978 201 811 q 543 1256 406 1144 l 810 1256 l 804 1231 q 569 958 671 1114 q 413 627 468 803 q 357 276 357 451 q 402 -27 357 117 q 532 -279 447 -171 l 528 -304 l 263 -304 z "},")":{"ha":653,"x_min":-119,"x_max":590,"o":"m -119 -304 l -115 -279 q 206 154 86 -100 q 325 668 325 408 q 279 976 325 831 q 144 1231 233 1121 l 149 1256 l 414 1256 q 545 1019 500 1161 q 590 707 590 876 q 536 329 590 521 q 381 -28 482 138 q 146 -304 281 -194 l -119 -304 z "},"*":{"ha":761,"x_min":167,"x_max":735,"o":"m 676 975 l 735 821 l 563 765 l 717 713 l 594 551 l 486 672 l 493 500 l 315 500 l 381 672 l 232 549 l 167 714 l 338 769 l 188 819 l 300 974 l 415 857 l 406 1031 l 588 1031 l 518 857 l 676 975 z "},"+":{"ha":818,"x_min":47,"x_max":800,"o":"m 757 354 l 532 354 l 492 125 l 231 125 l 271 354 l 47 354 l 92 603 l 315 603 l 356 833 l 617 833 l 576 603 l 800 603 l 757 354 z "},",":{"ha":443,"x_min":-37,"x_max":364,"o":"m 364 242 l 142 -171 l -37 -171 l 90 242 l 364 242 z "},"-":{"ha":803,"x_min":44,"x_max":714,"o":"m 714 594 l 674 368 l 44 368 l 85 594 l 714 594 z "},".":{"ha":418,"x_min":0,"x_max":324,"o":"m 138 -11 q 37 21 74 -11 q 0 104 0 53 q 24 187 0 149 q 92 248 49 225 q 188 271 135 271 q 287 238 250 271 q 324 154 324 206 q 270 37 324 85 q 138 -11 217 -11 z "},"/":{"ha":592,"x_min":-136,"x_max":779,"o":"m 779 1322 l 128 -268 l -136 -268 l 517 1322 l 779 1322 z "},":":{"ha":419,"x_min":0,"x_max":324,"o":"m 138 -11 q 37 21 74 -11 q 0 104 0 53 q 24 187 0 149 q 92 248 49 225 q 188 271 135 271 q 287 238 250 271 q 324 154 324 206 q 270 37 324 85 q 138 -11 217 -11 m 138 547 q 37 579 74 547 q 0 663 0 611 q 24 745 0 707 q 92 806 49 783 q 188 829 135 829 q 287 797 250 829 q 324 713 324 764 q 270 595 324 643 q 138 547 217 547 z "},";":{"ha":508,"x_min":-36,"x_max":450,"o":"m 264 531 q 163 563 200 531 q 126 646 126 594 q 151 728 126 690 q 218 790 175 767 q 314 813 261 813 q 413 780 376 813 q 450 696 450 747 q 397 578 450 626 q 264 531 343 531 m 365 242 l 143 -171 l -36 -171 l 92 242 l 365 242 z "},"<":{"ha":728,"x_min":68,"x_max":729,"o":"m 281 176 l 68 479 l 388 783 l 729 783 l 408 479 l 622 176 l 281 176 z "},"=":{"ha":918,"x_min":21,"x_max":926,"o":"m 926 788 l 883 542 l 86 542 l 131 788 l 926 788 m 861 417 l 818 169 l 21 169 l 64 417 l 861 417 z "},">":{"ha":721,"x_min":19,"x_max":681,"o":"m 126 783 l 467 783 l 681 479 l 360 176 l 19 176 l 339 479 l 126 783 z "},"?":{"ha":747,"x_min":69,"x_max":778,"o":"m 490 1051 q 701 991 624 1051 q 778 815 778 931 q 772 751 778 781 q 653 551 750 625 q 418 475 556 478 l 393 374 l 153 374 l 193 650 l 293 650 q 452 676 397 650 q 507 771 507 703 q 490 814 507 799 q 446 829 474 829 q 383 806 407 829 q 351 744 358 782 l 94 744 q 157 900 107 831 q 292 1010 207 969 q 490 1051 376 1051 m 207 -11 q 106 21 143 -11 q 69 104 69 53 q 94 187 69 149 q 161 248 118 225 q 257 271 204 271 q 356 238 319 271 q 393 154 393 206 q 340 37 393 85 q 207 -11 286 -11 z "},"@":{"ha":1518,"x_min":86,"x_max":1414,"o":"m 860 940 q 1152 877 1026 940 q 1346 699 1278 814 q 1414 436 1414 585 q 1372 213 1414 314 q 1246 53 1329 113 q 1047 -7 1163 -7 q 922 22 972 -7 q 850 103 871 50 q 755 19 814 49 q 622 -10 696 -10 q 462 50 519 -10 q 404 217 404 110 q 444 406 404 317 q 556 548 485 494 q 717 601 628 601 q 813 579 774 601 q 869 517 851 557 l 882 593 l 1097 593 l 1040 265 q 1036 225 1036 243 q 1085 169 1036 169 q 1178 246 1146 169 q 1210 428 1210 322 q 1165 604 1210 529 q 1035 719 1119 679 q 836 760 951 760 q 556 685 682 760 q 359 485 431 611 q 288 207 288 358 q 382 -49 288 44 q 644 -142 476 -142 q 897 -93 786 -142 l 942 -265 q 626 -326 800 -326 q 342 -263 464 -326 q 153 -83 219 -200 q 86 188 86 33 q 188 574 86 403 q 466 843 289 746 q 860 940 643 940 m 711 182 q 794 223 758 182 q 831 322 831 264 q 809 387 831 363 q 751 411 788 411 q 669 369 703 411 q 635 267 635 326 q 655 205 635 228 q 711 182 675 182 z "},"A":{"ha":1049,"x_min":-58,"x_max":968,"o":"m 656 160 l 308 160 l 228 0 l -58 0 l 471 979 l 785 979 l 968 0 l 681 0 l 656 160 m 624 367 l 575 685 l 414 367 l 624 367 z "},"B":{"ha":932,"x_min":7,"x_max":931,"o":"m 926 725 q 855 581 911 639 q 721 503 799 524 q 831 435 792 486 q 871 313 871 383 q 867 267 871 290 q 747 71 846 142 q 492 0 649 0 l 7 0 l 181 979 l 650 979 q 857 926 783 979 q 931 774 931 872 q 926 725 931 750 m 639 675 q 640 696 640 682 q 553 763 640 763 l 415 763 l 385 589 l 522 589 q 639 675 624 589 m 596 306 q 597 325 597 313 q 574 378 597 360 q 507 397 551 397 l 350 397 l 319 218 l 478 218 q 596 306 579 218 z "},"C":{"ha":1053,"x_min":51,"x_max":1042,"o":"m 61 492 q 167 749 86 636 q 369 926 247 863 q 636 989 492 989 q 847 944 757 989 q 988 818 938 900 q 1042 625 1038 736 l 749 625 q 690 708 732 679 q 588 738 649 738 q 425 671 493 738 q 338 492 357 604 q 332 429 332 463 q 377 294 332 343 q 501 244 422 244 q 615 274 563 244 q 701 357 667 303 l 996 357 q 786 91 929 189 q 460 -7 643 -7 q 241 42 333 -7 q 100 179 149 90 q 51 385 51 268 q 61 492 51 439 z "},"D":{"ha":1021,"x_min":7,"x_max":1003,"o":"m 568 979 q 801 931 703 979 q 951 796 900 883 q 1003 592 1003 708 q 993 490 1003 539 q 885 238 968 349 q 676 63 803 126 q 394 0 549 0 l 7 0 l 181 979 l 568 979 m 417 239 q 615 305 536 239 q 717 490 694 371 q 722 550 722 518 q 665 693 722 643 q 506 743 608 743 l 413 743 l 322 239 l 417 239 z "},"E":{"ha":761,"x_min":7,"x_max":807,"o":"m 415 764 l 388 601 l 700 601 l 663 394 l 350 394 l 318 217 l 672 217 l 635 0 l 7 0 l 181 979 l 807 979 l 769 764 l 415 764 z "},"F":{"ha":779,"x_min":7,"x_max":844,"o":"m 844 979 l 807 763 l 415 763 l 385 590 l 672 590 l 636 383 l 349 383 l 281 0 l 7 0 l 181 979 l 844 979 z "},"G":{"ha":1051,"x_min":51,"x_max":1042,"o":"m 61 492 q 168 749 86 636 q 374 926 250 863 q 644 989 497 989 q 934 900 829 989 q 1042 657 1039 811 l 749 657 q 696 717 733 696 q 601 738 658 738 q 428 671 500 738 q 338 492 357 604 q 331 422 331 450 q 383 281 331 329 q 539 233 436 233 q 767 363 682 233 l 493 363 l 528 558 l 1036 558 l 989 294 q 782 82 917 171 q 471 -7 647 -7 q 246 42 340 -7 q 101 181 151 92 q 51 386 51 269 q 61 492 51 442 z "},"H":{"ha":1032,"x_min":7,"x_max":1057,"o":"m 1057 979 l 885 0 l 611 0 l 681 393 l 350 393 l 281 0 l 7 0 l 181 979 l 453 979 l 388 610 l 719 610 l 785 979 l 1057 979 z "},"I":{"ha":428,"x_min":7,"x_max":453,"o":"m 453 979 l 281 0 l 7 0 l 181 979 l 453 979 z "},"J":{"ha":811,"x_min":8,"x_max":829,"o":"m 829 979 l 715 331 q 581 78 686 165 q 319 -10 476 -10 q 92 61 175 -10 q 8 267 8 132 q 17 351 8 306 l 288 351 q 283 310 283 329 q 351 236 283 236 q 443 331 424 236 l 557 979 l 829 979 z "},"K":{"ha":1008,"x_min":7,"x_max":1071,"o":"m 628 503 l 917 0 l 588 0 l 356 431 l 281 0 l 7 0 l 181 979 l 453 979 l 378 556 l 757 979 l 1071 979 l 628 503 z "},"L":{"ha":682,"x_min":7,"x_max":622,"o":"m 318 207 l 622 207 l 585 0 l 7 0 l 181 979 l 453 979 l 318 207 z "},"M":{"ha":1299,"x_min":7,"x_max":1324,"o":"m 1324 979 l 1150 0 l 879 0 l 975 542 l 693 0 l 465 0 l 376 544 l 281 0 l 7 0 l 181 979 l 510 979 l 644 344 l 996 979 l 1324 979 z "},"N":{"ha":1063,"x_min":7,"x_max":1088,"o":"m 915 0 l 642 0 l 378 547 l 281 0 l 7 0 l 181 979 l 453 979 l 718 425 l 815 979 l 1088 979 l 915 0 z "},"O":{"ha":1093,"x_min":65,"x_max":1063,"o":"m 481 -10 q 263 42 357 -10 q 117 186 168 93 q 65 400 65 279 q 138 709 65 574 q 342 919 211 844 q 643 994 474 994 q 865 944 769 994 q 1011 801 960 893 q 1063 588 1063 708 q 989 279 1063 415 q 783 67 915 143 q 481 -10 651 -10 m 522 243 q 666 286 604 243 q 760 401 728 329 q 793 556 793 472 q 745 694 793 644 q 608 743 697 743 q 464 701 526 743 q 368 588 401 658 q 335 432 335 517 q 383 294 335 344 q 522 243 432 243 z "},"P":{"ha":883,"x_min":7,"x_max":903,"o":"m 896 653 q 827 491 881 564 q 683 374 774 418 q 474 331 593 331 l 339 331 l 281 0 l 7 0 l 181 979 l 588 979 q 822 909 742 979 q 903 721 903 839 q 896 653 903 692 m 486 546 q 619 653 601 546 q 622 681 622 672 q 598 740 622 718 q 524 761 574 761 l 415 761 l 378 546 l 486 546 z "},"Q":{"ha":1094,"x_min":65,"x_max":1063,"o":"m 1063 588 q 999 298 1063 426 q 821 90 936 169 l 975 -164 l 650 -164 l 572 -4 q 481 -10 533 -10 q 263 42 357 -10 q 117 186 168 93 q 65 400 65 279 q 138 709 65 574 q 342 919 211 844 q 643 994 474 994 q 865 944 769 994 q 1011 801 960 893 q 1063 588 1063 708 m 335 432 q 383 294 335 344 q 522 243 432 243 q 666 286 604 243 q 760 401 728 329 q 793 556 793 472 q 745 694 793 644 q 608 743 697 743 q 464 701 526 743 q 368 588 401 658 q 335 432 335 517 z "},"R":{"ha":918,"x_min":7,"x_max":925,"o":"m 610 979 q 844 910 764 979 q 925 728 925 842 q 919 665 925 693 q 835 490 903 565 q 654 382 767 414 l 807 0 l 504 0 l 374 361 l 344 361 l 281 0 l 7 0 l 181 979 l 610 979 m 378 547 l 513 547 q 640 650 621 547 q 643 674 643 667 q 619 732 643 711 q 547 753 594 753 l 413 753 l 378 547 z "},"S":{"ha":878,"x_min":36,"x_max":850,"o":"m 413 -10 q 140 60 243 -10 q 36 265 36 131 q 39 304 36 276 l 326 304 q 346 231 322 257 q 418 204 369 204 q 483 222 458 204 q 507 274 507 240 q 472 338 507 313 q 357 396 436 363 q 226 459 278 429 q 138 541 175 489 q 100 671 100 593 q 150 845 100 772 q 290 956 200 918 q 494 994 379 994 q 679 962 599 994 q 805 868 760 929 q 850 724 850 807 q 849 690 850 701 l 556 690 q 557 710 557 697 q 536 762 557 743 q 479 781 515 781 q 419 762 442 781 q 396 710 396 743 q 431 648 396 674 q 542 588 467 622 q 674 517 622 550 q 764 431 726 485 q 801 297 801 376 q 754 140 801 210 q 619 30 707 69 q 413 -10 532 -10 z "},"T":{"ha":839,"x_min":88,"x_max":918,"o":"m 918 979 l 879 763 l 619 763 l 485 0 l 211 0 l 346 763 l 88 763 l 126 979 l 918 979 z "},"U":{"ha":989,"x_min":67,"x_max":1019,"o":"m 447 979 l 349 411 q 344 364 344 386 q 374 278 344 308 q 467 247 404 247 q 588 290 542 247 q 647 411 633 333 l 747 979 l 1019 979 l 919 411 q 824 178 896 272 q 647 37 751 83 q 419 -10 543 -10 q 163 74 260 -10 q 67 313 67 157 q 76 411 67 363 l 176 979 l 447 979 z "},"V":{"ha":1038,"x_min":110,"x_max":1133,"o":"m 400 979 l 497 274 l 843 979 l 1133 979 l 622 0 l 275 0 l 110 979 l 400 979 z "},"W":{"ha":1494,"x_min":140,"x_max":1560,"o":"m 1560 979 l 1147 0 l 813 0 l 783 601 l 539 0 l 204 0 l 140 979 l 435 979 l 432 310 l 703 979 l 1001 979 l 1033 313 l 1265 979 l 1560 979 z "},"X":{"ha":1026,"x_min":-43,"x_max":1093,"o":"m 693 485 l 940 0 l 619 0 l 479 276 l 267 0 l -43 0 l 364 501 l 119 979 l 440 979 l 578 710 l 783 979 l 1093 979 l 693 485 z "},"Y":{"ha":974,"x_min":108,"x_max":1071,"o":"m 1071 979 l 608 311 l 553 0 l 281 0 l 335 311 l 108 979 l 419 979 l 525 600 l 764 979 l 1071 979 z "},"Z":{"ha":851,"x_min":0,"x_max":885,"o":"m 343 221 l 750 221 l 713 0 l 0 0 l 36 207 l 536 760 l 133 760 l 172 979 l 885 979 l 849 772 l 343 221 z "},"[":{"ha":725,"x_min":26,"x_max":775,"o":"m 775 1260 l 736 1039 l 519 1039 l 321 -81 l 539 -81 l 500 -301 l 26 -301 l 301 1260 l 775 1260 z "},"\\":{"ha":803,"x_min":264,"x_max":585,"o":"m 324 -268 l 264 1322 l 526 1322 l 585 -268 l 324 -268 z "},"]":{"ha":724,"x_min":-21,"x_max":728,"o":"m 453 -304 l -21 -304 l 18 -83 l 235 -83 l 433 1036 l 215 1036 l 254 1256 l 728 1256 l 453 -304 z "},"^":{"ha":1018,"x_min":8,"x_max":951,"o":"m 281 226 l 8 226 l 481 982 l 747 982 l 951 226 l 679 226 l 560 671 l 281 226 z "},"_":{"ha":1072,"x_min":-33,"x_max":913,"o":"m 913 -58 l 867 -322 l -33 -322 l 14 -58 l 913 -58 z "},"`":{"ha":426,"x_min":115,"x_max":471,"o":"m 471 1017 l 438 832 l 115 968 l 151 1174 l 471 1017 z "},"a":{"ha":944,"x_min":24,"x_max":933,"o":"m 32 390 q 114 601 54 511 q 258 740 174 692 q 435 789 342 789 q 568 757 515 789 q 642 671 621 725 l 661 779 l 933 779 l 796 0 l 524 0 l 543 108 q 438 22 503 54 q 293 -10 372 -10 q 97 72 171 -10 q 24 293 24 153 q 32 390 24 339 m 593 390 q 597 429 597 411 q 565 519 597 488 q 481 551 532 551 q 371 509 419 551 q 310 390 322 467 q 306 350 306 369 q 338 260 306 292 q 422 228 371 228 q 532 271 483 228 q 593 390 581 314 z "},"b":{"ha":944,"x_min":7,"x_max":918,"o":"m 399 671 q 503 757 439 725 q 647 789 568 789 q 844 708 769 789 q 918 488 918 628 q 910 390 918 443 q 828 178 888 269 q 684 39 768 88 q 507 -10 600 -10 q 374 22 426 -10 q 300 108 322 53 l 281 0 l 7 0 l 189 1028 l 463 1028 l 399 671 m 632 390 q 636 431 636 411 q 603 519 636 488 q 519 551 571 551 q 410 508 460 551 q 349 390 361 465 q 344 351 344 369 q 377 260 344 293 q 461 228 410 228 q 571 272 522 228 q 632 390 619 315 z "},"c":{"ha":843,"x_min":24,"x_max":825,"o":"m 32 390 q 120 602 54 513 q 284 740 186 692 q 497 789 382 789 q 733 708 646 789 q 825 481 821 626 l 535 481 q 450 557 524 557 q 361 515 399 557 q 310 390 324 472 q 304 335 304 363 q 328 251 304 279 q 392 222 351 222 q 501 299 467 222 l 792 299 q 622 72 738 154 q 356 -10 506 -10 q 113 74 203 -10 q 24 303 24 157 q 32 390 24 344 z "},"d":{"ha":944,"x_min":24,"x_max":978,"o":"m 32 390 q 114 601 54 511 q 258 740 174 692 q 436 789 343 789 q 565 758 511 789 q 642 672 618 726 l 704 1028 l 978 1028 l 796 0 l 522 0 l 543 108 q 438 22 501 54 q 294 -10 374 -10 q 98 72 172 -10 q 24 293 24 153 q 32 390 24 339 m 593 390 q 597 429 597 411 q 565 519 597 488 q 481 551 532 551 q 371 509 419 551 q 310 390 322 467 q 306 350 306 369 q 338 260 306 292 q 422 228 371 228 q 532 271 483 228 q 593 390 581 314 z "},"e":{"ha":856,"x_min":24,"x_max":831,"o":"m 499 789 q 741 707 651 789 q 831 483 831 625 q 824 400 831 436 q 807 336 815 356 l 292 336 q 290 311 290 328 q 316 233 290 258 q 385 208 342 208 q 493 269 453 208 l 782 269 q 687 126 750 189 q 538 26 624 63 q 357 -10 453 -10 q 114 74 204 -10 q 24 303 24 157 q 32 390 24 344 q 120 602 54 513 q 284 740 186 692 q 499 789 382 789 m 556 458 q 558 483 558 478 q 531 551 558 528 q 458 574 503 574 q 369 544 407 574 q 314 458 332 515 l 556 458 z "},"f":{"ha":518,"x_min":33,"x_max":618,"o":"m 578 863 q 549 864 567 864 q 479 844 503 864 q 444 779 456 824 l 567 779 l 526 553 l 404 553 l 307 0 l 33 0 l 131 553 l 46 553 l 86 779 l 171 779 l 172 786 q 301 1016 200 936 q 567 1096 403 1096 q 618 1094 600 1096 l 578 863 z "},"g":{"ha":944,"x_min":-24,"x_max":933,"o":"m 435 789 q 567 757 514 789 q 642 671 621 725 l 661 779 l 933 779 l 797 8 q 721 -190 778 -101 q 567 -331 664 -278 q 335 -383 469 -383 q 70 -306 164 -383 q -24 -96 -24 -229 l -22 -68 l 246 -68 q 278 -126 249 -106 q 360 -147 308 -147 q 525 8 499 -147 l 543 108 q 438 22 503 54 q 294 -10 374 -10 q 98 72 172 -10 q 24 293 24 153 q 32 390 24 339 q 114 601 54 511 q 258 740 174 692 q 435 789 342 789 m 593 390 q 597 429 597 411 q 565 519 597 488 q 481 551 532 551 q 371 509 419 551 q 310 390 322 467 q 306 350 306 369 q 338 260 306 292 q 422 228 371 228 q 532 271 483 228 q 593 390 581 314 z "},"h":{"ha":953,"x_min":7,"x_max":900,"o":"m 658 786 q 836 721 772 786 q 900 539 900 656 q 892 454 900 499 l 811 0 l 539 0 l 613 418 q 617 456 617 439 q 588 533 617 506 q 508 561 560 561 q 411 526 451 561 q 357 431 371 492 l 281 0 l 7 0 l 189 1028 l 463 1028 l 399 668 q 511 753 444 721 q 658 786 578 786 z "},"i":{"ha":428,"x_min":7,"x_max":482,"o":"m 296 851 q 195 883 232 851 q 158 965 158 915 q 183 1048 158 1010 q 249 1109 207 1086 q 344 1132 292 1132 q 445 1099 408 1132 q 482 1015 482 1067 q 458 933 482 971 q 390 874 433 896 q 296 851 347 851 m 418 779 l 281 0 l 7 0 l 146 779 l 418 779 z "},"j":{"ha":426,"x_min":-181,"x_max":479,"o":"m 294 851 q 193 883 231 851 q 156 967 156 915 q 180 1049 156 1011 q 247 1110 204 1088 q 343 1132 290 1132 q 442 1099 406 1132 q 479 1015 479 1067 q 455 933 479 971 q 388 874 431 896 q 294 851 346 851 m 267 -76 q -82 -372 217 -372 l -181 -372 l -140 -140 l -82 -140 q -30 -126 -47 -140 q -6 -81 -12 -112 l 146 779 l 418 779 l 267 -76 z "},"k":{"ha":899,"x_min":7,"x_max":960,"o":"m 583 388 l 826 0 l 494 0 l 338 318 l 281 0 l 7 0 l 189 1028 l 463 1028 l 365 475 l 633 779 l 960 779 l 583 388 z "},"l":{"ha":428,"x_min":7,"x_max":463,"o":"m 463 1028 l 281 0 l 7 0 l 189 1028 l 463 1028 z "},"m":{"ha":1482,"x_min":7,"x_max":1428,"o":"m 1164 786 q 1359 719 1290 786 q 1428 535 1428 653 q 1421 454 1428 489 l 1340 0 l 1069 0 l 1143 418 q 1146 449 1146 440 q 1117 524 1146 497 q 1038 550 1089 550 q 942 520 982 550 q 889 436 903 490 l 811 0 l 539 0 l 613 418 q 615 451 615 429 q 587 524 615 499 q 508 550 558 550 q 410 517 450 550 q 356 425 369 485 l 281 0 l 7 0 l 146 779 l 418 779 l 400 678 q 506 757 443 728 q 646 786 569 786 q 792 749 732 786 q 879 643 853 711 q 1007 747 932 707 q 1164 786 1082 786 z "},"n":{"ha":953,"x_min":7,"x_max":900,"o":"m 657 786 q 835 720 771 786 q 900 538 900 654 q 892 454 900 499 l 811 0 l 539 0 l 613 418 q 617 456 617 439 q 588 533 617 506 q 508 561 560 561 q 410 525 450 561 q 356 425 369 489 l 281 0 l 7 0 l 146 779 l 418 779 l 399 668 q 511 753 444 721 q 657 786 578 786 z "},"o":{"ha":883,"x_min":25,"x_max":857,"o":"m 369 -10 q 190 31 268 -10 q 68 144 111 71 q 25 317 25 218 q 88 558 25 450 q 263 728 151 667 q 511 789 374 789 q 691 749 613 789 q 813 634 769 708 q 857 461 857 560 q 793 219 857 326 q 618 51 729 111 q 369 -10 507 -10 m 411 225 q 498 256 460 225 q 556 335 536 286 q 576 435 576 383 q 547 524 576 493 q 469 554 517 554 q 383 524 419 554 q 326 444 346 493 q 306 343 306 396 q 335 255 306 285 q 411 225 364 225 z "},"p":{"ha":944,"x_min":-57,"x_max":918,"o":"m 399 671 q 504 757 440 725 q 647 789 568 789 q 844 708 769 789 q 918 488 918 628 q 910 390 918 443 q 828 178 888 269 q 684 39 768 88 q 507 -10 600 -10 q 376 22 428 -10 q 300 108 324 54 l 215 -372 l -57 -372 l 146 779 l 418 779 l 399 671 m 632 390 q 636 431 636 411 q 603 519 636 488 q 519 551 571 551 q 410 508 460 551 q 349 390 361 465 q 344 351 344 369 q 377 260 344 293 q 461 228 410 228 q 571 272 522 228 q 632 390 619 315 z "},"q":{"ha":944,"x_min":24,"x_max":933,"o":"m 32 386 q 116 592 53 501 q 268 735 179 683 q 451 786 357 786 q 647 700 589 786 l 661 779 l 933 779 l 731 -372 l 458 -372 l 540 92 q 310 -10 436 -10 q 163 29 228 -10 q 60 138 97 68 q 24 301 24 208 q 32 386 24 343 m 593 390 q 597 429 597 411 q 563 519 597 489 q 481 550 528 550 q 374 508 425 550 q 308 386 322 465 q 306 349 306 372 q 340 258 306 288 q 422 228 375 228 q 528 269 478 228 q 593 390 579 311 z "},"r":{"ha":621,"x_min":7,"x_max":669,"o":"m 393 638 q 522 746 450 706 q 669 786 594 786 l 619 496 l 543 496 q 408 464 457 496 q 343 353 360 432 l 281 0 l 7 0 l 146 779 l 418 779 l 393 638 z "},"s":{"ha":789,"x_min":11,"x_max":732,"o":"m 347 -10 q 174 19 250 -10 q 54 102 97 49 q 11 225 11 156 q 14 263 11 238 l 276 263 q 300 203 275 224 q 369 182 325 182 q 427 196 404 182 q 450 232 450 210 q 421 273 450 258 q 324 310 392 288 q 193 358 244 335 q 103 428 142 382 q 65 546 65 474 q 106 671 65 615 q 222 758 147 726 q 396 789 297 789 q 578 753 501 789 q 694 656 656 718 q 728 517 732 593 l 483 517 q 461 576 485 554 q 393 597 438 597 q 340 583 361 597 q 319 547 319 569 q 349 506 319 521 q 450 467 379 490 q 580 417 528 442 q 669 349 632 393 q 707 238 707 306 q 607 56 707 122 q 347 -10 507 -10 z "},"t":{"ha":585,"x_min":53,"x_max":603,"o":"m 375 292 q 374 275 374 285 q 387 242 374 253 q 431 232 400 232 l 510 232 l 468 0 l 349 0 q 94 214 94 0 q 103 296 94 250 l 149 553 l 53 553 l 93 779 l 189 779 l 222 968 l 496 968 l 463 779 l 603 779 l 563 553 l 422 553 l 375 292 z "},"u":{"ha":953,"x_min":51,"x_max":943,"o":"m 943 779 l 804 0 l 532 0 l 551 111 q 440 26 506 58 q 294 -7 374 -7 q 115 58 179 -7 q 51 240 51 124 q 60 326 51 281 l 139 779 l 411 779 l 338 361 q 333 325 333 343 q 363 247 333 275 q 442 218 392 218 q 540 254 500 218 q 594 354 581 290 l 669 779 l 943 779 z "},"v":{"ha":901,"x_min":81,"x_max":956,"o":"m 426 257 l 665 779 l 956 779 l 550 0 l 211 0 l 81 779 l 371 779 l 426 257 z "},"w":{"ha":1229,"x_min":69,"x_max":1296,"o":"m 1296 779 l 960 0 l 656 0 l 631 472 l 435 0 l 129 0 l 69 779 l 342 779 l 338 263 l 544 779 l 835 779 l 863 260 l 1042 779 l 1296 779 z "},"x":{"ha":872,"x_min":-56,"x_max":928,"o":"m 592 382 l 799 0 l 493 0 l 388 196 l 242 0 l -56 0 l 274 404 l 71 779 l 376 779 l 482 583 l 629 779 l 928 779 l 592 382 z "},"y":{"ha":910,"x_min":-8,"x_max":983,"o":"m 364 779 l 449 338 l 685 779 l 983 779 l 288 -371 l -8 -371 l 249 33 l 61 779 l 364 779 z "},"z":{"ha":704,"x_min":-35,"x_max":725,"o":"m 307 226 l 639 226 l 599 0 l -35 0 l 4 215 l 374 553 l 67 553 l 107 779 l 725 779 l 688 564 l 307 226 z "},"{":{"ha":683,"x_min":101,"x_max":749,"o":"m 140 586 q 244 611 210 588 q 286 682 279 635 q 294 763 292 714 q 297 826 296 813 q 308 988 300 940 q 422 1186 331 1115 q 646 1257 513 1257 l 749 1257 l 710 1036 l 660 1036 q 592 1017 615 1036 q 563 958 569 997 q 551 836 557 925 q 536 672 546 728 q 476 542 522 593 q 353 476 431 490 l 353 474 q 442 426 413 461 q 472 339 472 392 q 424 115 472 281 q 405 44 419 99 q 390 -32 390 -10 q 463 -86 390 -86 l 513 -86 l 474 -307 l 371 -307 q 188 -253 254 -307 q 122 -97 122 -199 q 137 3 122 -54 q 179 144 151 60 q 204 230 193 189 q 215 289 215 271 q 101 365 215 364 l 140 586 z "},"|":{"ha":385,"x_min":-47,"x_max":460,"o":"m 225 -190 l -47 -190 l 188 1142 l 460 1142 l 225 -190 z "},"}":{"ha":683,"x_min":-36,"x_max":613,"o":"m 574 365 q 426 267 442 361 q 417 135 419 229 q 404 -37 414 17 q 291 -236 382 -165 q 67 -307 200 -307 l -36 -307 l 3 -86 l 54 -86 q 150 -10 138 -86 q 161 119 156 24 q 166 189 163 136 q 176 278 169 242 q 236 408 190 357 q 360 474 282 460 l 360 476 q 242 622 242 500 q 246 672 242 646 q 288 835 256 729 q 312 922 301 881 q 322 981 322 963 q 306 1022 322 1008 q 251 1036 289 1036 l 201 1036 l 239 1257 l 342 1257 q 525 1202 458 1257 q 592 1046 592 1147 q 586 988 592 1029 q 539 819 576 935 q 500 682 507 724 q 497 660 497 665 q 525 606 497 624 q 613 586 553 588 l 574 365 z "},"~":{"ha":936,"x_min":11,"x_max":940,"o":"m 11 269 q 161 522 68 440 q 371 604 254 604 q 453 590 418 604 q 533 550 488 576 q 590 522 568 531 q 635 513 611 513 q 697 535 672 513 q 736 606 721 557 l 940 606 q 790 353 883 435 q 579 272 696 272 q 497 286 532 272 q 417 325 461 300 q 362 354 385 344 q 314 364 339 364 q 253 342 278 364 q 211 269 229 319 l 11 269 z "}," ":{"ha":279,"x_min":0,"x_max":0,"o":""},"¡":{"ha":601,"x_min":42,"x_max":510,"o":"m 372 797 q 473 765 436 797 q 510 682 510 733 q 485 599 510 638 q 418 538 461 561 q 322 515 375 515 q 223 548 260 515 q 186 632 186 581 q 240 749 186 701 q 372 797 293 797 m 42 -243 l 189 419 l 422 419 l 338 -243 l 42 -243 z "},"¢":{"ha":840,"x_min":29,"x_max":788,"o":"m 446 497 q 347 459 386 497 q 296 353 307 421 q 292 314 292 332 q 318 238 292 265 q 394 211 344 211 q 462 228 431 211 q 507 275 493 244 l 757 275 q 626 78 726 153 q 396 -8 526 3 l 378 -117 l 290 -117 l 308 -8 q 102 76 175 3 q 29 272 29 150 q 36 354 29 318 q 170 608 64 513 q 436 715 276 703 l 456 824 l 543 824 l 524 715 q 715 640 642 706 q 788 465 788 575 q 786 433 788 444 l 535 433 q 506 481 529 465 q 446 497 482 497 z "},"£":{"ha":932,"x_min":15,"x_max":893,"o":"m 640 731 q 561 832 650 832 q 447 717 468 832 q 444 674 444 703 q 453 572 444 644 l 694 572 l 663 390 l 451 390 q 408 291 438 340 q 328 206 378 242 l 801 206 l 764 -7 l 26 -7 l 15 124 q 132 239 90 178 q 194 390 174 300 l 46 390 l 78 572 l 188 572 q 185 642 185 614 q 193 746 185 701 q 328 972 218 890 q 592 1054 438 1054 q 818 981 743 1054 q 893 783 893 907 q 890 731 893 749 l 640 731 z "},"¤":{"ha":819,"x_min":67,"x_max":800,"o":"m 714 678 q 743 571 743 628 q 739 526 743 550 q 661 374 722 438 l 719 303 l 601 200 l 525 290 q 389 269 463 269 q 260 292 318 269 l 151 200 l 67 303 l 154 378 q 129 478 129 422 q 133 526 129 501 q 208 676 147 614 l 147 751 l 267 854 l 346 758 q 479 778 408 778 q 603 760 546 778 l 715 854 l 800 751 l 714 678 m 343 524 q 340 499 340 507 q 362 444 340 463 q 418 426 383 426 q 488 451 457 426 q 528 524 519 475 q 531 549 531 540 q 508 605 531 586 q 453 624 486 624 q 382 599 413 624 q 343 524 351 574 z "},"¥":{"ha":974,"x_min":33,"x_max":1071,"o":"m 815 610 l 938 610 l 907 429 l 690 429 l 643 361 l 893 361 l 863 182 l 585 182 l 553 0 l 281 0 l 313 182 l 33 182 l 65 361 l 318 361 l 294 429 l 78 429 l 110 610 l 233 610 l 108 979 l 419 979 l 518 565 l 764 979 l 1071 979 l 815 610 z "},"¦":{"ha":565,"x_min":43,"x_max":550,"o":"m 278 1142 l 550 1142 l 447 558 l 174 558 l 278 1142 m 315 -190 l 43 -190 l 146 394 l 419 394 l 315 -190 z "},"§":{"ha":821,"x_min":3,"x_max":799,"o":"m 526 719 q 528 747 528 729 q 483 806 528 806 q 446 792 461 806 q 425 754 431 779 q 424 740 424 750 q 462 678 424 707 q 607 594 500 649 q 735 496 690 550 q 779 375 779 442 q 776 339 779 351 q 723 222 764 272 q 600 135 682 172 q 658 -17 658 68 q 654 -61 658 -39 q 592 -194 640 -136 q 463 -286 543 -253 q 278 -319 382 -319 q 74 -255 146 -319 q 3 -81 3 -190 q 6 -42 3 -69 l 275 -42 q 274 -71 274 -53 q 317 -128 274 -128 q 376 -76 367 -128 l 378 -64 q 340 -1 378 -31 q 194 85 303 28 q 22 303 22 171 q 25 339 22 314 q 201 543 53 486 q 143 694 143 610 q 147 739 143 717 q 210 872 161 814 q 339 964 258 931 q 524 997 419 997 q 727 933 656 997 q 799 758 799 868 q 796 719 799 747 l 526 719 m 490 361 q 472 412 490 392 q 419 432 453 432 q 344 399 374 432 q 314 319 314 367 q 333 267 314 288 q 385 246 351 246 q 460 280 429 246 q 490 361 490 314 z "},"¨":{"ha":544,"x_min":114,"x_max":635,"o":"m 207 861 q 140 886 165 861 q 114 950 114 911 q 153 1044 114 1006 q 246 1083 193 1083 q 314 1058 289 1083 q 339 992 339 1033 q 299 899 339 938 q 207 861 260 861 m 501 861 q 435 886 461 861 q 408 950 408 911 q 448 1044 408 1006 q 540 1083 488 1083 q 609 1058 583 1083 q 635 992 635 1032 q 595 899 635 938 q 501 861 556 861 z "},"©":{"ha":1076,"x_min":54,"x_max":1057,"o":"m 644 994 q 864 946 771 994 q 1007 808 957 897 q 1057 600 1057 718 q 1047 494 1057 547 q 940 234 1022 349 q 734 55 857 119 q 468 -10 611 -10 q 248 40 342 -10 q 104 181 154 90 q 54 390 54 271 q 64 494 54 444 q 172 754 90 640 q 377 931 254 868 q 644 994 500 994 m 631 911 q 408 860 507 911 q 242 715 308 810 q 154 494 176 621 q 146 400 146 444 q 235 163 146 250 q 483 75 324 75 q 705 127 606 75 q 870 274 804 179 q 957 494 936 369 q 965 592 965 547 q 878 826 965 740 q 631 911 790 911 m 614 803 q 445 765 522 803 q 317 656 368 726 q 249 493 265 586 q 242 425 242 454 q 313 248 242 313 q 504 183 383 183 q 708 249 617 183 q 839 422 800 314 l 610 422 q 526 364 581 364 q 476 385 493 364 q 458 449 458 407 q 463 493 458 468 q 503 590 474 557 q 572 622 532 622 q 616 606 600 622 q 635 564 632 590 l 864 564 q 796 738 865 674 q 614 803 726 803 z "},"ª":{"ha":660,"x_min":86,"x_max":728,"o":"m 92 736 q 190 920 113 853 q 365 988 267 988 q 458 967 422 988 q 513 908 493 947 l 525 982 l 728 982 l 642 493 l 439 493 l 451 564 q 378 505 419 525 q 279 485 336 485 q 140 536 193 485 q 86 679 86 588 q 92 736 86 708 m 482 738 q 483 757 483 744 q 462 809 483 790 q 407 828 440 828 q 332 797 364 828 q 300 715 300 767 q 321 665 300 682 q 375 647 342 647 q 444 671 414 647 q 482 738 474 694 z "},"«":{"ha":817,"x_min":65,"x_max":803,"o":"m 133 167 l 65 410 l 219 653 l 469 653 l 311 410 l 383 167 l 133 167 m 467 167 l 399 410 l 553 653 l 803 653 l 644 410 l 717 167 l 467 167 z "},"¬":{"ha":1088,"x_min":39,"x_max":1040,"o":"m 1040 618 l 972 233 l 700 233 l 731 413 l 39 413 l 75 618 l 1040 618 z "},"­":{"ha":803,"x_min":44,"x_max":714,"o":"m 714 594 l 674 368 l 44 368 l 85 594 l 714 594 z "},"®":{"ha":711,"x_min":96,"x_max":722,"o":"m 463 996 q 652 928 582 996 q 722 751 722 861 q 717 692 722 719 q 650 533 701 603 q 522 425 599 464 q 356 386 444 386 q 167 453 238 386 q 96 631 96 521 q 101 692 96 664 q 168 849 117 779 q 297 957 219 918 q 463 996 374 996 m 625 692 q 629 740 629 717 q 581 866 629 819 q 449 913 533 913 q 281 852 350 913 q 193 692 211 792 q 189 644 189 667 q 237 517 189 564 q 371 469 285 469 q 538 531 468 469 q 625 692 608 593 m 467 842 q 534 822 510 842 q 558 767 558 801 q 540 703 558 731 q 490 661 521 676 l 538 549 l 415 549 l 382 646 l 363 549 l 254 549 l 306 842 l 467 842 m 390 721 l 419 721 q 442 738 438 721 l 442 740 q 425 754 442 754 l 397 754 l 390 721 z "},"¯":{"ha":606,"x_min":97,"x_max":707,"o":"m 707 1051 l 675 868 l 97 868 l 129 1051 l 707 1051 z "},"°":{"ha":667,"x_min":89,"x_max":697,"o":"m 93 738 q 209 922 115 854 q 439 989 303 989 q 628 935 558 989 q 697 786 697 882 q 693 738 697 763 q 579 551 672 621 q 353 482 486 482 q 160 538 232 482 q 89 692 89 594 q 93 738 89 715 m 483 736 q 486 765 486 758 q 465 826 486 806 q 414 846 444 846 q 345 818 378 846 q 303 736 313 790 q 300 710 300 717 q 324 649 300 669 q 379 628 347 628 q 444 655 414 628 q 483 736 474 682 z "},"±":{"ha":819,"x_min":11,"x_max":824,"o":"m 557 486 l 540 389 l 764 389 l 719 143 l 11 143 l 54 389 l 278 389 l 294 486 l 71 486 l 114 733 l 338 733 l 363 872 l 625 872 l 600 733 l 824 733 l 781 486 l 557 486 z "},"²":{"ha":560,"x_min":76,"x_max":606,"o":"m 417 994 q 560 957 514 994 q 606 864 606 919 q 558 764 606 806 q 394 676 510 722 l 319 646 l 558 646 l 531 489 l 76 489 l 104 640 l 300 740 q 386 826 378 781 l 386 832 q 368 850 386 850 q 326 801 338 850 l 124 801 q 222 941 144 888 q 417 994 300 994 z "},"³":{"ha":540,"x_min":65,"x_max":581,"o":"m 101 813 q 186 942 117 890 q 382 994 256 994 q 528 960 475 994 q 581 869 581 926 q 549 785 581 817 q 461 743 518 754 l 460 739 q 529 704 507 726 q 551 647 551 682 q 481 528 551 571 q 296 485 411 485 q 119 524 174 485 q 65 636 65 563 q 67 661 65 653 l 278 661 l 278 653 q 304 625 278 625 q 342 663 333 625 q 303 703 350 703 l 260 703 l 272 779 l 306 779 q 358 821 350 779 q 360 831 360 824 q 335 853 360 853 q 310 843 319 853 q 296 813 301 833 l 101 813 z "},"´":{"ha":375,"x_min":90,"x_max":499,"o":"m 463 968 l 90 832 l 124 1017 l 499 1174 l 463 968 z "},"µ":{"ha":1011,"x_min":-31,"x_max":975,"o":"m 975 779 l 838 0 l 564 0 l 583 111 q 476 25 540 57 q 333 -7 411 -7 q 306 -4 322 -7 l 240 -372 l -31 -372 l 172 779 l 443 779 l 369 363 q 367 332 367 340 q 395 256 367 283 q 475 229 424 229 q 576 265 535 229 q 628 363 618 300 l 628 361 l 701 779 l 975 779 z "},"¶":{"ha":1032,"x_min":79,"x_max":1031,"o":"m 858 0 l 638 0 l 774 774 l 690 774 l 553 0 l 333 0 l 400 374 l 363 374 q 149 441 218 374 q 79 613 79 508 q 85 675 79 647 q 146 825 99 756 q 275 937 193 894 q 469 979 357 979 l 1031 979 l 858 0 z "},"·":{"ha":450,"x_min":17,"x_max":340,"o":"m 154 283 q 53 315 90 283 q 17 399 17 347 q 41 481 17 443 q 108 542 65 519 q 204 565 151 565 q 303 533 267 565 q 340 449 340 500 q 287 331 340 379 q 154 283 233 283 z "},"¸":{"ha":456,"x_min":-122,"x_max":338,"o":"m 183 -44 q 291 -76 244 -44 q 338 -174 338 -108 q 335 -208 338 -196 q 253 -333 319 -293 q 104 -374 186 -374 l -122 -374 l -97 -231 l 99 -231 q 133 -223 119 -231 q 149 -201 147 -215 q 108 -172 154 -172 l 0 -172 l 33 10 l 193 10 l 183 -44 z "},"¹":{"ha":371,"x_min":103,"x_max":421,"o":"m 103 821 l 131 978 l 421 978 l 335 489 l 132 489 l 190 821 l 103 821 z "},"º":{"ha":644,"x_min":88,"x_max":678,"o":"m 92 735 q 150 864 104 807 q 267 953 196 921 q 425 985 339 985 q 610 928 543 985 q 678 779 678 872 q 674 735 678 758 q 615 605 661 663 q 497 515 568 547 q 338 482 425 482 q 155 540 222 482 q 88 690 88 597 q 92 735 88 713 m 465 735 q 468 758 468 751 q 449 812 468 793 q 397 831 429 831 q 334 806 361 831 q 299 735 307 782 q 296 710 296 718 q 315 656 296 675 q 365 638 333 638 q 429 663 401 638 q 465 735 457 688 z "},"»":{"ha":817,"x_min":29,"x_max":767,"o":"m 188 410 l 115 653 l 365 653 l 433 410 l 279 167 l 29 167 l 188 410 m 521 410 l 449 653 l 699 653 l 767 410 l 613 167 l 363 167 l 521 410 z "},"¼":{"ha":1157,"x_min":67,"x_max":1085,"o":"m 1042 979 l 333 0 l 67 0 l 778 979 l 1042 979 m 133 821 l 161 978 l 451 978 l 365 489 l 163 489 l 221 821 l 133 821 m 1065 83 l 1014 83 l 999 0 l 794 0 l 810 83 l 533 83 l 551 189 l 803 488 l 1085 488 l 1033 196 l 1085 196 l 1065 83 m 868 358 l 744 200 l 840 200 l 868 358 z "},"½":{"ha":1214,"x_min":67,"x_max":1206,"o":"m 1050 982 l 333 0 l 67 0 l 785 982 l 1050 982 m 221 821 l 133 821 l 161 978 l 451 978 l 365 489 l 163 489 l 221 821 m 1017 504 q 1160 467 1114 504 q 1206 374 1206 429 q 1158 274 1206 315 q 994 186 1110 232 l 919 156 l 1158 156 l 1131 -1 l 676 -1 l 704 150 l 900 250 q 986 336 978 290 l 986 342 q 968 360 986 360 q 926 311 938 360 l 724 311 q 822 451 744 397 q 1017 504 900 504 z "},"¾":{"ha":1329,"x_min":126,"x_max":1269,"o":"m 163 813 q 247 942 178 890 q 443 994 317 994 q 589 960 536 994 q 642 869 642 926 q 610 785 642 817 q 522 743 579 754 l 521 739 q 590 704 568 726 q 613 647 613 682 q 542 528 613 571 q 357 485 472 485 q 181 524 235 485 q 126 636 126 563 q 128 661 126 653 l 339 661 l 339 653 q 365 625 339 625 q 403 663 394 625 q 364 703 411 703 l 321 703 l 333 779 l 367 779 q 419 821 411 779 q 421 831 421 824 q 396 853 421 853 q 372 843 381 853 q 357 813 363 833 l 163 813 m 1215 982 l 517 0 l 253 0 l 950 982 l 1215 982 m 1251 83 l 1199 83 l 1183 0 l 981 0 l 996 83 l 718 83 l 736 189 l 967 488 l 1269 488 l 1218 196 l 1269 196 l 1251 83 m 1058 381 l 931 196 l 1025 196 l 1058 381 z "},"¿":{"ha":747,"x_min":-33,"x_max":675,"o":"m 538 801 q 638 769 601 801 q 675 686 675 738 q 651 603 675 642 q 583 542 626 565 q 488 519 540 519 q 388 552 425 519 q 351 636 351 585 q 405 753 351 706 q 538 801 458 801 m 254 -261 q 44 -201 121 -261 q -33 -25 -33 -140 q -28 39 -33 10 q 92 239 -6 165 q 326 315 189 313 l 351 417 l 592 417 l 551 140 l 451 140 q 292 114 347 140 q 238 19 238 88 q 254 -24 238 -8 q 299 -39 271 -39 q 362 -15 338 -39 q 393 46 386 8 l 650 46 q 588 -110 638 -40 q 453 -220 538 -179 q 254 -261 368 -261 z "},"À":{"ha":1049,"x_min":-58,"x_max":968,"o":"m 656 160 l 308 160 l 228 0 l -58 0 l 471 979 l 785 979 l 968 0 l 681 0 l 656 160 m 624 367 l 575 685 l 414 367 l 624 367 m 840 1221 l 807 1036 l 485 1172 l 521 1378 l 840 1221 z "},"Á":{"ha":1049,"x_min":-58,"x_max":968,"o":"m 656 160 l 308 160 l 228 0 l -58 0 l 471 979 l 785 979 l 968 0 l 681 0 l 656 160 m 624 367 l 575 685 l 414 367 l 624 367 m 832 1172 l 460 1036 l 493 1221 l 868 1378 l 832 1172 z "},"Â":{"ha":1049,"x_min":-58,"x_max":968,"o":"m 656 160 l 308 160 l 228 0 l -58 0 l 471 979 l 785 979 l 968 0 l 681 0 l 656 160 m 624 367 l 575 685 l 414 367 l 624 367 m 657 1149 l 414 1028 l 444 1210 l 689 1328 l 890 1210 l 858 1028 l 657 1149 z "},"Ã":{"ha":1049,"x_min":-58,"x_max":975,"o":"m 656 160 l 308 160 l 228 0 l -58 0 l 471 979 l 785 979 l 968 0 l 681 0 l 656 160 m 624 367 l 575 685 l 414 367 l 624 367 m 339 1053 q 586 1278 415 1278 q 641 1269 617 1278 q 696 1242 665 1260 q 734 1222 719 1228 q 765 1215 749 1215 q 838 1278 817 1215 l 975 1278 q 728 1054 897 1054 q 674 1063 697 1054 q 617 1090 650 1072 q 578 1110 593 1104 q 547 1117 564 1117 q 475 1053 497 1117 l 339 1053 z "},"Ä":{"ha":1049,"x_min":-58,"x_max":968,"o":"m 656 160 l 308 160 l 228 0 l -58 0 l 471 979 l 785 979 l 968 0 l 681 0 l 656 160 m 624 367 l 575 685 l 414 367 l 624 367 m 496 1065 q 428 1090 454 1065 q 403 1154 403 1115 q 442 1249 403 1210 q 535 1288 482 1288 q 603 1263 578 1288 q 628 1196 628 1238 q 588 1103 628 1142 q 496 1065 549 1065 m 790 1065 q 724 1090 750 1065 q 697 1154 697 1115 q 737 1249 697 1210 q 829 1288 776 1288 q 898 1262 872 1288 q 924 1196 924 1236 q 884 1103 924 1142 q 790 1065 844 1065 z "},"Å":{"ha":1049,"x_min":-58,"x_max":968,"o":"m 656 160 l 308 160 l 228 0 l -58 0 l 471 979 l 785 979 l 968 0 l 681 0 l 656 160 m 624 367 l 575 685 l 414 367 l 624 367 m 492 1207 q 565 1335 506 1288 q 699 1383 624 1383 q 806 1347 764 1383 q 847 1246 847 1310 q 818 1133 847 1182 q 740 1058 789 1085 q 638 1032 692 1032 q 531 1070 572 1032 q 489 1172 489 1108 q 492 1207 489 1182 m 735 1222 q 719 1260 735 1246 q 679 1275 704 1275 q 629 1257 651 1275 q 601 1208 607 1239 q 600 1196 600 1204 q 615 1156 600 1171 q 656 1142 631 1142 q 711 1165 688 1142 q 735 1222 735 1188 z "},"Æ":{"ha":1349,"x_min":-67,"x_max":1393,"o":"m 1013 764 l 985 604 l 1286 604 l 1250 399 l 949 399 l 915 217 l 1258 217 l 1221 0 l 604 0 l 631 150 l 329 150 l 231 0 l -67 0 l 592 979 l 1393 979 l 1356 764 l 1013 764 m 668 356 l 742 772 l 465 356 l 668 356 z "},"Ç":{"ha":1053,"x_min":51,"x_max":1042,"o":"m 501 244 q 615 274 563 244 q 701 357 667 303 l 996 357 q 819 117 938 211 q 549 0 701 22 l 539 -51 q 647 -83 600 -51 q 693 -181 693 -115 q 690 -215 693 -203 q 608 -340 675 -300 q 460 -381 542 -381 l 233 -381 l 258 -237 l 454 -237 q 489 -230 475 -237 q 504 -208 503 -222 q 464 -179 510 -179 l 356 -179 l 388 -3 q 140 122 229 18 q 51 385 51 225 q 61 492 51 439 q 167 749 86 636 q 369 926 247 863 q 636 989 492 989 q 847 944 757 989 q 988 818 938 900 q 1042 625 1038 736 l 749 625 q 690 708 732 679 q 588 738 649 738 q 425 671 493 738 q 338 492 357 604 q 332 429 332 463 q 377 294 332 343 q 501 244 422 244 z "},"È":{"ha":761,"x_min":7,"x_max":807,"o":"m 415 764 l 388 601 l 700 601 l 663 394 l 350 394 l 318 217 l 672 217 l 635 0 l 7 0 l 181 979 l 807 979 l 769 764 l 415 764 m 700 1221 l 667 1036 l 344 1172 l 381 1378 l 700 1221 z "},"É":{"ha":761,"x_min":7,"x_max":807,"o":"m 415 764 l 388 601 l 700 601 l 663 394 l 350 394 l 318 217 l 672 217 l 635 0 l 7 0 l 181 979 l 807 979 l 769 764 l 415 764 m 692 1172 l 319 1036 l 353 1221 l 728 1378 l 692 1172 z "},"Ê":{"ha":761,"x_min":7,"x_max":807,"o":"m 415 764 l 388 601 l 700 601 l 663 394 l 350 394 l 318 217 l 672 217 l 635 0 l 7 0 l 181 979 l 807 979 l 769 764 l 415 764 m 518 1149 l 275 1028 l 306 1210 l 550 1328 l 751 1210 l 719 1028 l 518 1149 z "},"Ë":{"ha":761,"x_min":7,"x_max":807,"o":"m 415 764 l 388 601 l 700 601 l 663 394 l 350 394 l 318 217 l 672 217 l 635 0 l 7 0 l 181 979 l 807 979 l 769 764 l 415 764 m 356 1065 q 288 1090 314 1065 q 263 1154 263 1115 q 302 1249 263 1210 q 394 1288 342 1288 q 463 1263 438 1288 q 488 1196 488 1238 q 448 1103 488 1142 q 356 1065 408 1065 m 650 1065 q 583 1090 610 1065 q 557 1154 557 1115 q 597 1249 557 1210 q 689 1288 636 1288 q 758 1262 732 1288 q 783 1196 783 1236 q 744 1103 783 1142 q 650 1065 704 1065 z "},"Ì":{"ha":428,"x_min":7,"x_max":531,"o":"m 453 979 l 281 0 l 7 0 l 181 979 l 453 979 m 531 1221 l 497 1036 l 175 1172 l 211 1378 l 531 1221 z "},"Í":{"ha":428,"x_min":7,"x_max":558,"o":"m 453 979 l 281 0 l 7 0 l 181 979 l 453 979 m 522 1172 l 150 1036 l 183 1221 l 558 1378 l 522 1172 z "},"Î":{"ha":428,"x_min":7,"x_max":581,"o":"m 453 979 l 281 0 l 7 0 l 181 979 l 453 979 m 347 1149 l 104 1028 l 135 1210 l 379 1328 l 581 1210 l 549 1028 l 347 1149 z "},"Ï":{"ha":428,"x_min":7,"x_max":613,"o":"m 453 979 l 281 0 l 7 0 l 181 979 l 453 979 m 185 1065 q 117 1090 143 1065 q 92 1154 92 1115 q 131 1249 92 1210 q 224 1288 171 1288 q 292 1263 267 1288 q 317 1196 317 1238 q 277 1103 317 1142 q 185 1065 238 1065 m 479 1065 q 413 1090 439 1065 q 386 1154 386 1115 q 426 1249 386 1210 q 518 1288 465 1288 q 587 1262 561 1288 q 613 1196 613 1236 q 573 1103 613 1142 q 479 1065 533 1065 z "},"Ð":{"ha":1025,"x_min":1,"x_max":1006,"o":"m 572 979 q 805 931 707 979 q 954 795 903 883 q 1006 590 1006 707 q 997 490 1006 543 q 890 238 972 349 q 680 63 807 126 q 399 0 553 0 l 11 0 l 79 381 l 1 381 l 40 601 l 118 601 l 185 979 l 572 979 m 719 490 q 725 551 725 519 q 669 693 725 643 q 510 743 613 743 l 417 743 l 392 601 l 588 601 l 549 381 l 351 381 l 326 239 l 419 239 q 619 305 539 239 q 719 490 699 371 z "},"Ñ":{"ha":1063,"x_min":7,"x_max":1088,"o":"m 915 0 l 642 0 l 378 547 l 281 0 l 7 0 l 181 979 l 453 979 l 718 425 l 815 979 l 1088 979 l 915 0 m 346 1053 q 593 1278 422 1278 q 648 1269 624 1278 q 703 1242 672 1260 q 741 1222 726 1228 q 772 1215 756 1215 q 844 1278 824 1215 l 982 1278 q 735 1054 904 1054 q 681 1063 704 1054 q 624 1090 657 1072 q 585 1110 600 1104 q 554 1117 571 1117 q 482 1053 504 1117 l 346 1053 z "},"Ò":{"ha":1093,"x_min":65,"x_max":1063,"o":"m 481 -10 q 263 42 357 -10 q 117 186 168 93 q 65 400 65 279 q 138 709 65 574 q 342 919 211 844 q 643 994 474 994 q 865 944 769 994 q 1011 801 960 893 q 1063 588 1063 708 q 989 279 1063 415 q 783 67 915 143 q 481 -10 651 -10 m 522 243 q 666 286 604 243 q 760 401 728 329 q 793 556 793 472 q 745 694 793 644 q 608 743 697 743 q 464 701 526 743 q 368 588 401 658 q 335 432 335 517 q 383 294 335 344 q 522 243 432 243 m 863 1222 l 829 1038 l 507 1174 l 543 1379 l 863 1222 z "},"Ó":{"ha":1093,"x_min":65,"x_max":1063,"o":"m 481 -10 q 263 42 357 -10 q 117 186 168 93 q 65 400 65 279 q 138 709 65 574 q 342 919 211 844 q 643 994 474 994 q 865 944 769 994 q 1011 801 960 893 q 1063 588 1063 708 q 989 279 1063 415 q 783 67 915 143 q 481 -10 651 -10 m 522 243 q 666 286 604 243 q 760 401 728 329 q 793 556 793 472 q 745 694 793 644 q 608 743 697 743 q 464 701 526 743 q 368 588 401 658 q 335 432 335 517 q 383 294 335 344 q 522 243 432 243 m 854 1174 l 482 1038 l 515 1222 l 890 1379 l 854 1174 z "},"Ô":{"ha":1093,"x_min":65,"x_max":1063,"o":"m 481 -10 q 263 42 357 -10 q 117 186 168 93 q 65 400 65 279 q 138 709 65 574 q 342 919 211 844 q 643 994 474 994 q 865 944 769 994 q 1011 801 960 893 q 1063 588 1063 708 q 989 279 1063 415 q 783 67 915 143 q 481 -10 651 -10 m 522 243 q 666 286 604 243 q 760 401 728 329 q 793 556 793 472 q 745 694 793 644 q 608 743 697 743 q 464 701 526 743 q 368 588 401 658 q 335 432 335 517 q 383 294 335 344 q 522 243 432 243 m 679 1150 l 436 1029 l 467 1211 l 711 1329 l 913 1211 l 881 1029 l 679 1150 z "},"Õ":{"ha":1093,"x_min":65,"x_max":1063,"o":"m 481 -10 q 263 42 357 -10 q 117 186 168 93 q 65 400 65 279 q 138 709 65 574 q 342 919 211 844 q 643 994 474 994 q 865 944 769 994 q 1011 801 960 893 q 1063 588 1063 708 q 989 279 1063 415 q 783 67 915 143 q 481 -10 651 -10 m 522 243 q 666 286 604 243 q 760 401 728 329 q 793 556 793 472 q 745 694 793 644 q 608 743 697 743 q 464 701 526 743 q 368 588 401 658 q 335 432 335 517 q 383 294 335 344 q 522 243 432 243 m 361 1054 q 608 1279 438 1279 q 663 1270 639 1279 q 718 1243 688 1261 q 756 1223 742 1229 q 788 1217 771 1217 q 860 1279 839 1217 l 997 1279 q 750 1056 919 1056 q 696 1065 719 1056 q 639 1092 672 1074 q 601 1112 615 1106 q 569 1118 586 1118 q 497 1054 519 1118 l 361 1054 z "},"Ö":{"ha":1093,"x_min":65,"x_max":1063,"o":"m 481 -10 q 263 42 357 -10 q 117 186 168 93 q 65 400 65 279 q 138 709 65 574 q 342 919 211 844 q 643 994 474 994 q 865 944 769 994 q 1011 801 960 893 q 1063 588 1063 708 q 989 279 1063 415 q 783 67 915 143 q 481 -10 651 -10 m 522 243 q 666 286 604 243 q 760 401 728 329 q 793 556 793 472 q 745 694 793 644 q 608 743 697 743 q 464 701 526 743 q 368 588 401 658 q 335 432 335 517 q 383 294 335 344 q 522 243 432 243 m 517 1067 q 449 1092 475 1067 q 424 1156 424 1117 q 463 1250 424 1211 q 556 1289 503 1289 q 624 1264 599 1289 q 649 1197 649 1239 q 609 1105 649 1143 q 517 1067 569 1067 m 811 1067 q 744 1092 771 1067 q 718 1156 718 1117 q 758 1250 718 1211 q 850 1289 797 1289 q 919 1263 893 1289 q 944 1197 944 1238 q 905 1105 944 1143 q 811 1067 865 1067 z "},"×":{"ha":846,"x_min":46,"x_max":819,"o":"m 614 492 l 768 306 l 557 128 l 404 313 l 190 129 l 46 304 l 260 488 l 115 664 l 325 842 l 469 667 l 672 842 l 819 667 l 614 492 z "},"Ø":{"ha":1093,"x_min":-43,"x_max":1168,"o":"m 996 824 q 1061 588 1061 721 q 988 279 1061 415 q 782 67 914 143 q 479 -10 650 -10 q 200 83 310 -10 l 111 1 l -43 1 l 131 163 q 64 400 64 261 q 137 709 64 574 q 341 919 210 844 q 642 994 472 994 q 928 900 817 994 l 1017 983 l 1168 983 l 996 824 m 333 432 q 343 360 333 390 l 722 711 q 607 743 678 743 q 463 701 525 743 q 367 588 400 658 q 333 432 333 517 m 792 556 q 782 625 792 596 l 406 275 q 521 243 450 243 q 665 286 603 243 q 759 401 726 329 q 792 556 792 472 z "},"Ù":{"ha":989,"x_min":67,"x_max":1019,"o":"m 447 979 l 349 411 q 344 364 344 386 q 374 278 344 308 q 467 247 404 247 q 588 290 542 247 q 647 411 633 333 l 747 979 l 1019 979 l 919 411 q 824 178 896 272 q 647 37 751 83 q 419 -10 543 -10 q 163 74 260 -10 q 67 313 67 157 q 76 411 67 363 l 176 979 l 447 979 m 811 1221 l 778 1036 l 456 1172 l 492 1378 l 811 1221 z "},"Ú":{"ha":989,"x_min":67,"x_max":1019,"o":"m 447 979 l 349 411 q 344 364 344 386 q 374 278 344 308 q 467 247 404 247 q 588 290 542 247 q 647 411 633 333 l 747 979 l 1019 979 l 919 411 q 824 178 896 272 q 647 37 751 83 q 419 -10 543 -10 q 163 74 260 -10 q 67 313 67 157 q 76 411 67 363 l 176 979 l 447 979 m 803 1172 l 431 1036 l 464 1221 l 839 1378 l 803 1172 z "},"Û":{"ha":989,"x_min":67,"x_max":1019,"o":"m 447 979 l 349 411 q 344 364 344 386 q 374 278 344 308 q 467 247 404 247 q 588 290 542 247 q 647 411 633 333 l 747 979 l 1019 979 l 919 411 q 824 178 896 272 q 647 37 751 83 q 419 -10 543 -10 q 163 74 260 -10 q 67 313 67 157 q 76 411 67 363 l 176 979 l 447 979 m 628 1149 l 385 1028 l 415 1210 l 660 1328 l 861 1210 l 829 1028 l 628 1149 z "},"Ü":{"ha":989,"x_min":67,"x_max":1019,"o":"m 447 979 l 349 411 q 344 364 344 386 q 374 278 344 308 q 467 247 404 247 q 588 290 542 247 q 647 411 633 333 l 747 979 l 1019 979 l 919 411 q 824 178 896 272 q 647 37 751 83 q 419 -10 543 -10 q 163 74 260 -10 q 67 313 67 157 q 76 411 67 363 l 176 979 l 447 979 m 465 1065 q 398 1090 424 1065 q 372 1154 372 1115 q 412 1249 372 1210 q 504 1288 451 1288 q 572 1263 547 1288 q 597 1196 597 1238 q 558 1103 597 1142 q 465 1065 518 1065 m 760 1065 q 693 1090 719 1065 q 667 1154 667 1115 q 706 1249 667 1210 q 799 1288 746 1288 q 867 1262 842 1288 q 893 1196 893 1236 q 853 1103 893 1142 q 760 1065 814 1065 z "},"Ý":{"ha":974,"x_min":108,"x_max":1071,"o":"m 1071 979 l 608 311 l 553 0 l 281 0 l 335 311 l 108 979 l 419 979 l 525 600 l 764 979 l 1071 979 m 794 1172 l 422 1036 l 456 1221 l 831 1378 l 794 1172 z "},"Þ":{"ha":883,"x_min":7,"x_max":874,"o":"m 868 490 q 799 335 853 406 q 656 222 746 264 q 447 179 567 179 l 313 179 l 281 0 l 7 0 l 181 979 l 451 979 l 421 806 l 558 806 q 794 738 714 806 q 874 554 874 671 q 868 490 874 519 m 456 383 q 592 490 571 383 q 594 517 594 510 q 494 599 594 599 l 386 599 l 349 383 l 456 383 z "},"ß":{"ha":1044,"x_min":-3,"x_max":1008,"o":"m 124 725 q 274 972 151 882 q 589 1063 397 1063 q 767 1033 690 1063 q 883 954 843 1004 q 924 840 924 904 q 888 722 924 772 q 793 615 853 671 q 750 572 764 589 q 736 542 736 556 q 755 515 736 528 q 844 472 774 503 q 970 390 932 436 q 1008 267 1008 344 q 964 120 1008 183 q 840 22 919 57 q 657 -14 760 -14 q 432 56 510 -14 q 357 256 354 126 l 600 256 q 622 199 601 219 q 675 178 642 178 q 726 193 707 178 q 744 235 744 208 q 724 274 744 257 q 649 314 704 292 q 501 392 544 354 q 457 483 457 429 q 484 565 457 528 q 563 653 511 603 q 624 718 604 692 q 644 771 644 744 q 617 819 644 801 q 544 838 590 838 q 442 803 482 838 q 392 708 403 768 l 268 0 l -3 0 l 124 725 z "},"à":{"ha":944,"x_min":24,"x_max":933,"o":"m 32 390 q 114 601 54 511 q 258 740 174 692 q 435 789 342 789 q 568 757 515 789 q 642 671 621 725 l 661 779 l 933 779 l 796 0 l 524 0 l 543 108 q 438 22 503 54 q 293 -10 372 -10 q 97 72 171 -10 q 24 293 24 153 q 32 390 24 339 m 593 390 q 597 429 597 411 q 565 519 597 488 q 481 551 532 551 q 371 509 419 551 q 310 390 322 467 q 306 350 306 369 q 338 260 306 292 q 422 228 371 228 q 532 271 483 228 q 593 390 581 314 m 758 1017 l 725 832 l 403 968 l 439 1174 l 758 1017 z "},"á":{"ha":944,"x_min":24,"x_max":933,"o":"m 32 390 q 114 601 54 511 q 258 740 174 692 q 435 789 342 789 q 568 757 515 789 q 642 671 621 725 l 661 779 l 933 779 l 796 0 l 524 0 l 543 108 q 438 22 503 54 q 293 -10 372 -10 q 97 72 171 -10 q 24 293 24 153 q 32 390 24 339 m 593 390 q 597 429 597 411 q 565 519 597 488 q 481 551 532 551 q 371 509 419 551 q 310 390 322 467 q 306 350 306 369 q 338 260 306 292 q 422 228 371 228 q 532 271 483 228 q 593 390 581 314 m 750 968 l 378 832 l 411 1017 l 786 1174 l 750 968 z "},"â":{"ha":944,"x_min":24,"x_max":933,"o":"m 32 390 q 114 601 54 511 q 258 740 174 692 q 435 789 342 789 q 568 757 515 789 q 642 671 621 725 l 661 779 l 933 779 l 796 0 l 524 0 l 543 108 q 438 22 503 54 q 293 -10 372 -10 q 97 72 171 -10 q 24 293 24 153 q 32 390 24 339 m 593 390 q 597 429 597 411 q 565 519 597 488 q 481 551 532 551 q 371 509 419 551 q 310 390 322 467 q 306 350 306 369 q 338 260 306 292 q 422 228 371 228 q 532 271 483 228 q 593 390 581 314 m 576 944 l 333 824 l 364 1006 l 608 1124 l 810 1006 l 778 824 l 576 944 z "},"ã":{"ha":944,"x_min":24,"x_max":933,"o":"m 32 390 q 114 601 54 511 q 258 740 174 692 q 435 789 342 789 q 568 757 515 789 q 642 671 621 725 l 661 779 l 933 779 l 796 0 l 524 0 l 543 108 q 438 22 503 54 q 293 -10 372 -10 q 97 72 171 -10 q 24 293 24 153 q 32 390 24 339 m 593 390 q 597 429 597 411 q 565 519 597 488 q 481 551 532 551 q 371 509 419 551 q 310 390 322 467 q 306 350 306 369 q 338 260 306 292 q 422 228 371 228 q 532 271 483 228 q 593 390 581 314 m 257 849 q 504 1074 333 1074 q 559 1065 535 1074 q 614 1038 583 1056 q 652 1017 638 1024 q 683 1011 667 1011 q 756 1074 735 1011 l 893 1074 q 646 850 815 850 q 592 859 615 850 q 535 886 568 868 q 497 906 511 900 q 465 913 482 913 q 393 849 415 913 l 257 849 z "},"ä":{"ha":944,"x_min":24,"x_max":933,"o":"m 32 390 q 114 601 54 511 q 258 740 174 692 q 435 789 342 789 q 568 757 515 789 q 642 671 621 725 l 661 779 l 933 779 l 796 0 l 524 0 l 543 108 q 438 22 503 54 q 293 -10 372 -10 q 97 72 171 -10 q 24 293 24 153 q 32 390 24 339 m 593 390 q 597 429 597 411 q 565 519 597 488 q 481 551 532 551 q 371 509 419 551 q 310 390 322 467 q 306 350 306 369 q 338 260 306 292 q 422 228 371 228 q 532 271 483 228 q 593 390 581 314 m 414 861 q 347 886 372 861 q 321 950 321 911 q 360 1044 321 1006 q 453 1083 400 1083 q 521 1058 496 1083 q 546 992 546 1033 q 506 899 546 938 q 414 861 467 861 m 708 861 q 642 886 668 861 q 615 950 615 911 q 655 1044 615 1006 q 747 1083 694 1083 q 816 1058 790 1083 q 842 992 842 1032 q 802 899 842 938 q 708 861 763 861 z "},"å":{"ha":944,"x_min":24,"x_max":933,"o":"m 32 390 q 114 601 54 511 q 258 740 174 692 q 435 789 342 789 q 568 757 515 789 q 642 671 621 725 l 661 779 l 933 779 l 796 0 l 524 0 l 543 108 q 438 22 503 54 q 293 -10 372 -10 q 97 72 171 -10 q 24 293 24 153 q 32 390 24 339 m 593 390 q 597 429 597 411 q 565 519 597 488 q 481 551 532 551 q 371 509 419 551 q 310 390 322 467 q 306 350 306 369 q 338 260 306 292 q 422 228 371 228 q 532 271 483 228 q 593 390 581 314 m 411 1003 q 484 1131 425 1083 q 618 1179 543 1179 q 725 1142 683 1179 q 767 1042 767 1106 q 738 929 767 978 q 660 854 708 881 q 557 828 611 828 q 450 866 492 828 q 408 968 408 904 q 411 1003 408 978 m 654 1018 q 639 1056 654 1042 q 599 1071 624 1071 q 549 1053 571 1071 q 521 1004 526 1035 q 519 992 519 1000 q 535 952 519 967 q 575 938 550 938 q 631 960 607 938 q 654 1018 654 983 z "},"æ":{"ha":1474,"x_min":24,"x_max":1450,"o":"m 1172 789 q 1376 710 1301 789 q 1450 494 1450 632 q 1442 400 1450 450 q 1424 336 1435 363 l 865 336 q 894 237 863 268 q 979 206 925 206 q 1111 269 1071 206 l 1400 269 q 1252 68 1351 146 q 1032 -10 1153 -10 q 892 22 949 -10 q 814 108 836 53 l 794 0 l 524 0 l 544 108 q 437 22 501 53 q 294 -10 372 -10 q 98 72 172 -10 q 24 293 24 153 q 32 390 24 339 q 114 601 54 511 q 258 740 174 692 q 438 789 343 789 q 567 758 515 789 q 643 672 619 728 l 663 779 l 932 779 l 913 672 q 1172 789 1004 789 m 1175 458 q 1176 478 1176 465 q 1142 549 1176 524 q 1051 574 1107 574 q 952 546 996 574 q 886 458 908 518 l 1175 458 m 593 390 q 597 429 597 411 q 565 519 597 488 q 481 551 532 551 q 371 509 419 551 q 310 390 322 467 q 306 350 306 369 q 338 260 306 292 q 422 228 371 228 q 532 271 483 228 q 593 390 581 314 z "},"ç":{"ha":843,"x_min":24,"x_max":825,"o":"m 392 222 q 501 299 467 222 l 792 299 q 651 95 744 174 q 436 -3 558 17 l 428 -51 q 535 -83 489 -51 q 582 -181 582 -115 q 579 -215 582 -203 q 497 -340 564 -300 q 349 -381 431 -381 l 122 -381 l 147 -237 l 343 -237 q 378 -230 364 -237 q 393 -208 392 -222 q 353 -179 399 -179 l 244 -179 l 276 -3 q 90 97 157 17 q 24 303 24 176 q 32 390 24 344 q 120 602 54 513 q 284 740 186 692 q 497 789 382 789 q 733 708 646 789 q 825 481 821 626 l 535 481 q 450 557 524 557 q 361 515 399 557 q 310 390 324 472 q 304 335 304 363 q 328 251 304 279 q 392 222 351 222 z "},"è":{"ha":856,"x_min":24,"x_max":831,"o":"m 499 789 q 741 707 651 789 q 831 483 831 625 q 824 400 831 436 q 807 336 815 356 l 292 336 q 290 311 290 328 q 316 233 290 258 q 385 208 342 208 q 493 269 453 208 l 782 269 q 687 126 750 189 q 538 26 624 63 q 357 -10 453 -10 q 114 74 204 -10 q 24 303 24 157 q 32 390 24 344 q 120 602 54 513 q 284 740 186 692 q 499 789 382 789 m 556 458 q 558 483 558 478 q 531 551 558 528 q 458 574 503 574 q 369 544 407 574 q 314 458 332 515 l 556 458 m 722 1017 l 689 832 l 367 968 l 403 1174 l 722 1017 z "},"é":{"ha":856,"x_min":24,"x_max":831,"o":"m 499 789 q 741 707 651 789 q 831 483 831 625 q 824 400 831 436 q 807 336 815 356 l 292 336 q 290 311 290 328 q 316 233 290 258 q 385 208 342 208 q 493 269 453 208 l 782 269 q 687 126 750 189 q 538 26 624 63 q 357 -10 453 -10 q 114 74 204 -10 q 24 303 24 157 q 32 390 24 344 q 120 602 54 513 q 284 740 186 692 q 499 789 382 789 m 556 458 q 558 483 558 478 q 531 551 558 528 q 458 574 503 574 q 369 544 407 574 q 314 458 332 515 l 556 458 m 714 968 l 342 832 l 375 1017 l 750 1174 l 714 968 z "},"ê":{"ha":856,"x_min":24,"x_max":831,"o":"m 499 789 q 741 707 651 789 q 831 483 831 625 q 824 400 831 436 q 807 336 815 356 l 292 336 q 290 311 290 328 q 316 233 290 258 q 385 208 342 208 q 493 269 453 208 l 782 269 q 687 126 750 189 q 538 26 624 63 q 357 -10 453 -10 q 114 74 204 -10 q 24 303 24 157 q 32 390 24 344 q 120 602 54 513 q 284 740 186 692 q 499 789 382 789 m 556 458 q 558 483 558 478 q 531 551 558 528 q 458 574 503 574 q 369 544 407 574 q 314 458 332 515 l 556 458 m 539 944 l 296 824 l 326 1006 l 571 1124 l 772 1006 l 740 824 l 539 944 z "},"ë":{"ha":856,"x_min":24,"x_max":831,"o":"m 499 789 q 741 707 651 789 q 831 483 831 625 q 824 400 831 436 q 807 336 815 356 l 292 336 q 290 311 290 328 q 316 233 290 258 q 385 208 342 208 q 493 269 453 208 l 782 269 q 687 126 750 189 q 538 26 624 63 q 357 -10 453 -10 q 114 74 204 -10 q 24 303 24 157 q 32 390 24 344 q 120 602 54 513 q 284 740 186 692 q 499 789 382 789 m 556 458 q 558 483 558 478 q 531 551 558 528 q 458 574 503 574 q 369 544 407 574 q 314 458 332 515 l 556 458 m 376 861 q 309 886 335 861 q 283 950 283 911 q 323 1044 283 1006 q 415 1083 363 1083 q 483 1058 458 1083 q 508 992 508 1033 q 469 899 508 938 q 376 861 429 861 m 671 861 q 604 886 631 861 q 578 950 578 911 q 617 1044 578 1006 q 710 1083 657 1083 q 778 1058 753 1083 q 804 992 804 1032 q 765 899 804 938 q 671 861 725 861 z "},"ì":{"ha":482,"x_min":35,"x_max":521,"o":"m 444 779 l 307 0 l 35 0 l 172 779 l 444 779 m 521 1017 l 488 832 l 165 968 l 201 1174 l 521 1017 z "},"í":{"ha":482,"x_min":35,"x_max":549,"o":"m 444 779 l 307 0 l 35 0 l 172 779 l 444 779 m 513 968 l 140 832 l 174 1017 l 549 1174 l 513 968 z "},"î":{"ha":482,"x_min":35,"x_max":571,"o":"m 444 779 l 307 0 l 35 0 l 172 779 l 444 779 m 338 944 l 94 824 l 125 1006 l 369 1124 l 571 1006 l 539 824 l 338 944 z "},"ï":{"ha":482,"x_min":35,"x_max":604,"o":"m 444 779 l 307 0 l 35 0 l 172 779 l 444 779 m 176 861 q 109 886 135 861 q 83 950 83 911 q 123 1044 83 1006 q 215 1083 163 1083 q 283 1058 258 1083 q 308 992 308 1033 q 269 899 308 938 q 176 861 229 861 m 471 861 q 404 886 431 861 q 378 950 378 911 q 417 1044 378 1006 q 510 1083 457 1083 q 578 1058 553 1083 q 604 992 604 1032 q 565 899 604 938 q 471 861 525 861 z "},"ð":{"ha":890,"x_min":25,"x_max":875,"o":"m 785 913 q 875 558 875 747 q 865 440 875 497 q 768 197 840 299 q 594 42 696 94 q 379 -10 493 -10 q 197 30 278 -10 q 71 143 117 69 q 25 315 25 217 q 32 392 25 347 q 121 601 54 511 q 284 738 188 690 q 489 786 381 786 q 619 760 553 786 q 582 856 606 808 l 442 817 l 458 913 l 536 935 q 463 1028 501 989 l 706 1028 l 735 990 l 853 1024 l 836 926 l 785 913 m 578 390 q 582 433 582 414 q 551 523 582 493 q 475 553 519 553 q 372 512 419 553 q 311 390 325 471 q 307 347 307 368 q 341 257 307 288 q 421 226 375 226 q 519 267 474 226 q 578 390 564 308 z "},"ñ":{"ha":953,"x_min":7,"x_max":932,"o":"m 657 786 q 835 720 771 786 q 900 538 900 654 q 892 454 900 499 l 811 0 l 539 0 l 613 418 q 617 456 617 439 q 588 533 617 506 q 508 561 560 561 q 410 525 450 561 q 356 425 369 489 l 281 0 l 7 0 l 146 779 l 418 779 l 399 668 q 511 753 444 721 q 657 786 578 786 m 296 849 q 543 1074 372 1074 q 598 1065 574 1074 q 653 1038 622 1056 q 691 1017 676 1024 q 722 1011 706 1011 q 794 1074 774 1011 l 932 1074 q 685 850 854 850 q 631 859 654 850 q 574 886 607 868 q 535 906 550 900 q 504 913 521 913 q 432 849 454 913 l 296 849 z "},"ò":{"ha":883,"x_min":25,"x_max":857,"o":"m 369 -10 q 190 31 268 -10 q 68 144 111 71 q 25 317 25 218 q 88 558 25 450 q 263 728 151 667 q 511 789 374 789 q 691 749 613 789 q 813 634 769 708 q 857 461 857 560 q 793 219 857 326 q 618 51 729 111 q 369 -10 507 -10 m 411 225 q 498 256 460 225 q 556 335 536 286 q 576 435 576 383 q 547 524 576 493 q 469 554 517 554 q 383 524 419 554 q 326 444 346 493 q 306 343 306 396 q 335 255 306 285 q 411 225 364 225 m 722 1026 l 689 842 l 367 978 l 403 1183 l 722 1026 z "},"ó":{"ha":883,"x_min":25,"x_max":857,"o":"m 369 -10 q 190 31 268 -10 q 68 144 111 71 q 25 317 25 218 q 88 558 25 450 q 263 728 151 667 q 511 789 374 789 q 691 749 613 789 q 813 634 769 708 q 857 461 857 560 q 793 219 857 326 q 618 51 729 111 q 369 -10 507 -10 m 411 225 q 498 256 460 225 q 556 335 536 286 q 576 435 576 383 q 547 524 576 493 q 469 554 517 554 q 383 524 419 554 q 326 444 346 493 q 306 343 306 396 q 335 255 306 285 q 411 225 364 225 m 714 978 l 342 842 l 375 1026 l 750 1183 l 714 978 z "},"ô":{"ha":883,"x_min":25,"x_max":857,"o":"m 369 -10 q 190 31 268 -10 q 68 144 111 71 q 25 317 25 218 q 88 558 25 450 q 263 728 151 667 q 511 789 374 789 q 691 749 613 789 q 813 634 769 708 q 857 461 857 560 q 793 219 857 326 q 618 51 729 111 q 369 -10 507 -10 m 411 225 q 498 256 460 225 q 556 335 536 286 q 576 435 576 383 q 547 524 576 493 q 469 554 517 554 q 383 524 419 554 q 326 444 346 493 q 306 343 306 396 q 335 255 306 285 q 411 225 364 225 m 539 954 l 296 833 l 326 1015 l 571 1133 l 772 1015 l 740 833 l 539 954 z "},"õ":{"ha":883,"x_min":25,"x_max":857,"o":"m 369 -10 q 190 31 268 -10 q 68 144 111 71 q 25 317 25 218 q 88 558 25 450 q 263 728 151 667 q 511 789 374 789 q 691 749 613 789 q 813 634 769 708 q 857 461 857 560 q 793 219 857 326 q 618 51 729 111 q 369 -10 507 -10 m 411 225 q 498 256 460 225 q 556 335 536 286 q 576 435 576 383 q 547 524 576 493 q 469 554 517 554 q 383 524 419 554 q 326 444 346 493 q 306 343 306 396 q 335 255 306 285 q 411 225 364 225 m 221 858 q 468 1083 297 1083 q 523 1074 499 1083 q 578 1047 547 1065 q 616 1027 601 1033 q 647 1021 631 1021 q 719 1083 699 1021 l 857 1083 q 610 860 779 860 q 556 869 579 860 q 499 896 532 878 q 460 916 475 910 q 429 922 446 922 q 357 858 379 922 l 221 858 z "},"ö":{"ha":883,"x_min":25,"x_max":857,"o":"m 369 -10 q 190 31 268 -10 q 68 144 111 71 q 25 317 25 218 q 88 558 25 450 q 263 728 151 667 q 511 789 374 789 q 691 749 613 789 q 813 634 769 708 q 857 461 857 560 q 793 219 857 326 q 618 51 729 111 q 369 -10 507 -10 m 411 225 q 498 256 460 225 q 556 335 536 286 q 576 435 576 383 q 547 524 576 493 q 469 554 517 554 q 383 524 419 554 q 326 444 346 493 q 306 343 306 396 q 335 255 306 285 q 411 225 364 225 m 376 871 q 309 896 335 871 q 283 960 283 921 q 323 1054 283 1015 q 415 1093 363 1093 q 483 1068 458 1093 q 508 1001 508 1043 q 469 909 508 947 q 376 871 429 871 m 671 871 q 604 896 631 871 q 578 960 578 921 q 617 1054 578 1015 q 710 1093 657 1093 q 778 1067 753 1093 q 804 1001 804 1042 q 765 909 804 947 q 671 871 725 871 z "},"÷":{"ha":807,"x_min":44,"x_max":797,"o":"m 458 661 q 358 693 394 661 q 321 776 321 725 q 345 859 321 821 q 413 920 369 897 q 508 943 456 943 q 608 910 571 943 q 644 826 644 878 q 591 709 644 757 q 458 661 538 661 m 797 603 l 754 357 l 44 357 l 88 603 l 797 603 m 315 15 q 215 47 251 15 q 178 131 178 79 q 202 213 178 175 q 269 274 226 251 q 365 297 313 297 q 465 265 428 297 q 501 181 501 232 q 448 63 501 111 q 315 15 394 15 z "},"ø":{"ha":868,"x_min":-61,"x_max":926,"o":"m 790 656 q 849 461 849 574 q 785 219 849 326 q 610 51 721 111 q 361 -10 499 -10 q 138 58 226 -10 l 74 0 l -61 0 l 74 124 q 17 317 17 204 q 80 558 17 450 q 254 728 143 667 q 503 789 365 789 q 728 721 633 789 l 792 779 l 926 779 l 790 656 m 297 328 l 525 536 q 461 554 499 554 q 374 524 411 554 q 317 444 338 493 q 297 343 297 396 l 297 328 m 568 451 l 340 243 q 403 225 364 225 q 490 256 451 225 q 548 335 528 286 q 568 435 568 383 l 568 451 z "},"ù":{"ha":953,"x_min":51,"x_max":943,"o":"m 943 779 l 804 0 l 532 0 l 551 111 q 440 26 506 58 q 294 -7 374 -7 q 115 58 179 -7 q 51 240 51 124 q 60 326 51 281 l 139 779 l 411 779 l 338 361 q 333 325 333 343 q 363 247 333 275 q 442 218 392 218 q 540 254 500 218 q 594 354 581 290 l 669 779 l 943 779 m 756 1017 l 722 832 l 400 968 l 436 1174 l 756 1017 z "},"ú":{"ha":953,"x_min":51,"x_max":943,"o":"m 943 779 l 804 0 l 532 0 l 551 111 q 440 26 506 58 q 294 -7 374 -7 q 115 58 179 -7 q 51 240 51 124 q 60 326 51 281 l 139 779 l 411 779 l 338 361 q 333 325 333 343 q 363 247 333 275 q 442 218 392 218 q 540 254 500 218 q 594 354 581 290 l 669 779 l 943 779 m 747 968 l 375 832 l 408 1017 l 783 1174 l 747 968 z "},"û":{"ha":953,"x_min":51,"x_max":943,"o":"m 943 779 l 804 0 l 532 0 l 551 111 q 440 26 506 58 q 294 -7 374 -7 q 115 58 179 -7 q 51 240 51 124 q 60 326 51 281 l 139 779 l 411 779 l 338 361 q 333 325 333 343 q 363 247 333 275 q 442 218 392 218 q 540 254 500 218 q 594 354 581 290 l 669 779 l 943 779 m 574 944 l 331 824 l 361 1006 l 606 1124 l 807 1006 l 775 824 l 574 944 z "},"ü":{"ha":953,"x_min":51,"x_max":943,"o":"m 943 779 l 804 0 l 532 0 l 551 111 q 440 26 506 58 q 294 -7 374 -7 q 115 58 179 -7 q 51 240 51 124 q 60 326 51 281 l 139 779 l 411 779 l 338 361 q 333 325 333 343 q 363 247 333 275 q 442 218 392 218 q 540 254 500 218 q 594 354 581 290 l 669 779 l 943 779 m 411 861 q 344 886 369 861 q 318 950 318 911 q 358 1044 318 1006 q 450 1083 397 1083 q 518 1058 493 1083 q 543 992 543 1033 q 503 899 543 938 q 411 861 464 861 m 706 861 q 639 886 665 861 q 613 950 613 911 q 652 1044 613 1006 q 744 1083 692 1083 q 813 1058 788 1083 q 839 992 839 1032 q 799 899 839 938 q 706 861 760 861 z "},"ý":{"ha":910,"x_min":-8,"x_max":983,"o":"m 364 779 l 449 338 l 685 779 l 983 779 l 288 -371 l -8 -371 l 249 33 l 61 779 l 364 779 m 726 968 l 354 832 l 388 1017 l 763 1174 l 726 968 z "},"þ":{"ha":944,"x_min":-57,"x_max":917,"o":"m 403 694 q 505 764 450 742 q 629 786 560 786 q 778 747 713 786 q 880 637 843 708 q 917 472 917 565 q 908 386 917 431 q 824 181 888 271 q 672 40 761 90 q 489 -10 583 -10 q 299 100 358 -10 l 215 -372 l -57 -372 l 189 1028 l 463 1028 l 403 694 m 632 386 q 635 425 635 400 q 601 518 635 486 q 521 550 567 550 q 415 510 465 550 q 350 390 364 469 q 346 350 346 369 q 381 259 346 290 q 463 228 415 228 q 567 267 517 228 q 632 386 618 307 z "},"ÿ":{"ha":910,"x_min":-8,"x_max":983,"o":"m 364 779 l 449 338 l 685 779 l 983 779 l 288 -371 l -8 -371 l 249 33 l 61 779 l 364 779 m 389 861 q 322 886 347 861 q 296 950 296 911 q 335 1044 296 1006 q 428 1083 375 1083 q 496 1058 471 1083 q 521 992 521 1033 q 481 899 521 938 q 389 861 442 861 m 683 861 q 617 886 643 861 q 590 950 590 911 q 630 1044 590 1006 q 722 1083 669 1083 q 791 1058 765 1083 q 817 992 817 1032 q 777 899 817 938 q 683 861 738 861 z "},"Ā":{"ha":1049,"x_min":-58,"x_max":968,"o":"m 656 160 l 308 160 l 228 0 l -58 0 l 471 979 l 785 979 l 968 0 l 681 0 l 656 160 m 624 367 l 575 685 l 414 367 l 624 367 m 967 1256 l 935 1072 l 357 1072 l 389 1256 l 967 1256 z "},"ā":{"ha":944,"x_min":24,"x_max":933,"o":"m 32 390 q 114 601 54 511 q 258 740 174 692 q 435 789 342 789 q 568 757 515 789 q 642 671 621 725 l 661 779 l 933 779 l 796 0 l 524 0 l 543 108 q 438 22 503 54 q 293 -10 372 -10 q 97 72 171 -10 q 24 293 24 153 q 32 390 24 339 m 593 390 q 597 429 597 411 q 565 519 597 488 q 481 551 532 551 q 371 509 419 551 q 310 390 322 467 q 306 350 306 369 q 338 260 306 292 q 422 228 371 228 q 532 271 483 228 q 593 390 581 314 m 885 1051 l 853 868 l 275 868 l 307 1051 l 885 1051 z "},"Ă":{"ha":1049,"x_min":-58,"x_max":968,"o":"m 656 160 l 308 160 l 228 0 l -58 0 l 471 979 l 785 979 l 968 0 l 681 0 l 656 160 m 624 367 l 575 685 l 414 367 l 624 367 m 933 1301 q 831 1108 913 1175 q 639 1040 750 1040 q 487 1092 543 1040 q 431 1239 431 1143 q 436 1301 431 1272 l 440 1326 l 571 1326 q 568 1304 568 1310 q 593 1254 568 1271 q 674 1238 618 1238 q 769 1260 739 1238 q 807 1326 799 1282 l 939 1326 l 933 1301 z "},"ă":{"ha":944,"x_min":24,"x_max":933,"o":"m 32 390 q 114 601 54 511 q 258 740 174 692 q 435 789 342 789 q 568 757 515 789 q 642 671 621 725 l 661 779 l 933 779 l 796 0 l 524 0 l 543 108 q 438 22 503 54 q 293 -10 372 -10 q 97 72 171 -10 q 24 293 24 153 q 32 390 24 339 m 593 390 q 597 429 597 411 q 565 519 597 488 q 481 551 532 551 q 371 509 419 551 q 310 390 322 467 q 306 350 306 369 q 338 260 306 292 q 422 228 371 228 q 532 271 483 228 q 593 390 581 314 m 851 1097 q 749 903 831 971 q 557 836 668 836 q 405 888 461 836 q 349 1035 349 939 q 354 1097 349 1068 l 358 1122 l 489 1122 q 486 1100 486 1106 q 511 1050 486 1067 q 592 1033 536 1033 q 687 1056 657 1033 q 725 1122 717 1078 l 857 1122 l 851 1097 z "},"Ą":{"ha":1049,"x_min":-58,"x_max":968,"o":"m 786 -117 q 797 -147 783 -136 q 836 -158 810 -158 q 949 -137 882 -158 l 924 -283 q 772 -306 850 -306 q 635 -270 685 -306 q 585 -169 585 -235 q 588 -136 585 -158 q 617 -60 596 -94 q 679 7 638 -25 l 656 160 l 308 160 l 228 0 l -58 0 l 471 979 l 785 979 l 968 0 l 900 -28 q 815 -74 840 -53 q 786 -117 790 -94 m 624 367 l 575 685 l 414 367 l 624 367 z "},"ą":{"ha":944,"x_min":24,"x_max":933,"o":"m 729 -31 q 640 -82 665 -60 q 614 -128 614 -104 q 626 -150 614 -142 q 661 -158 639 -158 q 776 -137 710 -158 l 751 -283 q 601 -306 678 -306 q 463 -271 514 -306 q 413 -174 413 -236 q 415 -143 413 -165 q 449 -64 424 -100 q 525 7 474 -28 l 543 108 q 438 22 503 54 q 293 -10 372 -10 q 97 72 171 -10 q 24 293 24 153 q 32 390 24 339 q 114 601 54 511 q 258 740 174 692 q 435 789 342 789 q 568 757 515 789 q 642 671 621 725 l 661 779 l 933 779 l 796 0 l 729 -31 m 422 228 q 532 271 483 228 q 593 390 581 314 q 597 429 597 411 q 565 519 597 488 q 481 551 532 551 q 371 509 419 551 q 310 390 322 467 q 306 350 306 369 q 338 260 306 292 q 422 228 371 228 z "},"Ć":{"ha":1053,"x_min":51,"x_max":1042,"o":"m 61 492 q 167 749 86 636 q 369 926 247 863 q 636 989 492 989 q 847 944 757 989 q 988 818 938 900 q 1042 625 1038 736 l 749 625 q 690 708 732 679 q 588 738 649 738 q 425 671 493 738 q 338 492 357 604 q 332 429 332 463 q 377 294 332 343 q 501 244 422 244 q 615 274 563 244 q 701 357 667 303 l 996 357 q 786 91 929 189 q 460 -7 643 -7 q 241 42 333 -7 q 100 179 149 90 q 51 385 51 268 q 61 492 51 439 m 833 1172 l 461 1036 l 494 1221 l 869 1378 l 833 1172 z "},"ć":{"ha":843,"x_min":24,"x_max":825,"o":"m 32 390 q 120 602 54 513 q 284 740 186 692 q 497 789 382 789 q 733 708 646 789 q 825 481 821 626 l 535 481 q 450 557 524 557 q 361 515 399 557 q 310 390 324 472 q 304 335 304 363 q 328 251 304 279 q 392 222 351 222 q 501 299 467 222 l 792 299 q 622 72 738 154 q 356 -10 506 -10 q 113 74 203 -10 q 24 303 24 157 q 32 390 24 344 m 686 968 l 314 832 l 347 1017 l 722 1174 l 686 968 z "},"Ċ":{"ha":1053,"x_min":51,"x_max":1042,"o":"m 61 492 q 167 749 86 636 q 369 926 247 863 q 636 989 492 989 q 847 944 757 989 q 988 818 938 900 q 1042 625 1038 736 l 749 625 q 690 708 732 679 q 588 738 649 738 q 425 671 493 738 q 338 492 357 604 q 332 429 332 463 q 377 294 332 343 q 501 244 422 244 q 615 274 563 244 q 701 357 667 303 l 996 357 q 786 91 929 189 q 460 -7 643 -7 q 241 42 333 -7 q 100 179 149 90 q 51 385 51 268 q 61 492 51 439 m 643 1065 q 576 1090 601 1065 q 550 1154 550 1115 q 590 1248 550 1208 q 682 1288 629 1288 q 750 1263 725 1288 q 775 1196 775 1238 q 736 1103 775 1142 q 643 1065 697 1065 z "},"ċ":{"ha":843,"x_min":24,"x_max":825,"o":"m 32 390 q 120 602 54 513 q 284 740 186 692 q 497 789 382 789 q 733 708 646 789 q 825 481 821 626 l 535 481 q 450 557 524 557 q 361 515 399 557 q 310 390 324 472 q 304 335 304 363 q 328 251 304 279 q 392 222 351 222 q 501 299 467 222 l 792 299 q 622 72 738 154 q 356 -10 506 -10 q 113 74 203 -10 q 24 303 24 157 q 32 390 24 344 m 497 861 q 430 886 456 861 q 404 950 404 911 q 444 1044 404 1004 q 536 1083 483 1083 q 604 1058 579 1083 q 629 992 629 1033 q 590 899 629 938 q 497 861 551 861 z "},"Č":{"ha":1053,"x_min":51,"x_max":1042,"o":"m 61 492 q 167 749 86 636 q 369 926 247 863 q 636 989 492 989 q 847 944 757 989 q 988 818 938 900 q 1042 625 1038 736 l 749 625 q 690 708 732 679 q 588 738 649 738 q 425 671 493 738 q 338 492 357 604 q 332 429 332 463 q 377 294 332 343 q 501 244 422 244 q 615 274 563 244 q 701 357 667 303 l 996 357 q 786 91 929 189 q 460 -7 643 -7 q 241 42 333 -7 q 100 179 149 90 q 51 385 51 268 q 61 492 51 439 m 882 1144 l 639 1028 l 438 1144 l 468 1328 l 671 1206 l 914 1328 l 882 1144 z "},"č":{"ha":843,"x_min":24,"x_max":825,"o":"m 32 390 q 120 602 54 513 q 284 740 186 692 q 497 789 382 789 q 733 708 646 789 q 825 481 821 626 l 535 481 q 450 557 524 557 q 361 515 399 557 q 310 390 324 472 q 304 335 304 363 q 328 251 304 279 q 392 222 351 222 q 501 299 467 222 l 792 299 q 622 72 738 154 q 356 -10 506 -10 q 113 74 203 -10 q 24 303 24 157 q 32 390 24 344 m 735 940 l 492 824 l 290 940 l 321 1124 l 524 1001 l 767 1124 l 735 940 z "},"Ď":{"ha":1021,"x_min":7,"x_max":1003,"o":"m 568 979 q 801 931 703 979 q 951 796 900 883 q 1003 592 1003 708 q 993 490 1003 539 q 885 238 968 349 q 676 63 803 126 q 394 0 549 0 l 7 0 l 181 979 l 568 979 m 417 239 q 615 305 536 239 q 717 490 694 371 q 722 550 722 518 q 665 693 722 643 q 506 743 608 743 l 413 743 l 322 239 l 417 239 m 851 1144 l 608 1028 l 407 1144 l 438 1328 l 640 1206 l 883 1328 l 851 1144 z "},"ď":{"ha":1192,"x_min":24,"x_max":1267,"o":"m 32 390 q 114 601 54 511 q 258 740 174 692 q 436 789 343 789 q 565 758 511 789 q 642 672 618 726 l 704 1028 l 978 1028 l 796 0 l 522 0 l 543 108 q 438 22 501 54 q 294 -10 374 -10 q 98 72 172 -10 q 24 293 24 153 q 32 390 24 339 m 1258 1028 q 1267 940 1267 985 q 1258 853 1267 894 q 1176 688 1240 751 q 1007 625 1111 625 l 1024 725 q 1115 821 1099 725 l 1119 842 l 1025 842 l 1058 1028 l 1258 1028 m 593 390 q 597 429 597 411 q 565 519 597 488 q 481 551 532 551 q 371 509 419 551 q 310 390 322 467 q 306 350 306 369 q 338 260 306 292 q 422 228 371 228 q 532 271 483 228 q 593 390 581 314 z "},"Đ":{"ha":1025,"x_min":1,"x_max":1006,"o":"m 572 979 q 805 931 707 979 q 954 795 903 883 q 1006 590 1006 707 q 997 490 1006 543 q 890 238 972 349 q 680 63 807 126 q 399 0 553 0 l 11 0 l 79 381 l 1 381 l 40 601 l 118 601 l 185 979 l 572 979 m 719 490 q 725 551 725 519 q 669 693 725 643 q 510 743 613 743 l 417 743 l 392 601 l 588 601 l 549 381 l 351 381 l 326 239 l 419 239 q 619 305 539 239 q 719 490 699 371 z "},"đ":{"ha":969,"x_min":24,"x_max":1051,"o":"m 1029 822 l 942 822 l 796 0 l 522 0 l 543 108 q 438 22 501 54 q 294 -10 374 -10 q 98 72 172 -10 q 24 293 24 153 q 32 390 24 339 q 114 601 54 511 q 258 740 174 692 q 436 789 343 789 q 565 758 511 789 q 642 672 618 726 l 668 822 l 579 822 l 601 944 l 689 944 l 704 1028 l 978 1028 l 963 944 l 1051 944 l 1029 822 m 593 390 q 597 429 597 411 q 565 519 597 488 q 481 551 532 551 q 371 509 419 551 q 310 390 322 467 q 306 350 306 369 q 338 260 306 292 q 422 228 371 228 q 532 271 483 228 q 593 390 581 314 z "},"Ē":{"ha":761,"x_min":7,"x_max":826,"o":"m 415 764 l 388 601 l 700 601 l 663 394 l 350 394 l 318 217 l 672 217 l 635 0 l 7 0 l 181 979 l 807 979 l 769 764 l 415 764 m 826 1256 l 794 1072 l 217 1072 l 249 1256 l 826 1256 z "},"ē":{"ha":856,"x_min":24,"x_max":847,"o":"m 499 789 q 741 707 651 789 q 831 483 831 625 q 824 400 831 436 q 807 336 815 356 l 292 336 q 290 311 290 328 q 316 233 290 258 q 385 208 342 208 q 493 269 453 208 l 782 269 q 687 126 750 189 q 538 26 624 63 q 357 -10 453 -10 q 114 74 204 -10 q 24 303 24 157 q 32 390 24 344 q 120 602 54 513 q 284 740 186 692 q 499 789 382 789 m 556 458 q 558 483 558 478 q 531 551 558 528 q 458 574 503 574 q 369 544 407 574 q 314 458 332 515 l 556 458 m 847 1051 l 815 868 l 238 868 l 269 1051 l 847 1051 z "},"Ĕ":{"ha":761,"x_min":7,"x_max":807,"o":"m 415 764 l 388 601 l 700 601 l 663 394 l 350 394 l 318 217 l 672 217 l 635 0 l 7 0 l 181 979 l 807 979 l 769 764 l 415 764 m 793 1301 q 691 1108 772 1175 q 499 1040 610 1040 q 347 1092 403 1040 q 290 1239 290 1143 q 296 1301 290 1272 l 300 1326 l 431 1326 q 428 1304 428 1310 q 453 1254 428 1271 q 533 1238 478 1238 q 628 1260 599 1238 q 667 1326 658 1282 l 799 1326 l 793 1301 z "},"ĕ":{"ha":856,"x_min":24,"x_max":831,"o":"m 499 789 q 741 707 651 789 q 831 483 831 625 q 824 400 831 436 q 807 336 815 356 l 292 336 q 290 311 290 328 q 316 233 290 258 q 385 208 342 208 q 493 269 453 208 l 782 269 q 687 126 750 189 q 538 26 624 63 q 357 -10 453 -10 q 114 74 204 -10 q 24 303 24 157 q 32 390 24 344 q 120 602 54 513 q 284 740 186 692 q 499 789 382 789 m 556 458 q 558 483 558 478 q 531 551 558 528 q 458 574 503 574 q 369 544 407 574 q 314 458 332 515 l 556 458 m 815 1097 q 713 903 794 971 q 521 836 632 836 q 369 888 425 836 q 313 1035 313 939 q 318 1097 313 1068 l 322 1122 l 453 1122 q 450 1100 450 1106 q 475 1050 450 1067 q 556 1033 500 1033 q 651 1056 621 1033 q 689 1122 681 1078 l 821 1122 l 815 1097 z "},"Ė":{"ha":761,"x_min":7,"x_max":807,"o":"m 415 764 l 388 601 l 700 601 l 663 394 l 350 394 l 318 217 l 672 217 l 635 0 l 7 0 l 181 979 l 807 979 l 769 764 l 415 764 m 503 1065 q 435 1090 461 1065 q 410 1154 410 1115 q 449 1248 410 1208 q 542 1288 489 1288 q 610 1263 585 1288 q 635 1196 635 1238 q 596 1103 635 1142 q 503 1065 557 1065 z "},"ė":{"ha":856,"x_min":24,"x_max":831,"o":"m 499 789 q 741 707 651 789 q 831 483 831 625 q 824 400 831 436 q 807 336 815 356 l 292 336 q 290 311 290 328 q 316 233 290 258 q 385 208 342 208 q 493 269 453 208 l 782 269 q 687 126 750 189 q 538 26 624 63 q 357 -10 453 -10 q 114 74 204 -10 q 24 303 24 157 q 32 390 24 344 q 120 602 54 513 q 284 740 186 692 q 499 789 382 789 m 556 458 q 558 483 558 478 q 531 551 558 528 q 458 574 503 574 q 369 544 407 574 q 314 458 332 515 l 556 458 m 524 861 q 456 886 482 861 q 431 950 431 911 q 470 1044 431 1004 q 563 1083 510 1083 q 631 1058 606 1083 q 656 992 656 1033 q 617 899 656 938 q 524 861 578 861 z "},"Ę":{"ha":761,"x_min":7,"x_max":807,"o":"m 415 764 l 388 601 l 700 601 l 663 394 l 350 394 l 318 217 l 672 217 l 635 0 l 568 -31 q 478 -82 504 -60 q 453 -128 453 -104 q 465 -150 453 -142 q 500 -158 478 -158 q 615 -137 549 -158 l 590 -283 q 440 -306 517 -306 q 302 -271 353 -306 q 251 -174 251 -236 q 254 -143 251 -165 q 285 -68 263 -103 q 353 0 308 -33 l 7 0 l 181 979 l 807 979 l 769 764 l 415 764 z "},"ę":{"ha":856,"x_min":24,"x_max":831,"o":"m 499 789 q 741 707 651 789 q 831 483 831 625 q 824 400 831 436 q 807 336 815 356 l 292 336 q 290 311 290 328 q 316 233 290 258 q 385 208 342 208 q 493 269 453 208 l 782 269 q 669 108 746 178 q 490 10 592 39 l 431 -18 q 341 -69 367 -47 q 315 -115 315 -92 q 328 -137 315 -129 q 363 -146 340 -146 q 478 -125 411 -146 l 453 -271 q 303 -293 379 -293 q 165 -258 215 -293 q 114 -161 114 -224 q 117 -131 114 -153 q 148 -56 125 -90 q 217 13 171 -21 q 74 120 125 46 q 24 303 24 194 q 32 390 24 344 q 120 602 54 513 q 284 740 186 692 q 499 789 382 789 m 556 458 q 558 483 558 478 q 531 551 558 528 q 458 574 503 574 q 369 544 407 574 q 314 458 332 515 l 556 458 z "},"Ě":{"ha":761,"x_min":7,"x_max":807,"o":"m 415 764 l 388 601 l 700 601 l 663 394 l 350 394 l 318 217 l 672 217 l 635 0 l 7 0 l 181 979 l 807 979 l 769 764 l 415 764 m 740 1144 l 497 1028 l 296 1144 l 326 1328 l 529 1206 l 772 1328 l 740 1144 z "},"ě":{"ha":856,"x_min":24,"x_max":831,"o":"m 499 789 q 741 707 651 789 q 831 483 831 625 q 824 400 831 436 q 807 336 815 356 l 292 336 q 290 311 290 328 q 316 233 290 258 q 385 208 342 208 q 493 269 453 208 l 782 269 q 687 126 750 189 q 538 26 624 63 q 357 -10 453 -10 q 114 74 204 -10 q 24 303 24 157 q 32 390 24 344 q 120 602 54 513 q 284 740 186 692 q 499 789 382 789 m 556 458 q 558 483 558 478 q 531 551 558 528 q 458 574 503 574 q 369 544 407 574 q 314 458 332 515 l 556 458 m 761 940 l 518 824 l 317 940 l 347 1124 l 550 1001 l 793 1124 l 761 940 z "},"Ğ":{"ha":1051,"x_min":51,"x_max":1042,"o":"m 61 492 q 168 749 86 636 q 374 926 250 863 q 644 989 497 989 q 934 900 829 989 q 1042 657 1039 811 l 749 657 q 696 717 733 696 q 601 738 658 738 q 428 671 500 738 q 338 492 357 604 q 331 422 331 450 q 383 281 331 329 q 539 233 436 233 q 767 363 682 233 l 493 363 l 528 558 l 1036 558 l 989 294 q 782 82 917 171 q 471 -7 647 -7 q 246 42 340 -7 q 101 181 151 92 q 51 386 51 269 q 61 492 51 442 m 935 1301 q 833 1108 914 1175 q 640 1040 751 1040 q 488 1092 544 1040 q 432 1239 432 1143 q 438 1301 432 1272 l 442 1326 l 572 1326 q 569 1304 569 1310 q 594 1254 569 1271 q 675 1238 619 1238 q 770 1260 740 1238 q 808 1326 800 1282 l 940 1326 l 935 1301 z "},"ğ":{"ha":944,"x_min":-24,"x_max":933,"o":"m 435 789 q 567 757 514 789 q 642 671 621 725 l 661 779 l 933 779 l 797 8 q 721 -190 778 -101 q 567 -331 664 -278 q 335 -383 469 -383 q 70 -306 164 -383 q -24 -96 -24 -229 l -22 -68 l 246 -68 q 278 -126 249 -106 q 360 -147 308 -147 q 525 8 499 -147 l 543 108 q 438 22 503 54 q 294 -10 374 -10 q 98 72 172 -10 q 24 293 24 153 q 32 390 24 339 q 114 601 54 511 q 258 740 174 692 q 435 789 342 789 m 593 390 q 597 429 597 411 q 565 519 597 488 q 481 551 532 551 q 371 509 419 551 q 310 390 322 467 q 306 350 306 369 q 338 260 306 292 q 422 228 371 228 q 532 271 483 228 q 593 390 581 314 m 851 1097 q 749 903 831 971 q 557 836 668 836 q 405 888 461 836 q 349 1035 349 939 q 354 1097 349 1068 l 358 1122 l 489 1122 q 486 1100 486 1106 q 511 1050 486 1067 q 592 1033 536 1033 q 687 1056 657 1033 q 725 1122 717 1078 l 857 1122 l 851 1097 z "},"Ġ":{"ha":1051,"x_min":51,"x_max":1042,"o":"m 61 492 q 168 749 86 636 q 374 926 250 863 q 644 989 497 989 q 934 900 829 989 q 1042 657 1039 811 l 749 657 q 696 717 733 696 q 601 738 658 738 q 428 671 500 738 q 338 492 357 604 q 331 422 331 450 q 383 281 331 329 q 539 233 436 233 q 767 363 682 233 l 493 363 l 528 558 l 1036 558 l 989 294 q 782 82 917 171 q 471 -7 647 -7 q 246 42 340 -7 q 101 181 151 92 q 51 386 51 269 q 61 492 51 442 m 643 1065 q 576 1090 601 1065 q 550 1154 550 1115 q 590 1248 550 1208 q 682 1288 629 1288 q 750 1263 725 1288 q 775 1196 775 1238 q 736 1103 775 1142 q 643 1065 697 1065 z "},"ġ":{"ha":944,"x_min":-24,"x_max":933,"o":"m 435 789 q 567 757 514 789 q 642 671 621 725 l 661 779 l 933 779 l 797 8 q 721 -190 778 -101 q 567 -331 664 -278 q 335 -383 469 -383 q 70 -306 164 -383 q -24 -96 -24 -229 l -22 -68 l 246 -68 q 278 -126 249 -106 q 360 -147 308 -147 q 525 8 499 -147 l 543 108 q 438 22 503 54 q 294 -10 374 -10 q 98 72 172 -10 q 24 293 24 153 q 32 390 24 339 q 114 601 54 511 q 258 740 174 692 q 435 789 342 789 m 593 390 q 597 429 597 411 q 565 519 597 488 q 481 551 532 551 q 371 509 419 551 q 310 390 322 467 q 306 350 306 369 q 338 260 306 292 q 422 228 371 228 q 532 271 483 228 q 593 390 581 314 m 560 861 q 492 886 518 861 q 467 950 467 911 q 506 1044 467 1004 q 599 1083 546 1083 q 667 1058 642 1083 q 692 992 692 1033 q 653 899 692 938 q 560 861 614 861 z "},"Ģ":{"ha":1056,"x_min":51,"x_max":1042,"o":"m 61 492 q 168 749 86 636 q 374 926 250 863 q 644 989 497 989 q 934 900 829 989 q 1042 657 1039 811 l 749 657 q 696 717 733 696 q 601 738 658 738 q 428 671 500 738 q 338 492 357 604 q 331 422 331 450 q 383 281 331 329 q 539 233 436 233 q 767 363 682 233 l 493 363 l 528 558 l 1036 558 l 989 294 q 782 82 917 171 q 471 -7 647 -7 q 246 42 340 -7 q 101 181 151 92 q 51 386 51 269 q 61 492 51 442 m 546 -53 q 554 -143 554 -99 q 546 -228 554 -189 q 463 -392 528 -329 q 294 -456 399 -456 l 313 -357 q 403 -258 386 -357 l 407 -240 l 313 -240 l 346 -53 l 546 -53 z "},"ģ":{"ha":944,"x_min":-24,"x_max":933,"o":"m 471 832 q 463 917 463 876 q 472 1007 463 956 q 554 1172 490 1108 q 722 1235 618 1235 l 704 1136 q 614 1038 631 1136 l 611 1019 l 704 1019 l 671 832 l 471 832 m 435 789 q 567 757 514 789 q 642 671 621 725 l 661 779 l 933 779 l 797 8 q 721 -190 778 -101 q 567 -331 664 -278 q 335 -383 469 -383 q 70 -306 164 -383 q -24 -96 -24 -229 l -22 -68 l 246 -68 q 278 -126 249 -106 q 360 -147 308 -147 q 525 8 499 -147 l 543 108 q 438 22 503 54 q 294 -10 374 -10 q 98 72 172 -10 q 24 293 24 153 q 32 390 24 339 q 114 601 54 511 q 258 740 174 692 q 435 789 342 789 m 593 390 q 597 429 597 411 q 565 519 597 488 q 481 551 532 551 q 371 509 419 551 q 310 390 322 467 q 306 350 306 369 q 338 260 306 292 q 422 228 371 228 q 532 271 483 228 q 593 390 581 314 z "},"Ĩ":{"ha":428,"x_min":7,"x_max":665,"o":"m 453 979 l 281 0 l 7 0 l 181 979 l 453 979 m 29 1053 q 276 1278 106 1278 q 331 1269 307 1278 q 386 1242 356 1260 q 424 1222 410 1228 q 456 1215 439 1215 q 528 1278 507 1215 l 665 1278 q 418 1054 588 1054 q 364 1063 388 1054 q 307 1090 340 1072 q 269 1110 283 1104 q 238 1117 254 1117 q 165 1053 188 1117 l 29 1053 z "},"ĩ":{"ha":482,"x_min":19,"x_max":656,"o":"m 444 779 l 307 0 l 35 0 l 172 779 l 444 779 m 19 849 q 267 1074 96 1074 q 322 1065 297 1074 q 376 1038 346 1056 q 415 1017 400 1024 q 446 1011 429 1011 q 518 1074 497 1011 l 656 1074 q 408 850 578 850 q 354 859 378 850 q 297 886 331 868 q 259 906 274 900 q 228 913 244 913 q 156 849 178 913 l 19 849 z "},"Ī":{"ha":428,"x_min":7,"x_max":656,"o":"m 453 979 l 281 0 l 7 0 l 181 979 l 453 979 m 656 1256 l 624 1072 l 46 1072 l 78 1256 l 656 1256 z "},"ī":{"ha":482,"x_min":35,"x_max":647,"o":"m 444 779 l 307 0 l 35 0 l 172 779 l 444 779 m 647 1051 l 615 868 l 38 868 l 69 1051 l 647 1051 z "},"Ĭ":{"ha":428,"x_min":7,"x_max":629,"o":"m 453 979 l 281 0 l 7 0 l 181 979 l 453 979 m 624 1301 q 522 1108 603 1175 q 329 1040 440 1040 q 177 1092 233 1040 q 121 1239 121 1143 q 126 1301 121 1272 l 131 1326 l 261 1326 q 258 1304 258 1310 q 283 1254 258 1271 q 364 1238 308 1238 q 459 1260 429 1238 q 497 1326 489 1282 l 629 1326 l 624 1301 z "},"ĭ":{"ha":482,"x_min":35,"x_max":619,"o":"m 444 779 l 307 0 l 35 0 l 172 779 l 444 779 m 614 1097 q 512 903 593 971 q 319 836 431 836 q 167 888 224 836 q 111 1035 111 939 q 117 1097 111 1068 l 121 1122 l 251 1122 q 249 1100 249 1106 q 274 1050 249 1067 q 354 1033 299 1033 q 449 1056 419 1033 q 488 1122 479 1078 l 619 1122 l 614 1097 z "},"Į":{"ha":428,"x_min":-103,"x_max":453,"o":"m 214 -31 q 124 -82 150 -60 q 99 -128 99 -104 q 111 -150 99 -142 q 146 -158 124 -158 q 261 -137 194 -158 l 236 -283 q 86 -306 163 -306 q -52 -271 -1 -306 q -103 -174 -103 -236 q -100 -143 -103 -165 q -67 -65 -92 -101 q 8 7 -42 -28 l 181 979 l 453 979 l 281 0 l 214 -31 z "},"į":{"ha":428,"x_min":-103,"x_max":482,"o":"m 344 1132 q 445 1099 408 1132 q 482 1015 482 1067 q 458 933 482 971 q 390 874 433 896 q 296 851 347 851 q 195 883 232 851 q 158 965 158 915 q 183 1048 158 1010 q 249 1109 207 1086 q 344 1132 292 1132 m 146 779 l 418 779 l 281 0 l 281 -1 l 214 -32 q 124 -83 150 -61 q 99 -129 99 -106 q 111 -151 99 -143 q 146 -160 124 -160 q 261 -139 194 -160 l 236 -285 q 86 -307 163 -307 q -52 -272 -1 -307 q -103 -175 -103 -237 q -100 -144 -103 -167 q -67 -65 -92 -101 q 8 4 -42 -29 l 146 779 z "},"İ":{"ha":428,"x_min":7,"x_max":464,"o":"m 453 979 l 281 0 l 7 0 l 181 979 l 453 979 m 332 1065 q 265 1090 290 1065 q 239 1154 239 1115 q 278 1248 239 1208 q 371 1288 318 1288 q 439 1263 414 1288 q 464 1196 464 1238 q 425 1103 464 1142 q 332 1065 386 1065 z "},"ı":{"ha":482,"x_min":35,"x_max":444,"o":"m 444 779 l 307 0 l 35 0 l 172 779 l 444 779 z "},"Ķ":{"ha":1054,"x_min":7,"x_max":1071,"o":"m 628 503 l 917 0 l 588 0 l 356 431 l 281 0 l 7 0 l 181 979 l 453 979 l 378 556 l 757 979 l 1071 979 l 628 503 m 544 -53 q 553 -137 553 -97 q 544 -228 553 -185 q 462 -392 526 -329 q 294 -456 397 -456 l 311 -357 q 403 -258 385 -357 l 406 -240 l 313 -240 l 346 -53 l 544 -53 z "},"ķ":{"ha":899,"x_min":7,"x_max":960,"o":"m 583 388 l 826 0 l 494 0 l 338 318 l 281 0 l 7 0 l 189 1028 l 463 1028 l 365 475 l 633 779 l 960 779 l 583 388 m 471 -53 q 479 -137 479 -97 q 471 -228 479 -185 q 388 -392 453 -329 q 221 -456 324 -456 l 238 -357 q 329 -258 313 -357 l 333 -240 l 239 -240 l 272 -53 l 471 -53 z "},"Ĺ":{"ha":682,"x_min":7,"x_max":661,"o":"m 318 207 l 622 207 l 585 0 l 7 0 l 181 979 l 453 979 l 318 207 m 625 1172 l 253 1036 l 286 1221 l 661 1378 l 625 1172 z "},"ĺ":{"ha":428,"x_min":7,"x_max":567,"o":"m 463 1028 l 281 0 l 7 0 l 189 1028 l 463 1028 m 531 1217 l 158 1081 l 192 1265 l 567 1422 l 531 1217 z "},"Ļ":{"ha":688,"x_min":7,"x_max":622,"o":"m 318 207 l 622 207 l 585 0 l 7 0 l 181 979 l 453 979 l 318 207 m 407 -53 q 415 -143 415 -99 q 407 -228 415 -189 q 325 -393 389 -331 q 156 -456 261 -456 l 174 -357 q 264 -258 247 -357 l 268 -240 l 174 -240 l 207 -53 l 407 -53 z "},"ļ":{"ha":428,"x_min":-12,"x_max":463,"o":"m 463 1028 l 281 0 l 7 0 l 189 1028 l 463 1028 m 238 -53 q 246 -140 246 -97 q 238 -228 246 -186 q 155 -392 219 -329 q -12 -456 90 -456 l 4 -357 q 96 -258 79 -357 l 100 -240 l 6 -240 l 39 -53 l 238 -53 z "},"Ľ":{"ha":764,"x_min":7,"x_max":800,"o":"m 318 207 l 622 207 l 585 0 l 7 0 l 181 979 l 453 979 l 318 207 m 792 979 q 800 894 800 936 q 790 804 800 856 q 708 638 772 701 q 540 575 644 575 l 558 676 q 617 701 593 676 q 649 774 640 725 l 653 793 l 558 793 l 592 979 l 792 979 z "},"ľ":{"ha":688,"x_min":7,"x_max":751,"o":"m 463 1028 l 281 0 l 7 0 l 189 1028 l 463 1028 m 743 1028 q 751 943 751 985 q 743 853 751 897 q 660 688 725 751 q 493 625 596 625 l 510 725 q 601 821 583 725 l 604 842 l 511 842 l 544 1028 l 743 1028 z "},"Ŀ":{"ha":682,"x_min":7,"x_max":696,"o":"m 181 979 l 453 979 l 318 207 l 622 207 l 585 0 l 7 0 l 181 979 m 563 442 q 497 467 522 442 q 471 532 471 492 q 510 625 471 586 q 601 664 550 664 q 669 638 643 664 q 696 572 696 613 q 656 480 696 518 q 563 442 617 442 z "},"ŀ":{"ha":567,"x_min":7,"x_max":635,"o":"m 189 1028 l 463 1028 l 281 0 l 7 0 l 189 1028 m 501 406 q 435 431 460 406 q 410 496 410 457 q 449 589 410 550 q 540 628 489 628 q 608 602 582 628 q 635 536 635 576 q 594 444 635 483 q 501 406 554 406 z "},"Ł":{"ha":699,"x_min":0,"x_max":642,"o":"m 642 207 l 604 0 l 26 0 l 88 344 l 0 321 l 46 585 l 135 608 l 200 979 l 474 979 l 422 688 l 536 718 l 490 454 l 375 424 l 338 207 l 642 207 z "},"ł":{"ha":482,"x_min":0,"x_max":524,"o":"m 478 450 l 382 424 l 307 0 l 35 0 l 96 346 l 0 319 l 46 583 l 143 610 l 217 1028 l 489 1028 l 429 688 l 524 714 l 478 450 z "},"Ń":{"ha":1063,"x_min":7,"x_max":1088,"o":"m 915 0 l 642 0 l 378 547 l 281 0 l 7 0 l 181 979 l 453 979 l 718 425 l 815 979 l 1088 979 l 915 0 m 838 1172 l 465 1036 l 499 1221 l 874 1378 l 838 1172 z "},"ń":{"ha":953,"x_min":7,"x_max":900,"o":"m 657 786 q 835 720 771 786 q 900 538 900 654 q 892 454 900 499 l 811 0 l 539 0 l 613 418 q 617 456 617 439 q 588 533 617 506 q 508 561 560 561 q 410 525 450 561 q 356 425 369 489 l 281 0 l 7 0 l 146 779 l 418 779 l 399 668 q 511 753 444 721 q 657 786 578 786 m 789 968 l 417 832 l 450 1017 l 825 1174 l 789 968 z "},"Ņ":{"ha":1117,"x_min":7,"x_max":1088,"o":"m 915 0 l 642 0 l 378 547 l 281 0 l 7 0 l 181 979 l 453 979 l 718 425 l 815 979 l 1088 979 l 915 0 m 575 -53 q 585 -143 585 -96 q 576 -228 585 -189 q 493 -393 558 -331 q 324 -456 428 -456 l 342 -357 q 433 -258 415 -357 l 436 -240 l 343 -240 l 375 -53 l 575 -53 z "},"ņ":{"ha":953,"x_min":7,"x_max":900,"o":"m 657 786 q 835 720 771 786 q 900 538 900 654 q 892 454 900 499 l 811 0 l 539 0 l 613 418 q 617 456 617 439 q 588 533 617 506 q 508 561 560 561 q 410 525 450 561 q 356 425 369 489 l 281 0 l 7 0 l 146 779 l 418 779 l 399 668 q 511 753 444 721 q 657 786 578 786 m 519 -53 q 528 -137 528 -97 q 519 -228 528 -185 q 437 -392 501 -329 q 269 -456 372 -456 l 286 -357 q 378 -258 361 -357 l 381 -240 l 288 -240 l 321 -53 l 519 -53 z "},"Ň":{"ha":1063,"x_min":7,"x_max":1088,"o":"m 915 0 l 642 0 l 378 547 l 281 0 l 7 0 l 181 979 l 453 979 l 718 425 l 815 979 l 1088 979 l 915 0 m 886 1144 l 643 1028 l 442 1144 l 472 1328 l 675 1206 l 918 1328 l 886 1144 z "},"ň":{"ha":953,"x_min":7,"x_max":900,"o":"m 657 786 q 835 720 771 786 q 900 538 900 654 q 892 454 900 499 l 811 0 l 539 0 l 613 418 q 617 456 617 439 q 588 533 617 506 q 508 561 560 561 q 410 525 450 561 q 356 425 369 489 l 281 0 l 7 0 l 146 779 l 418 779 l 399 668 q 511 753 444 721 q 657 786 578 786 m 836 940 l 593 824 l 392 940 l 422 1124 l 625 1001 l 868 1124 l 836 940 z "},"Ō":{"ha":1093,"x_min":65,"x_max":1063,"o":"m 481 -10 q 263 42 357 -10 q 117 186 168 93 q 65 400 65 279 q 138 709 65 574 q 342 919 211 844 q 643 994 474 994 q 865 944 769 994 q 1011 801 960 893 q 1063 588 1063 708 q 989 279 1063 415 q 783 67 915 143 q 481 -10 651 -10 m 522 243 q 666 286 604 243 q 760 401 728 329 q 793 556 793 472 q 745 694 793 644 q 608 743 697 743 q 464 701 526 743 q 368 588 401 658 q 335 432 335 517 q 383 294 335 344 q 522 243 432 243 m 988 1257 l 956 1074 l 378 1074 l 410 1257 l 988 1257 z "},"ō":{"ha":883,"x_min":25,"x_max":857,"o":"m 369 -10 q 190 31 268 -10 q 68 144 111 71 q 25 317 25 218 q 88 558 25 450 q 263 728 151 667 q 511 789 374 789 q 691 749 613 789 q 813 634 769 708 q 857 461 857 560 q 793 219 857 326 q 618 51 729 111 q 369 -10 507 -10 m 411 225 q 498 256 460 225 q 556 335 536 286 q 576 435 576 383 q 547 524 576 493 q 469 554 517 554 q 383 524 419 554 q 326 444 346 493 q 306 343 306 396 q 335 255 306 285 q 411 225 364 225 m 847 1061 l 815 878 l 238 878 l 269 1061 l 847 1061 z "},"Ŏ":{"ha":1093,"x_min":65,"x_max":1063,"o":"m 481 -10 q 263 42 357 -10 q 117 186 168 93 q 65 400 65 279 q 138 709 65 574 q 342 919 211 844 q 643 994 474 994 q 865 944 769 994 q 1011 801 960 893 q 1063 588 1063 708 q 989 279 1063 415 q 783 67 915 143 q 481 -10 651 -10 m 522 243 q 666 286 604 243 q 760 401 728 329 q 793 556 793 472 q 745 694 793 644 q 608 743 697 743 q 464 701 526 743 q 368 588 401 658 q 335 432 335 517 q 383 294 335 344 q 522 243 432 243 m 956 1303 q 853 1109 935 1176 q 661 1042 772 1042 q 509 1093 565 1042 q 453 1240 453 1144 q 458 1303 453 1274 l 463 1328 l 593 1328 q 590 1306 590 1311 q 615 1256 590 1272 q 696 1239 640 1239 q 791 1261 761 1239 q 829 1328 821 1283 l 961 1328 l 956 1303 z "},"ŏ":{"ha":883,"x_min":25,"x_max":857,"o":"m 369 -10 q 190 31 268 -10 q 68 144 111 71 q 25 317 25 218 q 88 558 25 450 q 263 728 151 667 q 511 789 374 789 q 691 749 613 789 q 813 634 769 708 q 857 461 857 560 q 793 219 857 326 q 618 51 729 111 q 369 -10 507 -10 m 411 225 q 498 256 460 225 q 556 335 536 286 q 576 435 576 383 q 547 524 576 493 q 469 554 517 554 q 383 524 419 554 q 326 444 346 493 q 306 343 306 396 q 335 255 306 285 q 411 225 364 225 m 815 1107 q 713 913 794 981 q 521 846 632 846 q 369 897 425 846 q 313 1044 313 949 q 318 1107 313 1078 l 322 1132 l 453 1132 q 450 1110 450 1115 q 475 1060 450 1076 q 556 1043 500 1043 q 651 1065 621 1043 q 689 1132 681 1088 l 821 1132 l 815 1107 z "},"Ő":{"ha":1093,"x_min":65,"x_max":1107,"o":"m 481 -10 q 263 42 357 -10 q 117 186 168 93 q 65 400 65 279 q 138 709 65 574 q 342 919 211 844 q 643 994 474 994 q 865 944 769 994 q 1011 801 960 893 q 1063 588 1063 708 q 989 279 1063 415 q 783 67 915 143 q 481 -10 651 -10 m 522 243 q 666 286 604 243 q 760 401 728 329 q 793 556 793 472 q 745 694 793 644 q 608 743 697 743 q 464 701 526 743 q 368 588 401 658 q 335 432 335 517 q 383 294 335 344 q 522 243 432 243 m 581 1040 l 415 1040 l 578 1356 l 789 1356 l 581 1040 m 867 1040 l 701 1040 l 896 1356 l 1107 1356 l 867 1040 z "},"ő":{"ha":883,"x_min":25,"x_max":967,"o":"m 369 -10 q 190 31 268 -10 q 68 144 111 71 q 25 317 25 218 q 88 558 25 450 q 263 728 151 667 q 511 789 374 789 q 691 749 613 789 q 813 634 769 708 q 857 461 857 560 q 793 219 857 326 q 618 51 729 111 q 369 -10 507 -10 m 411 225 q 498 256 460 225 q 556 335 536 286 q 576 435 576 383 q 547 524 576 493 q 469 554 517 554 q 383 524 419 554 q 326 444 346 493 q 306 343 306 396 q 335 255 306 285 q 411 225 364 225 m 440 844 l 275 844 l 438 1160 l 649 1160 l 440 844 m 726 844 l 561 844 l 756 1160 l 967 1160 l 726 844 z "},"Œ":{"ha":1475,"x_min":60,"x_max":1521,"o":"m 1101 600 l 1413 600 l 1376 394 l 1064 394 l 1032 217 l 1386 217 l 1349 0 l 721 0 l 735 75 q 463 -15 625 -11 q 251 35 343 -15 q 110 176 160 85 q 60 386 60 267 q 69 490 60 440 q 178 751 96 636 q 383 931 261 867 q 640 994 504 994 q 778 972 715 994 q 882 906 842 950 l 894 979 l 1521 979 l 1483 763 l 1129 763 l 1101 600 m 349 490 q 342 422 342 451 q 390 285 342 335 q 528 236 439 236 q 704 305 632 236 q 797 490 776 374 q 803 554 803 519 q 754 693 803 643 q 618 743 706 743 q 440 675 513 743 q 349 490 368 607 z "},"œ":{"ha":1432,"x_min":25,"x_max":1381,"o":"m 1047 789 q 1290 708 1200 789 q 1381 485 1381 626 q 1372 400 1381 444 q 1354 336 1365 363 l 842 336 q 839 306 839 314 q 864 232 839 256 q 932 208 889 208 q 1040 269 1000 208 l 1331 269 q 1235 126 1299 189 q 1087 26 1172 63 q 906 -10 1001 -10 q 763 15 826 -10 q 658 88 700 40 q 523 15 597 40 q 369 -10 449 -10 q 119 75 214 -10 q 25 307 25 160 q 32 390 25 354 q 123 601 54 511 q 293 740 192 692 q 511 789 394 789 q 656 764 590 789 q 765 693 721 739 q 897 764 825 739 q 1047 789 968 789 m 1104 458 q 1107 485 1107 478 q 1079 551 1107 528 q 1007 574 1051 574 q 919 544 956 574 q 864 458 882 515 l 1104 458 m 572 390 q 576 435 576 414 q 547 524 576 493 q 469 554 517 554 q 369 512 414 554 q 310 390 324 469 q 306 343 306 365 q 335 255 306 285 q 411 225 364 225 q 512 267 467 225 q 572 390 557 310 z "},"Ŕ":{"ha":918,"x_min":7,"x_max":925,"o":"m 610 979 q 844 910 764 979 q 925 728 925 842 q 919 665 925 693 q 835 490 903 565 q 654 382 767 414 l 807 0 l 504 0 l 374 361 l 344 361 l 281 0 l 7 0 l 181 979 l 610 979 m 378 547 l 513 547 q 640 650 621 547 q 643 674 643 667 q 619 732 643 711 q 547 753 594 753 l 413 753 l 378 547 m 756 1172 l 383 1036 l 417 1221 l 792 1378 l 756 1172 z "},"ŕ":{"ha":621,"x_min":7,"x_max":678,"o":"m 393 638 q 522 746 450 706 q 669 786 594 786 l 619 496 l 543 496 q 408 464 457 496 q 343 353 360 432 l 281 0 l 7 0 l 146 779 l 418 779 l 393 638 m 642 968 l 269 832 l 303 1017 l 678 1174 l 642 968 z "},"Ŗ":{"ha":951,"x_min":7,"x_max":925,"o":"m 610 979 q 844 910 764 979 q 925 728 925 842 q 919 665 925 693 q 835 490 903 565 q 654 382 767 414 l 807 0 l 504 0 l 374 361 l 344 361 l 281 0 l 7 0 l 181 979 l 610 979 m 378 547 l 513 547 q 640 650 621 547 q 643 674 643 667 q 619 732 643 711 q 547 753 594 753 l 413 753 l 378 547 m 493 -53 q 501 -143 501 -99 q 493 -228 501 -189 q 410 -392 475 -329 q 242 -456 346 -456 l 260 -357 q 350 -258 333 -357 l 354 -240 l 260 -240 l 293 -53 l 493 -53 z "},"ŗ":{"ha":621,"x_min":-21,"x_max":669,"o":"m 393 638 q 522 746 450 706 q 669 786 594 786 l 619 496 l 543 496 q 408 464 457 496 q 343 353 360 432 l 281 0 l 7 0 l 146 779 l 418 779 l 393 638 m 231 -53 q 239 -140 239 -97 q 231 -228 239 -186 q 148 -393 213 -331 q -21 -456 83 -456 l -3 -357 q 89 -258 71 -357 l 92 -240 l -3 -240 l 31 -53 l 231 -53 z "},"Ř":{"ha":918,"x_min":7,"x_max":925,"o":"m 610 979 q 844 910 764 979 q 925 728 925 842 q 919 665 925 693 q 835 490 903 565 q 654 382 767 414 l 807 0 l 504 0 l 374 361 l 344 361 l 281 0 l 7 0 l 181 979 l 610 979 m 378 547 l 513 547 q 640 650 621 547 q 643 674 643 667 q 619 732 643 711 q 547 753 594 753 l 413 753 l 378 547 m 803 1144 l 560 1028 l 358 1144 l 389 1328 l 592 1206 l 835 1328 l 803 1144 z "},"ř":{"ha":621,"x_min":7,"x_max":721,"o":"m 393 638 q 522 746 450 706 q 669 786 594 786 l 619 496 l 543 496 q 408 464 457 496 q 343 353 360 432 l 281 0 l 7 0 l 146 779 l 418 779 l 393 638 m 689 940 l 446 824 l 244 940 l 275 1124 l 478 1001 l 721 1124 l 689 940 z "},"Ś":{"ha":878,"x_min":36,"x_max":850,"o":"m 413 -10 q 140 60 243 -10 q 36 265 36 131 q 39 304 36 276 l 326 304 q 346 231 322 257 q 418 204 369 204 q 483 222 458 204 q 507 274 507 240 q 472 338 507 313 q 357 396 436 363 q 226 459 278 429 q 138 541 175 489 q 100 671 100 593 q 150 845 100 772 q 290 956 200 918 q 494 994 379 994 q 679 962 599 994 q 805 868 760 929 q 850 724 850 807 q 849 690 850 701 l 556 690 q 557 710 557 697 q 536 762 557 743 q 479 781 515 781 q 419 762 442 781 q 396 710 396 743 q 431 648 396 674 q 542 588 467 622 q 674 517 622 550 q 764 431 726 485 q 801 297 801 376 q 754 140 801 210 q 619 30 707 69 q 413 -10 532 -10 m 757 1172 l 385 1036 l 418 1221 l 793 1378 l 757 1172 z "},"ś":{"ha":789,"x_min":11,"x_max":732,"o":"m 347 -10 q 174 19 250 -10 q 54 102 97 49 q 11 225 11 156 q 14 263 11 238 l 276 263 q 300 203 275 224 q 369 182 325 182 q 427 196 404 182 q 450 232 450 210 q 421 273 450 258 q 324 310 392 288 q 193 358 244 335 q 103 428 142 382 q 65 546 65 474 q 106 671 65 615 q 222 758 147 726 q 396 789 297 789 q 578 753 501 789 q 694 656 656 718 q 728 517 732 593 l 483 517 q 461 576 485 554 q 393 597 438 597 q 340 583 361 597 q 319 547 319 569 q 349 506 319 521 q 450 467 379 490 q 580 417 528 442 q 669 349 632 393 q 707 238 707 306 q 607 56 707 122 q 347 -10 507 -10 m 679 968 l 307 832 l 340 1017 l 715 1174 l 679 968 z "},"Ş":{"ha":878,"x_min":36,"x_max":850,"o":"m 556 690 q 557 710 557 697 q 536 762 557 743 q 479 781 515 781 q 419 762 442 781 q 396 710 396 743 q 431 648 396 674 q 542 588 467 622 q 674 517 622 550 q 764 431 726 485 q 801 297 801 376 q 762 151 801 217 q 647 43 722 85 q 469 -7 572 1 l 461 -51 q 569 -83 522 -51 q 615 -181 615 -115 q 613 -215 615 -203 q 531 -340 597 -300 q 382 -381 464 -381 l 156 -381 l 181 -237 l 376 -237 q 411 -230 397 -237 q 426 -208 425 -222 q 386 -179 432 -179 l 278 -179 l 310 -3 q 109 85 182 18 q 36 265 36 153 q 39 304 36 276 l 326 304 q 346 231 322 257 q 418 204 369 204 q 483 222 458 204 q 507 274 507 240 q 472 338 507 313 q 357 396 436 363 q 226 459 278 429 q 138 541 175 489 q 100 671 100 593 q 150 845 100 772 q 290 956 200 918 q 494 994 379 994 q 679 962 599 994 q 805 868 760 929 q 850 724 850 807 q 849 690 850 701 l 556 690 z "},"ş":{"ha":789,"x_min":11,"x_max":732,"o":"m 483 517 q 461 576 485 554 q 393 597 438 597 q 340 583 361 597 q 319 547 319 569 q 349 506 319 521 q 450 467 379 490 q 580 417 528 442 q 669 349 632 393 q 707 238 707 306 q 631 75 707 138 q 429 -4 556 13 l 421 -51 q 528 -83 482 -51 q 575 -181 575 -115 q 572 -215 575 -203 q 490 -340 557 -300 q 342 -381 424 -381 l 115 -381 l 140 -237 l 336 -237 q 371 -230 357 -237 q 386 -208 385 -222 q 346 -179 392 -179 l 238 -179 l 269 -4 q 82 73 153 11 q 11 225 11 135 q 14 263 11 250 l 276 263 q 300 203 275 224 q 369 182 325 182 q 427 196 404 182 q 450 232 450 210 q 421 273 450 258 q 324 310 392 288 q 193 358 244 335 q 103 428 142 382 q 65 546 65 474 q 106 671 65 615 q 222 758 147 726 q 396 789 297 789 q 578 753 501 789 q 694 656 656 718 q 728 517 732 593 l 483 517 z "},"Š":{"ha":878,"x_min":36,"x_max":850,"o":"m 413 -10 q 140 60 243 -10 q 36 265 36 131 q 39 304 36 276 l 326 304 q 346 231 322 257 q 418 204 369 204 q 483 222 458 204 q 507 274 507 240 q 472 338 507 313 q 357 396 436 363 q 226 459 278 429 q 138 541 175 489 q 100 671 100 593 q 150 845 100 772 q 290 956 200 918 q 494 994 379 994 q 679 962 599 994 q 805 868 760 929 q 850 724 850 807 q 849 690 850 701 l 556 690 q 557 710 557 697 q 536 762 557 743 q 479 781 515 781 q 419 762 442 781 q 396 710 396 743 q 431 648 396 674 q 542 588 467 622 q 674 517 622 550 q 764 431 726 485 q 801 297 801 376 q 754 140 801 210 q 619 30 707 69 q 413 -10 532 -10 m 804 1144 l 561 1028 l 360 1144 l 390 1328 l 593 1206 l 836 1328 l 804 1144 z "},"š":{"ha":789,"x_min":11,"x_max":758,"o":"m 347 -10 q 174 19 250 -10 q 54 102 97 49 q 11 225 11 156 q 14 263 11 238 l 276 263 q 300 203 275 224 q 369 182 325 182 q 427 196 404 182 q 450 232 450 210 q 421 273 450 258 q 324 310 392 288 q 193 358 244 335 q 103 428 142 382 q 65 546 65 474 q 106 671 65 615 q 222 758 147 726 q 396 789 297 789 q 578 753 501 789 q 694 656 656 718 q 728 517 732 593 l 483 517 q 461 576 485 554 q 393 597 438 597 q 340 583 361 597 q 319 547 319 569 q 349 506 319 521 q 450 467 379 490 q 580 417 528 442 q 669 349 632 393 q 707 238 707 306 q 607 56 707 122 q 347 -10 507 -10 m 726 940 l 483 824 l 282 940 l 313 1124 l 515 1001 l 758 1124 l 726 940 z "},"Ţ":{"ha":839,"x_min":88,"x_max":918,"o":"m 918 979 l 879 763 l 619 763 l 485 0 l 435 0 l 425 -51 q 533 -83 486 -51 q 579 -181 579 -115 q 576 -215 579 -203 q 494 -340 561 -300 q 346 -381 428 -381 l 119 -381 l 144 -237 l 340 -237 q 375 -230 361 -237 q 390 -208 389 -222 q 350 -179 396 -179 l 242 -179 l 275 0 l 211 0 l 346 763 l 88 763 l 126 979 l 918 979 z "},"ţ":{"ha":585,"x_min":22,"x_max":603,"o":"m 375 292 q 374 275 374 285 q 387 242 374 253 q 431 232 400 232 l 510 232 l 468 0 l 349 0 l 338 0 l 329 -44 q 436 -76 389 -44 q 483 -172 483 -107 q 479 -208 483 -190 q 399 -333 465 -293 q 250 -374 332 -374 l 22 -374 l 49 -231 l 243 -231 q 281 -222 267 -231 q 294 -196 294 -212 q 254 -172 294 -172 l 146 -172 l 182 36 q 96 214 96 89 q 103 296 96 260 l 149 553 l 53 553 l 93 779 l 189 779 l 222 968 l 496 968 l 463 779 l 603 779 l 563 553 l 422 553 l 375 292 z "},"Ť":{"ha":839,"x_min":88,"x_max":918,"o":"m 918 979 l 879 763 l 619 763 l 485 0 l 211 0 l 346 763 l 88 763 l 126 979 l 918 979 m 768 1144 l 525 1028 l 324 1144 l 354 1328 l 557 1206 l 800 1328 l 768 1144 z "},"ť":{"ha":586,"x_min":53,"x_max":801,"o":"m 792 1201 q 801 1106 801 1151 q 796 1040 801 1069 q 717 894 779 949 q 549 840 654 840 l 567 940 q 649 992 640 940 l 653 1015 l 560 1015 l 593 1201 l 792 1201 m 463 779 l 603 779 l 563 553 l 422 553 l 375 292 q 374 275 374 285 q 387 242 374 253 q 431 232 400 232 l 510 232 l 468 0 l 349 0 q 94 214 94 0 q 103 296 94 250 l 149 553 l 53 553 l 93 779 l 189 779 l 222 968 l 496 968 l 463 779 z "},"Ũ":{"ha":989,"x_min":67,"x_max":1019,"o":"m 447 979 l 349 411 q 344 364 344 386 q 374 278 344 308 q 467 247 404 247 q 588 290 542 247 q 647 411 633 333 l 747 979 l 1019 979 l 919 411 q 824 178 896 272 q 647 37 751 83 q 419 -10 543 -10 q 163 74 260 -10 q 67 313 67 157 q 76 411 67 363 l 176 979 l 447 979 m 310 1053 q 557 1278 386 1278 q 612 1269 588 1278 q 667 1242 636 1260 q 705 1222 690 1228 q 736 1215 719 1215 q 808 1278 788 1215 l 946 1278 q 699 1054 868 1054 q 644 1063 668 1054 q 588 1090 621 1072 q 549 1110 564 1104 q 518 1117 535 1117 q 446 1053 468 1117 l 310 1053 z "},"ũ":{"ha":953,"x_min":51,"x_max":943,"o":"m 943 779 l 804 0 l 532 0 l 551 111 q 440 26 506 58 q 294 -7 374 -7 q 115 58 179 -7 q 51 240 51 124 q 60 326 51 281 l 139 779 l 411 779 l 338 361 q 333 325 333 343 q 363 247 333 275 q 442 218 392 218 q 540 254 500 218 q 594 354 581 290 l 669 779 l 943 779 m 256 849 q 503 1074 332 1074 q 558 1065 533 1074 q 613 1038 582 1056 q 651 1017 636 1024 q 682 1011 665 1011 q 754 1074 733 1011 l 892 1074 q 644 850 814 850 q 590 859 614 850 q 533 886 567 868 q 495 906 510 900 q 464 913 481 913 q 392 849 414 913 l 256 849 z "},"Ū":{"ha":989,"x_min":67,"x_max":1019,"o":"m 447 979 l 349 411 q 344 364 344 386 q 374 278 344 308 q 467 247 404 247 q 588 290 542 247 q 647 411 633 333 l 747 979 l 1019 979 l 919 411 q 824 178 896 272 q 647 37 751 83 q 419 -10 543 -10 q 163 74 260 -10 q 67 313 67 157 q 76 411 67 363 l 176 979 l 447 979 m 936 1256 l 904 1072 l 326 1072 l 358 1256 l 936 1256 z "},"ū":{"ha":953,"x_min":51,"x_max":943,"o":"m 943 779 l 804 0 l 532 0 l 551 111 q 440 26 506 58 q 294 -7 374 -7 q 115 58 179 -7 q 51 240 51 124 q 60 326 51 281 l 139 779 l 411 779 l 338 361 q 333 325 333 343 q 363 247 333 275 q 442 218 392 218 q 540 254 500 218 q 594 354 581 290 l 669 779 l 943 779 m 882 1051 l 850 868 l 272 868 l 304 1051 l 882 1051 z "},"Ŭ":{"ha":989,"x_min":67,"x_max":1019,"o":"m 447 979 l 349 411 q 344 364 344 386 q 374 278 344 308 q 467 247 404 247 q 588 290 542 247 q 647 411 633 333 l 747 979 l 1019 979 l 919 411 q 824 178 896 272 q 647 37 751 83 q 419 -10 543 -10 q 163 74 260 -10 q 67 313 67 157 q 76 411 67 363 l 176 979 l 447 979 m 903 1301 q 801 1108 882 1175 q 608 1040 719 1040 q 456 1092 513 1040 q 400 1239 400 1143 q 406 1301 400 1272 l 410 1326 l 540 1326 q 538 1304 538 1310 q 563 1254 538 1271 q 643 1238 588 1238 q 738 1260 708 1238 q 776 1326 768 1282 l 908 1326 l 903 1301 z "},"ŭ":{"ha":953,"x_min":51,"x_max":943,"o":"m 943 779 l 804 0 l 532 0 l 551 111 q 440 26 506 58 q 294 -7 374 -7 q 115 58 179 -7 q 51 240 51 124 q 60 326 51 281 l 139 779 l 411 779 l 338 361 q 333 325 333 343 q 363 247 333 275 q 442 218 392 218 q 540 254 500 218 q 594 354 581 290 l 669 779 l 943 779 m 849 1097 q 747 903 828 971 q 554 836 665 836 q 402 888 458 836 q 346 1035 346 939 q 351 1097 346 1068 l 356 1122 l 486 1122 q 483 1100 483 1106 q 508 1050 483 1067 q 589 1033 533 1033 q 684 1056 654 1033 q 722 1122 714 1078 l 854 1122 l 849 1097 z "},"Ů":{"ha":989,"x_min":67,"x_max":1019,"o":"m 447 979 l 349 411 q 344 364 344 386 q 374 278 344 308 q 467 247 404 247 q 588 290 542 247 q 647 411 633 333 l 747 979 l 1019 979 l 919 411 q 824 178 896 272 q 647 37 751 83 q 419 -10 543 -10 q 163 74 260 -10 q 67 313 67 157 q 76 411 67 363 l 176 979 l 447 979 m 463 1207 q 535 1335 476 1288 q 669 1383 594 1383 q 776 1347 735 1383 q 818 1246 818 1310 q 789 1133 818 1182 q 711 1058 760 1085 q 608 1032 663 1032 q 501 1070 543 1032 q 460 1172 460 1108 q 463 1207 460 1182 m 706 1222 q 690 1260 706 1246 q 650 1275 675 1275 q 600 1257 622 1275 q 572 1208 578 1239 q 571 1196 571 1204 q 586 1156 571 1171 q 626 1142 601 1142 q 682 1165 658 1142 q 706 1222 706 1188 z "},"ů":{"ha":953,"x_min":51,"x_max":943,"o":"m 943 779 l 804 0 l 532 0 l 551 111 q 440 26 506 58 q 294 -7 374 -7 q 115 58 179 -7 q 51 240 51 124 q 60 326 51 281 l 139 779 l 411 779 l 338 361 q 333 325 333 343 q 363 247 333 275 q 442 218 392 218 q 540 254 500 218 q 594 354 581 290 l 669 779 l 943 779 m 408 1003 q 481 1131 422 1083 q 615 1179 540 1179 q 722 1142 681 1179 q 764 1042 764 1106 q 735 929 764 978 q 657 854 706 881 q 554 828 608 828 q 447 866 489 828 q 406 968 406 904 q 408 1003 406 978 m 651 1018 q 636 1056 651 1042 q 596 1071 621 1071 q 546 1053 568 1071 q 518 1004 524 1035 q 517 992 517 1000 q 532 952 517 967 q 572 938 547 938 q 628 960 604 938 q 651 1018 651 983 z "},"Ű":{"ha":989,"x_min":67,"x_max":1056,"o":"m 447 979 l 349 411 q 344 364 344 386 q 374 278 344 308 q 467 247 404 247 q 588 290 542 247 q 647 411 633 333 l 747 979 l 1019 979 l 919 411 q 824 178 896 272 q 647 37 751 83 q 419 -10 543 -10 q 163 74 260 -10 q 67 313 67 157 q 76 411 67 363 l 176 979 l 447 979 m 529 1039 l 364 1039 l 526 1354 l 738 1354 l 529 1039 m 815 1039 l 650 1039 l 844 1354 l 1056 1354 l 815 1039 z "},"ű":{"ha":953,"x_min":51,"x_max":1000,"o":"m 943 779 l 804 0 l 532 0 l 551 111 q 440 26 506 58 q 294 -7 374 -7 q 115 58 179 -7 q 51 240 51 124 q 60 326 51 281 l 139 779 l 411 779 l 338 361 q 333 325 333 343 q 363 247 333 275 q 442 218 392 218 q 540 254 500 218 q 594 354 581 290 l 669 779 l 943 779 m 474 835 l 308 835 l 471 1150 l 682 1150 l 474 835 m 760 835 l 594 835 l 789 1150 l 1000 1150 l 760 835 z "},"Ų":{"ha":989,"x_min":67,"x_max":1019,"o":"m 1019 979 l 919 411 q 789 138 889 242 q 544 3 689 35 l 478 -28 q 388 -79 414 -57 q 363 -125 363 -101 q 375 -147 363 -139 q 410 -156 388 -156 q 525 -135 458 -156 l 500 -281 q 350 -303 426 -303 q 212 -268 263 -303 q 161 -171 161 -233 q 164 -140 161 -162 q 198 -60 172 -97 q 275 11 224 -24 q 122 119 178 42 q 67 313 67 196 q 76 411 67 363 l 176 979 l 447 979 l 349 411 q 344 364 344 386 q 374 278 344 308 q 467 247 404 247 q 588 290 542 247 q 647 411 633 333 l 747 979 l 1019 979 z "},"ų":{"ha":953,"x_min":51,"x_max":943,"o":"m 804 0 l 803 0 l 804 -4 l 738 -35 q 648 -86 674 -64 q 622 -132 622 -108 q 635 -154 622 -146 q 669 -162 647 -162 q 785 -142 718 -162 l 760 -287 q 610 -310 686 -310 q 472 -275 522 -310 q 421 -178 421 -240 q 424 -147 421 -169 q 457 -69 432 -106 q 532 3 482 -32 l 551 111 q 440 26 506 58 q 294 -7 374 -7 q 115 58 179 -7 q 51 240 51 124 q 60 326 51 281 l 139 779 l 411 779 l 338 361 q 333 325 333 343 q 363 247 333 275 q 442 218 392 218 q 540 254 500 218 q 594 354 581 290 l 669 779 l 943 779 l 804 0 z "},"Ŵ":{"ha":1494,"x_min":140,"x_max":1560,"o":"m 1560 979 l 1147 0 l 813 0 l 783 601 l 539 0 l 204 0 l 140 979 l 435 979 l 432 310 l 703 979 l 1001 979 l 1033 313 l 1265 979 l 1560 979 m 843 1146 l 600 1025 l 631 1207 l 875 1325 l 1076 1207 l 1044 1025 l 843 1146 z "},"ŵ":{"ha":1229,"x_min":69,"x_max":1296,"o":"m 1296 779 l 960 0 l 656 0 l 631 472 l 435 0 l 129 0 l 69 779 l 342 779 l 338 263 l 544 779 l 835 779 l 863 260 l 1042 779 l 1296 779 m 713 944 l 469 824 l 500 1006 l 744 1124 l 946 1006 l 914 824 l 713 944 z "},"Ŷ":{"ha":974,"x_min":108,"x_max":1071,"o":"m 1071 979 l 608 311 l 553 0 l 281 0 l 335 311 l 108 979 l 419 979 l 525 600 l 764 979 l 1071 979 m 621 1149 l 378 1028 l 408 1210 l 653 1328 l 854 1210 l 822 1028 l 621 1149 z "},"ŷ":{"ha":910,"x_min":-8,"x_max":983,"o":"m 364 779 l 449 338 l 685 779 l 983 779 l 288 -371 l -8 -371 l 249 33 l 61 779 l 364 779 m 551 944 l 308 824 l 339 1006 l 583 1124 l 785 1006 l 753 824 l 551 944 z "},"Ÿ":{"ha":974,"x_min":108,"x_max":1071,"o":"m 1071 979 l 608 311 l 553 0 l 281 0 l 335 311 l 108 979 l 419 979 l 525 600 l 764 979 l 1071 979 m 458 1065 q 391 1090 417 1065 q 365 1154 365 1115 q 405 1249 365 1210 q 497 1288 444 1288 q 565 1263 540 1288 q 590 1196 590 1238 q 551 1103 590 1142 q 458 1065 511 1065 m 753 1065 q 686 1090 713 1065 q 660 1154 660 1115 q 699 1249 660 1210 q 792 1288 739 1288 q 860 1262 835 1288 q 886 1196 886 1236 q 847 1103 886 1142 q 753 1065 807 1065 z "},"Ź":{"ha":851,"x_min":0,"x_max":885,"o":"m 343 221 l 750 221 l 713 0 l 0 0 l 36 207 l 536 760 l 133 760 l 172 979 l 885 979 l 849 772 l 343 221 m 733 1172 l 361 1036 l 394 1221 l 769 1378 l 733 1172 z "},"ź":{"ha":704,"x_min":-35,"x_max":725,"o":"m 307 226 l 639 226 l 599 0 l -35 0 l 4 215 l 374 553 l 67 553 l 107 779 l 725 779 l 688 564 l 307 226 m 631 968 l 258 832 l 292 1017 l 667 1174 l 631 968 z "},"Ż":{"ha":851,"x_min":0,"x_max":885,"o":"m 343 221 l 750 221 l 713 0 l 0 0 l 36 207 l 536 760 l 133 760 l 172 979 l 885 979 l 849 772 l 343 221 m 543 1065 q 476 1090 501 1065 q 450 1154 450 1115 q 490 1248 450 1208 q 582 1288 529 1288 q 650 1263 625 1288 q 675 1196 675 1238 q 636 1103 675 1142 q 543 1065 597 1065 z "},"ż":{"ha":704,"x_min":-35,"x_max":725,"o":"m 307 226 l 639 226 l 599 0 l -35 0 l 4 215 l 374 553 l 67 553 l 107 779 l 725 779 l 688 564 l 307 226 m 440 861 q 373 886 399 861 q 347 950 347 911 q 387 1044 347 1004 q 479 1083 426 1083 q 547 1058 522 1083 q 572 992 572 1033 q 533 899 572 938 q 440 861 494 861 z "},"Ž":{"ha":851,"x_min":0,"x_max":885,"o":"m 343 221 l 750 221 l 713 0 l 0 0 l 36 207 l 536 760 l 133 760 l 172 979 l 885 979 l 849 772 l 343 221 m 781 1144 l 538 1028 l 336 1144 l 367 1328 l 569 1206 l 813 1328 l 781 1144 z "},"ž":{"ha":704,"x_min":-35,"x_max":725,"o":"m 307 226 l 639 226 l 599 0 l -35 0 l 4 215 l 374 553 l 67 553 l 107 779 l 725 779 l 688 564 l 307 226 m 678 940 l 435 824 l 233 940 l 264 1124 l 467 1001 l 710 1124 l 678 940 z "},"Ə":{"ha":1078,"x_min":57,"x_max":1054,"o":"m 638 1003 q 856 951 761 1003 q 1002 808 950 899 q 1054 604 1054 718 q 978 293 1054 435 q 768 69 903 151 q 464 -12 633 -12 q 252 39 344 -12 q 108 181 160 90 q 57 386 57 272 q 86 563 57 479 l 775 563 q 776 592 776 572 q 730 713 776 668 q 604 758 683 758 q 485 728 540 758 q 404 647 429 699 l 114 647 q 316 906 175 810 q 638 1003 457 1003 m 501 239 q 653 283 585 239 q 746 406 722 328 l 333 406 q 332 385 332 399 q 378 278 332 317 q 501 239 425 239 z "},"ƒ":{"ha":469,"x_min":-232,"x_max":629,"o":"m 565 863 q 492 848 518 863 q 457 797 467 833 l 451 779 l 551 779 l 488 553 l 388 553 l 197 -125 q 55 -339 154 -278 q -190 -400 -44 -400 l -232 -400 l -169 -168 l -124 -168 q -94 -157 -106 -168 q -76 -125 -82 -146 l 115 553 l 50 553 l 114 779 l 179 779 l 185 797 q 336 1023 228 951 q 629 1094 444 1094 l 565 863 z "},"Ǽ":{"ha":1349,"x_min":-67,"x_max":1393,"o":"m 1013 764 l 985 604 l 1286 604 l 1250 399 l 949 399 l 915 217 l 1258 217 l 1221 0 l 604 0 l 631 150 l 329 150 l 231 0 l -67 0 l 592 979 l 1393 979 l 1356 764 l 1013 764 m 668 356 l 742 772 l 465 356 l 668 356 m 961 1169 l 589 1033 l 622 1218 l 997 1375 l 961 1169 z "},"ǽ":{"ha":1475,"x_min":24,"x_max":1450,"o":"m 1172 789 q 1376 710 1301 789 q 1450 494 1450 632 q 1442 400 1450 450 q 1424 336 1435 363 l 865 336 q 894 237 863 268 q 979 206 925 206 q 1111 269 1071 206 l 1400 269 q 1252 68 1351 146 q 1032 -10 1153 -10 q 892 22 949 -10 q 814 108 836 53 l 794 0 l 524 0 l 544 108 q 437 22 501 53 q 294 -10 372 -10 q 98 72 172 -10 q 24 293 24 153 q 32 390 24 339 q 114 601 54 511 q 258 740 174 692 q 438 789 343 789 q 567 758 515 789 q 643 672 619 728 l 663 779 l 932 779 l 913 672 q 1172 789 1004 789 m 1175 458 q 1176 478 1176 465 q 1142 549 1176 524 q 1051 574 1107 574 q 952 546 996 574 q 886 458 908 518 l 1175 458 m 593 390 q 597 429 597 411 q 565 519 597 488 q 481 551 532 551 q 371 509 419 551 q 310 390 322 467 q 306 350 306 369 q 338 260 306 292 q 422 228 371 228 q 532 271 483 228 q 593 390 581 314 m 1032 968 l 660 832 l 693 1017 l 1068 1174 l 1032 968 z "},"Ș":{"ha":925,"x_min":36,"x_max":850,"o":"m 413 -10 q 140 60 243 -10 q 36 265 36 131 q 39 304 36 276 l 326 304 q 346 231 322 257 q 418 204 369 204 q 483 222 458 204 q 507 274 507 240 q 472 338 507 313 q 357 396 436 363 q 226 459 278 429 q 138 541 175 489 q 100 671 100 593 q 150 845 100 772 q 290 956 200 918 q 494 994 379 994 q 679 962 599 994 q 805 868 760 929 q 850 724 850 807 q 849 690 850 701 l 556 690 q 557 710 557 697 q 536 762 557 743 q 479 781 515 781 q 419 762 442 781 q 396 710 396 743 q 431 648 396 674 q 542 588 467 622 q 674 517 622 550 q 764 431 726 485 q 801 297 801 376 q 754 140 801 210 q 619 30 707 69 q 413 -10 532 -10 m 481 -53 q 490 -143 490 -96 q 482 -228 490 -189 q 399 -393 464 -331 q 229 -456 333 -456 l 247 -357 q 339 -258 321 -357 l 342 -240 l 249 -240 l 282 -53 l 481 -53 z "},"ș":{"ha":789,"x_min":11,"x_max":732,"o":"m 347 -10 q 174 19 250 -10 q 54 102 97 49 q 11 225 11 156 q 14 263 11 238 l 276 263 q 300 203 275 224 q 369 182 325 182 q 427 196 404 182 q 450 232 450 210 q 421 273 450 258 q 324 310 392 288 q 193 358 244 335 q 103 428 142 382 q 65 546 65 474 q 106 671 65 615 q 222 758 147 726 q 396 789 297 789 q 578 753 501 789 q 694 656 656 718 q 728 517 732 593 l 483 517 q 461 576 485 554 q 393 597 438 597 q 340 583 361 597 q 319 547 319 569 q 349 506 319 521 q 450 467 379 490 q 580 417 528 442 q 669 349 632 393 q 707 238 707 306 q 607 56 707 122 q 347 -10 507 -10 m 411 -53 q 419 -140 419 -97 q 411 -228 419 -186 q 328 -393 393 -331 q 160 -456 264 -456 l 178 -357 q 269 -258 251 -357 l 272 -240 l 178 -240 l 211 -53 l 411 -53 z "},"Ț":{"ha":839,"x_min":88,"x_max":918,"o":"m 918 979 l 879 763 l 619 763 l 485 0 l 211 0 l 346 763 l 88 763 l 126 979 l 918 979 m 438 -53 q 446 -137 446 -97 q 438 -228 446 -185 q 355 -392 419 -329 q 188 -456 290 -456 l 204 -357 q 296 -258 279 -357 l 299 -240 l 206 -240 l 239 -53 l 438 -53 z "},"ț":{"ha":585,"x_min":53,"x_max":603,"o":"m 375 292 q 374 275 374 285 q 387 242 374 253 q 431 232 400 232 l 510 232 l 468 0 l 349 0 q 94 214 94 0 q 103 296 94 250 l 149 553 l 53 553 l 93 779 l 189 779 l 222 968 l 496 968 l 463 779 l 603 779 l 563 553 l 422 553 l 375 292 m 319 -53 q 329 -143 329 -96 q 321 -228 329 -189 q 238 -393 303 -331 q 68 -456 172 -456 l 86 -357 q 178 -258 160 -357 l 181 -240 l 88 -240 l 121 -53 l 319 -53 z "},"ə":{"ha":856,"x_min":25,"x_max":832,"o":"m 499 789 q 742 706 651 789 q 832 476 832 622 q 824 389 832 435 q 735 177 801 267 q 572 39 669 88 q 357 -10 474 -10 q 115 72 204 -10 q 25 296 25 154 q 32 379 25 343 q 49 443 40 424 l 564 443 q 565 468 565 451 q 540 546 565 521 q 471 571 514 571 q 363 510 403 571 l 74 510 q 169 653 106 590 q 317 753 232 717 q 499 789 403 789 m 397 206 q 486 235 449 206 q 542 321 524 264 l 300 321 q 297 296 297 301 q 325 228 297 251 q 397 206 353 206 z "},"ʼ":{"ha":481,"x_min":119,"x_max":529,"o":"m 254 979 l 529 979 l 300 588 l 119 588 l 254 979 z "},"ˆ":{"ha":472,"x_min":90,"x_max":567,"o":"m 333 944 l 90 824 l 121 1006 l 365 1124 l 567 1006 l 535 824 l 333 944 z "},"ˇ":{"ha":472,"x_min":111,"x_max":588,"o":"m 556 940 l 313 824 l 111 940 l 142 1124 l 344 1001 l 588 1124 l 556 940 z "},"ˉ":{"ha":606,"x_min":97,"x_max":707,"o":"m 707 1051 l 675 868 l 97 868 l 129 1051 l 707 1051 z "},"˘":{"ha":525,"x_min":132,"x_max":640,"o":"m 635 1097 q 533 903 614 971 q 340 836 451 836 q 188 888 244 836 q 132 1035 132 939 q 138 1097 132 1068 l 142 1122 l 272 1122 q 269 1100 269 1106 q 294 1050 269 1067 q 375 1033 319 1033 q 470 1056 440 1033 q 508 1122 500 1078 l 640 1122 l 635 1097 z "},"˙":{"ha":250,"x_min":114,"x_max":339,"o":"m 207 861 q 140 886 165 861 q 114 950 114 911 q 153 1044 114 1004 q 246 1083 193 1083 q 314 1058 289 1083 q 339 992 339 1033 q 300 899 339 938 q 207 861 261 861 z "},"˚":{"ha":378,"x_min":118,"x_max":476,"o":"m 121 1003 q 194 1131 135 1083 q 328 1179 253 1179 q 435 1142 393 1179 q 476 1042 476 1106 q 447 929 476 978 q 369 854 418 881 q 267 828 321 828 q 160 866 201 828 q 118 968 118 904 q 121 1003 118 978 m 364 1018 q 349 1056 364 1042 q 308 1071 333 1071 q 258 1053 281 1071 q 231 1004 236 1035 q 229 992 229 1000 q 244 952 229 967 q 285 938 260 938 q 340 960 317 938 q 364 1018 364 983 z "},"˛":{"ha":397,"x_min":-75,"x_max":308,"o":"m 308 0 l 242 -31 q 152 -82 178 -60 q 126 -128 126 -104 q 139 -150 126 -142 q 174 -158 151 -158 q 289 -137 222 -158 l 264 -283 q 114 -306 190 -306 q -24 -271 26 -306 q -75 -174 -75 -236 q -72 -143 -75 -165 q 4 -17 -60 -74 q 218 97 68 39 l 275 119 l 308 0 z "},"˜":{"ha":603,"x_min":83,"x_max":719,"o":"m 83 849 q 331 1074 160 1074 q 385 1065 361 1074 q 440 1038 410 1056 q 478 1017 464 1024 q 510 1011 493 1011 q 582 1074 561 1011 l 719 1074 q 472 850 642 850 q 418 859 442 850 q 361 886 394 868 q 323 906 338 900 q 292 913 308 913 q 219 849 242 913 l 83 849 z "},"˝":{"ha":664,"x_min":92,"x_max":783,"o":"m 257 835 l 92 835 l 254 1150 l 465 1150 l 257 835 m 543 835 l 378 835 l 572 1150 l 783 1150 l 543 835 z "},"π":{"ha":983,"x_min":44,"x_max":1033,"o":"m 1033 779 l 997 574 l 903 574 l 801 0 l 529 0 l 629 574 l 418 574 l 318 0 l 44 0 l 146 574 l 51 574 l 89 779 l 1033 779 z "},"Ẁ":{"ha":1494,"x_min":140,"x_max":1560,"o":"m 1560 979 l 1147 0 l 813 0 l 783 601 l 539 0 l 204 0 l 140 979 l 435 979 l 432 310 l 703 979 l 1001 979 l 1033 313 l 1265 979 l 1560 979 m 1018 1217 l 985 1032 l 663 1168 l 699 1374 l 1018 1217 z "},"ẁ":{"ha":1229,"x_min":69,"x_max":1296,"o":"m 1296 779 l 960 0 l 656 0 l 631 472 l 435 0 l 129 0 l 69 779 l 342 779 l 338 263 l 544 779 l 835 779 l 863 260 l 1042 779 l 1296 779 m 882 1017 l 849 832 l 526 968 l 563 1174 l 882 1017 z "},"Ẃ":{"ha":1494,"x_min":140,"x_max":1560,"o":"m 1560 979 l 1147 0 l 813 0 l 783 601 l 539 0 l 204 0 l 140 979 l 435 979 l 432 310 l 703 979 l 1001 979 l 1033 313 l 1265 979 l 1560 979 m 1039 1169 l 667 1033 l 700 1218 l 1075 1375 l 1039 1169 z "},"ẃ":{"ha":1229,"x_min":69,"x_max":1296,"o":"m 1296 779 l 960 0 l 656 0 l 631 472 l 435 0 l 129 0 l 69 779 l 342 779 l 338 263 l 544 779 l 835 779 l 863 260 l 1042 779 l 1296 779 m 908 968 l 536 832 l 569 1017 l 944 1174 l 908 968 z "},"Ẅ":{"ha":1494,"x_min":140,"x_max":1560,"o":"m 1560 979 l 1147 0 l 813 0 l 783 601 l 539 0 l 204 0 l 140 979 l 435 979 l 432 310 l 703 979 l 1001 979 l 1033 313 l 1265 979 l 1560 979 m 681 1063 q 613 1088 639 1063 q 588 1151 588 1113 q 627 1246 588 1207 q 719 1285 667 1285 q 788 1260 763 1285 q 813 1193 813 1235 q 773 1101 813 1139 q 681 1063 733 1063 m 975 1063 q 908 1088 935 1063 q 882 1151 882 1113 q 922 1246 882 1207 q 1014 1285 961 1285 q 1083 1259 1057 1285 q 1108 1193 1108 1233 q 1069 1101 1108 1139 q 975 1063 1029 1063 z "},"ẅ":{"ha":1229,"x_min":69,"x_max":1296,"o":"m 1296 779 l 960 0 l 656 0 l 631 472 l 435 0 l 129 0 l 69 779 l 342 779 l 338 263 l 544 779 l 835 779 l 863 260 l 1042 779 l 1296 779 m 550 861 q 483 886 508 861 q 457 950 457 911 q 497 1044 457 1006 q 589 1083 536 1083 q 657 1058 632 1083 q 682 992 682 1033 q 642 899 682 938 q 550 861 603 861 m 844 861 q 778 886 804 861 q 751 950 751 911 q 791 1044 751 1006 q 883 1083 831 1083 q 952 1058 926 1083 q 978 992 978 1032 q 938 899 978 938 q 844 861 899 861 z "},"Ẽ":{"ha":761,"x_min":7,"x_max":836,"o":"m 415 764 l 388 601 l 700 601 l 663 394 l 350 394 l 318 217 l 672 217 l 635 0 l 7 0 l 181 979 l 807 979 l 769 764 l 415 764 m 200 1053 q 447 1278 276 1278 q 502 1269 478 1278 q 557 1242 526 1260 q 595 1222 581 1228 q 626 1215 610 1215 q 699 1278 678 1215 l 836 1278 q 589 1054 758 1054 q 535 1063 558 1054 q 478 1090 511 1072 q 440 1110 454 1104 q 408 1117 425 1117 q 336 1053 358 1117 l 200 1053 z "},"ẽ":{"ha":856,"x_min":24,"x_max":857,"o":"m 499 789 q 741 707 651 789 q 831 483 831 625 q 824 400 831 436 q 807 336 815 356 l 292 336 q 290 311 290 328 q 316 233 290 258 q 385 208 342 208 q 493 269 453 208 l 782 269 q 687 126 750 189 q 538 26 624 63 q 357 -10 453 -10 q 114 74 204 -10 q 24 303 24 157 q 32 390 24 344 q 120 602 54 513 q 284 740 186 692 q 499 789 382 789 m 556 458 q 558 483 558 478 q 531 551 558 528 q 458 574 503 574 q 369 544 407 574 q 314 458 332 515 l 556 458 m 221 849 q 468 1074 297 1074 q 523 1065 499 1074 q 578 1038 547 1056 q 616 1017 601 1024 q 647 1011 631 1011 q 719 1074 699 1011 l 857 1074 q 610 850 779 850 q 556 859 579 850 q 499 886 532 868 q 460 906 475 900 q 429 913 446 913 q 357 849 379 913 l 221 849 z "},"Ỳ":{"ha":974,"x_min":108,"x_max":1071,"o":"m 1071 979 l 608 311 l 553 0 l 281 0 l 335 311 l 108 979 l 419 979 l 525 600 l 764 979 l 1071 979 m 803 1221 l 769 1036 l 447 1172 l 483 1378 l 803 1221 z "},"ỳ":{"ha":910,"x_min":-8,"x_max":983,"o":"m 364 779 l 449 338 l 685 779 l 983 779 l 288 -371 l -8 -371 l 249 33 l 61 779 l 364 779 m 735 1017 l 701 832 l 379 968 l 415 1174 l 735 1017 z "},"Ỹ":{"ha":974,"x_min":108,"x_max":1071,"o":"m 1071 979 l 608 311 l 553 0 l 281 0 l 335 311 l 108 979 l 419 979 l 525 600 l 764 979 l 1071 979 m 303 1053 q 550 1278 379 1278 q 605 1269 581 1278 q 660 1242 629 1260 q 698 1222 683 1228 q 729 1215 713 1215 q 801 1278 781 1215 l 939 1278 q 692 1054 861 1054 q 638 1063 661 1054 q 581 1090 614 1072 q 542 1110 557 1104 q 511 1117 528 1117 q 439 1053 461 1117 l 303 1053 z "},"ỹ":{"ha":910,"x_min":-8,"x_max":983,"o":"m 364 779 l 449 338 l 685 779 l 983 779 l 288 -371 l -8 -371 l 249 33 l 61 779 l 364 779 m 233 849 q 481 1074 310 1074 q 535 1065 511 1074 q 590 1038 560 1056 q 628 1017 614 1024 q 660 1011 643 1011 q 732 1074 711 1011 l 869 1074 q 622 850 792 850 q 568 859 592 850 q 511 886 544 868 q 473 906 488 900 q 442 913 458 913 q 369 849 392 913 l 233 849 z "},"–":{"ha":957,"x_min":82,"x_max":906,"o":"m 906 594 l 865 368 l 82 368 l 122 594 l 906 594 z "},"—":{"ha":1296,"x_min":82,"x_max":1244,"o":"m 1244 594 l 1204 368 l 82 368 l 122 594 l 1244 594 z "},"‘":{"ha":481,"x_min":90,"x_max":500,"o":"m 365 588 l 90 588 l 319 979 l 500 979 l 365 588 z "},"’":{"ha":481,"x_min":119,"x_max":529,"o":"m 254 979 l 529 979 l 300 588 l 119 588 l 254 979 z "},"‚":{"ha":456,"x_min":-33,"x_max":376,"o":"m 103 244 l 376 244 l 149 -147 l -33 -147 l 103 244 z "},"“":{"ha":839,"x_min":90,"x_max":858,"o":"m 365 588 l 90 588 l 319 979 l 500 979 l 365 588 m 724 588 l 449 588 l 678 979 l 858 979 l 724 588 z "},"”":{"ha":839,"x_min":119,"x_max":888,"o":"m 254 979 l 529 979 l 300 588 l 119 588 l 254 979 m 613 979 l 888 979 l 658 588 l 478 588 l 613 979 z "},"„":{"ha":801,"x_min":-33,"x_max":722,"o":"m 103 244 l 376 244 l 149 -147 l -33 -147 l 103 244 m 449 244 l 722 244 l 494 -147 l 313 -147 l 449 244 z "},"†":{"ha":953,"x_min":101,"x_max":950,"o":"m 913 574 l 619 593 l 476 -372 l 204 -372 l 400 593 l 101 574 l 138 779 l 429 760 l 463 1099 l 736 1099 l 649 760 l 950 779 l 913 574 z "},"‡":{"ha":951,"x_min":-10,"x_max":950,"o":"m 619 593 l 539 135 l 840 154 l 803 -51 l 510 -33 l 476 -372 l 203 -372 l 290 -33 l -10 -51 l 28 154 l 319 135 l 400 593 l 100 574 l 138 779 l 429 760 l 461 1099 l 735 1099 l 649 760 l 950 779 l 913 574 l 619 593 z "},"•":{"ha":721,"x_min":147,"x_max":597,"o":"m 333 243 q 199 293 251 243 q 147 421 147 343 q 151 463 147 442 q 201 575 163 524 q 294 656 239 626 q 411 685 350 685 q 546 634 494 685 q 597 504 597 583 q 560 374 597 435 q 463 278 524 314 q 333 243 401 243 z "},"…":{"ha":1132,"x_min":0,"x_max":1039,"o":"m 496 -11 q 395 21 432 -11 q 358 104 358 53 q 383 187 358 149 q 450 248 407 225 q 546 271 493 271 q 645 238 608 271 q 682 154 682 206 q 628 37 682 85 q 496 -11 575 -11 m 853 -11 q 752 21 789 -11 q 715 104 715 53 q 740 187 715 149 q 807 248 764 225 q 903 271 850 271 q 1002 238 965 271 q 1039 154 1039 206 q 985 37 1039 85 q 853 -11 932 -11 m 138 -11 q 37 21 74 -11 q 0 104 0 53 q 24 187 0 149 q 92 248 49 225 q 188 271 135 271 q 287 238 250 271 q 324 154 324 206 q 270 37 324 85 q 138 -11 217 -11 z "},"‰":{"ha":1711,"x_min":92,"x_max":1651,"o":"m 97 754 q 197 933 118 871 q 382 996 275 996 q 530 949 475 996 q 585 813 585 901 q 579 754 585 782 q 481 575 558 638 q 297 513 404 513 q 148 560 204 513 q 92 699 92 608 q 97 754 92 715 m 1092 982 l 392 0 l 131 0 l 831 982 l 1092 982 m 353 838 q 281 754 297 838 q 278 725 278 732 q 322 672 278 672 q 371 693 351 672 q 397 754 390 714 q 400 785 400 765 q 353 838 400 838 m 643 229 q 742 408 664 346 q 926 471 819 471 q 1074 424 1019 471 q 1129 286 1129 376 q 1124 229 1129 268 q 1026 49 1103 113 q 842 -14 949 -14 q 693 34 749 -14 q 638 174 638 82 q 643 229 638 190 m 1164 229 q 1263 408 1185 346 q 1449 471 1342 471 q 1597 424 1542 471 q 1651 288 1651 376 q 1646 229 1651 257 q 1548 49 1625 113 q 1365 -14 1471 -14 q 1215 35 1272 -14 q 1158 174 1158 83 q 1164 229 1158 190 m 897 311 q 825 229 839 311 q 822 199 822 218 q 868 146 822 146 q 942 229 925 146 q 944 257 944 249 q 932 297 944 283 q 897 311 919 311 m 1419 311 q 1347 229 1361 311 q 1344 200 1344 207 q 1390 146 1344 146 q 1438 167 1418 146 q 1464 229 1457 188 q 1467 257 1467 251 q 1419 311 1467 311 z "},"‹":{"ha":493,"x_min":65,"x_max":469,"o":"m 133 167 l 65 410 l 219 653 l 469 653 l 311 410 l 383 167 l 133 167 z "},"›":{"ha":493,"x_min":29,"x_max":433,"o":"m 188 410 l 115 653 l 365 653 l 433 410 l 279 167 l 29 167 l 188 410 z "},"⁄":{"ha":782,"x_min":-82,"x_max":881,"o":"m 881 982 l 181 0 l -82 0 l 618 982 l 881 982 z "},"€":{"ha":1101,"x_min":13,"x_max":1101,"o":"m 560 244 q 673 274 621 244 q 761 357 725 303 l 1054 357 q 845 91 988 189 q 519 -7 703 -7 q 236 85 343 -7 q 114 333 129 176 l 13 333 l 36 464 l 117 464 l 121 492 l 126 522 l 47 522 l 69 654 l 171 654 q 382 899 243 808 q 696 989 521 989 q 907 944 817 989 q 1047 818 997 900 q 1101 625 1097 736 l 808 625 q 750 708 792 679 q 647 738 708 738 q 469 654 542 738 l 672 654 l 650 522 l 404 522 q 397 492 399 503 l 393 464 l 639 464 l 615 333 l 410 333 q 468 267 429 290 q 560 244 507 244 z "},"₺":{"ha":1147,"x_min":3,"x_max":1142,"o":"m 1142 651 q 1023 273 1101 417 q 816 61 944 129 q 492 -7 688 -7 q 111 36 338 -7 l 165 342 l 3 317 l 31 481 l 194 506 l 206 569 l 40 543 l 68 701 l 233 729 l 279 985 l 556 985 l 519 775 l 692 804 l 664 642 l 490 614 l 479 550 l 654 578 l 625 414 l 450 386 l 428 258 q 535 249 472 249 q 715 302 649 249 q 811 440 781 356 q 865 651 842 524 l 1142 651 z "},"₽":{"ha":961,"x_min":-33,"x_max":983,"o":"m 665 979 q 903 913 822 979 q 983 735 983 846 q 978 675 983 703 q 845 457 954 542 q 558 372 736 372 l 424 372 l 411 303 l 597 303 l 561 97 l 374 97 l 357 0 l 85 0 l 101 97 l -33 97 l 3 303 l 138 303 l 150 372 l 15 372 l 51 581 l 188 581 l 257 979 l 665 979 m 701 697 q 679 753 701 732 q 614 774 657 774 l 494 774 l 460 581 l 579 581 q 669 613 636 581 q 701 697 701 644 z "},"ℓ":{"ha":428,"x_min":7,"x_max":463,"o":"m 463 1028 l 281 0 l 7 0 l 189 1028 l 463 1028 z "},"™":{"ha":1271,"x_min":115,"x_max":1322,"o":"m 569 982 l 542 825 l 425 825 l 367 496 l 174 496 l 233 825 l 115 825 l 143 982 l 569 982 m 1322 982 l 1236 496 l 1060 496 l 1101 754 l 951 496 l 822 496 l 767 768 l 718 496 l 550 496 l 636 982 l 897 982 l 938 732 l 1082 982 l 1322 982 z "},"Ω":{"ha":1097,"x_min":-19,"x_max":1082,"o":"m 1074 525 q 1013 346 1056 425 q 892 207 969 267 l 1014 207 l 976 0 l 604 0 l 642 213 q 738 342 701 276 q 789 489 774 407 q 796 558 796 531 q 748 695 796 647 q 610 743 700 743 q 434 677 504 743 q 342 489 364 611 q 333 408 333 446 q 349 307 333 354 q 392 213 364 260 l 354 0 l -19 0 l 18 207 l 139 207 q 61 421 61 290 q 71 525 61 475 q 181 776 96 669 q 389 938 265 882 q 654 994 513 994 q 876 950 779 994 q 1027 820 972 906 q 1082 618 1082 735 q 1074 525 1082 574 z "},"℮":{"ha":1033,"x_min":47,"x_max":1022,"o":"m 913 186 q 457 -10 697 -10 q 242 34 335 -10 q 99 163 150 78 q 47 364 47 247 q 57 469 47 417 q 160 739 83 619 q 356 927 236 858 q 622 996 475 996 q 842 946 751 996 q 977 810 932 896 q 1022 621 1022 725 q 1015 536 1022 572 l 1000 447 l 340 447 l 297 196 q 485 146 382 146 q 840 290 672 146 l 913 186 m 775 806 q 597 847 711 847 q 403 799 493 847 l 365 581 l 735 581 l 775 806 z "},"∂":{"ha":874,"x_min":29,"x_max":871,"o":"m 38 358 q 128 581 60 485 q 292 728 196 676 q 492 779 388 779 q 631 725 588 779 q 580 837 622 799 q 446 875 538 875 q 364 868 400 875 l 386 1003 q 565 1028 486 1028 q 794 941 717 1028 q 871 697 871 854 q 858 560 871 633 q 751 255 826 383 q 563 58 675 126 q 317 -10 451 -10 q 109 62 189 -10 q 29 271 29 133 q 38 358 29 311 m 546 435 q 549 468 549 447 q 529 531 549 510 q 478 553 510 553 q 373 500 415 553 q 314 360 331 447 q 310 318 310 338 q 330 249 310 271 q 383 226 350 226 q 487 283 444 226 q 546 435 529 339 z "},"∆":{"ha":1046,"x_min":-42,"x_max":985,"o":"m 738 982 l 985 207 l 947 0 l -42 0 l -6 207 l 517 982 l 738 982 m 276 207 l 703 207 l 572 674 l 276 207 z "},"∏":{"ha":1042,"x_min":44,"x_max":1125,"o":"m 1125 982 l 1088 778 l 994 778 l 857 0 l 585 0 l 721 778 l 454 778 l 318 0 l 44 0 l 182 778 l 88 778 l 125 982 l 1125 982 z "},"∑":{"ha":779,"x_min":-26,"x_max":828,"o":"m 790 776 l 390 776 l 665 582 l 631 376 l 264 142 l 679 142 l 642 -67 l -26 -67 l 31 253 l 383 472 l 103 665 l 160 982 l 828 982 l 790 776 z "},"−":{"ha":729,"x_min":44,"x_max":714,"o":"m 714 594 l 674 368 l 44 368 l 85 594 l 714 594 z "},"∕":{"ha":592,"x_min":-136,"x_max":779,"o":"m 779 1322 l 128 -268 l -136 -268 l 517 1322 l 779 1322 z "},"∙":{"ha":450,"x_min":17,"x_max":340,"o":"m 154 283 q 53 315 90 283 q 17 399 17 347 q 41 481 17 443 q 108 542 65 519 q 204 565 151 565 q 303 533 267 565 q 340 449 340 500 q 287 331 340 379 q 154 283 233 283 z "},"√":{"ha":1354,"x_min":25,"x_max":1476,"o":"m 1476 1272 l 493 -57 l 363 -57 l 213 333 l 81 263 l 25 388 l 426 601 l 560 250 l 1318 1272 l 1476 1272 z "},"∞":{"ha":1126,"x_min":54,"x_max":1104,"o":"m 876 732 q 1044 682 983 732 q 1104 540 1104 632 q 1099 483 1104 510 q 1040 350 1085 407 q 931 263 996 293 q 794 233 867 233 q 648 265 708 233 q 542 350 588 296 q 422 265 490 296 q 281 233 354 233 q 113 284 172 233 q 54 428 54 335 q 58 482 54 453 q 117 615 72 558 q 226 702 161 672 q 361 732 290 732 q 508 699 451 732 q 607 607 565 665 q 730 698 660 664 q 876 732 800 732 m 329 411 q 395 426 361 411 q 458 471 429 442 q 408 534 432 513 q 354 556 385 556 q 301 536 324 556 q 271 482 278 517 q 269 465 269 476 q 286 426 269 440 q 329 411 303 411 m 888 500 q 872 541 888 526 q 829 556 856 556 q 756 537 794 556 q 685 483 717 518 q 737 430 708 449 q 803 411 765 411 q 863 435 838 411 q 888 500 888 460 z "},"∫":{"ha":419,"x_min":-214,"x_max":653,"o":"m 246 1044 q 388 1258 289 1197 q 632 1319 488 1319 l 653 1319 l 590 1088 l 567 1088 q 518 1044 532 1088 l 193 -125 q 51 -339 151 -278 q -193 -400 -49 -400 l -214 -400 l -151 -168 l -128 -168 q -79 -125 -93 -168 l 246 1044 z "},"≈":{"ha":936,"x_min":11,"x_max":940,"o":"m 11 132 q 161 385 68 303 q 371 467 254 467 q 453 453 418 467 q 533 413 488 439 q 590 384 568 393 q 635 375 611 375 q 697 397 672 375 q 736 468 721 419 l 940 468 q 790 216 883 297 q 579 135 696 135 q 497 149 532 135 q 417 188 461 163 q 362 217 385 207 q 314 226 339 226 q 253 204 278 226 q 211 132 229 182 l 11 132 m 11 497 q 161 750 68 668 q 371 832 254 832 q 453 818 418 832 q 533 778 488 804 q 590 749 568 758 q 635 740 611 740 q 697 763 672 740 q 736 833 721 785 l 940 833 q 790 581 883 663 q 579 500 696 500 q 497 514 532 500 q 417 553 461 528 q 362 582 385 572 q 314 592 339 592 q 253 569 278 592 q 211 497 229 547 l 11 497 z "},"≠":{"ha":911,"x_min":-1,"x_max":950,"o":"m 826 788 l 926 788 l 883 542 l 601 542 l 488 417 l 861 417 l 818 169 l 263 169 l 139 33 l -1 33 l 122 169 l 21 169 l 64 417 l 347 417 l 461 542 l 86 542 l 131 788 l 686 788 l 810 924 l 950 924 l 826 788 z "},"≤":{"ha":701,"x_min":4,"x_max":721,"o":"m 411 529 l 632 275 l 294 275 l 72 528 l 383 783 l 721 783 l 411 529 m 40 168 l 611 168 l 575 -42 l 4 -42 l 40 168 z "},"≥":{"ha":701,"x_min":-26,"x_max":676,"o":"m 28 275 l 339 528 l 117 783 l 454 783 l 676 528 l 365 275 l 28 275 m 10 168 l 581 168 l 544 -42 l -26 -42 l 10 168 z "},"◊":{"ha":789,"x_min":38,"x_max":786,"o":"m 786 492 l 347 118 l 38 492 l 478 864 l 786 492 m 297 492 l 393 375 l 528 492 l 433 607 l 297 492 z "},"ﬁ":{"ha":951,"x_min":33,"x_max":972,"o":"m 564 863 q 540 864 556 864 q 477 844 499 864 q 444 779 456 825 l 914 779 l 776 0 l 504 0 l 601 553 l 404 553 l 307 0 l 33 0 l 131 553 l 46 553 l 86 779 l 171 779 l 172 786 q 298 1017 199 938 q 557 1096 397 1096 q 604 1094 589 1096 l 564 863 m 835 1100 q 935 1069 899 1100 q 972 988 972 1039 q 919 874 972 919 q 788 829 865 829 q 687 860 724 829 q 650 940 650 890 q 703 1054 650 1008 q 835 1100 756 1100 z "},"ﬂ":{"ha":946,"x_min":33,"x_max":981,"o":"m 578 863 q 549 864 567 864 q 479 844 503 864 q 444 779 456 824 l 567 779 l 526 553 l 404 553 l 307 0 l 33 0 l 131 553 l 46 553 l 86 779 l 171 779 l 172 786 q 301 1016 200 936 q 567 1096 403 1096 q 618 1094 600 1096 l 578 863 m 981 1028 l 799 0 l 525 0 l 707 1028 l 981 1028 z "}}}
